<svg width="48" height="48" viewBox="0 0 48 48" fill="none" xmlns="http://www.w3.org/2000/svg">
<g clip-path="url(#clip0)">
<path d="M18.5254 45.0644C17.7338 45.0644 16.9246 44.743 16.3016 44.122C15.269 43.0914 15.0614 41.5122 15.8098 40.3699L19.603 34.9465C19.844 34.5782 19.7343 33.9747 19.3307 33.5731C18.929 33.1695 18.3256 33.0578 17.9337 33.3203L12.5613 37.0783C11.3955 37.8424 9.8163 37.6367 8.78375 36.6021C7.68066 35.4991 7.52783 33.8043 8.42911 32.66L10.7646 29.6936C10.8586 29.5741 11.3818 28.8218 14.2502 24.3585C15.3748 22.6088 16.6915 20.9748 18.161 19.5033C20.0301 17.6381 23.071 17.6361 24.9362 19.5033C25.5652 20.1303 26.0099 20.9179 26.2255 21.78C26.8309 24.1978 28.7079 26.0748 31.1237 26.6783C31.9839 26.8918 32.7715 27.3386 33.4004 27.9675C35.2696 29.8367 35.2696 32.8756 33.4004 34.7428C31.929 36.2142 30.2949 37.5309 28.5433 38.6555C24.08 41.5239 23.3277 42.0471 23.2121 42.1391L20.2437 44.4746C19.7441 44.8724 19.1387 45.0644 18.5254 45.0644V45.0644ZM18.4333 31.2278C19.2543 31.2278 20.083 31.5589 20.7159 32.1898C21.7778 33.2537 21.9914 34.876 21.2234 36.0477L17.4301 41.471C17.2087 41.81 17.3106 42.3664 17.6868 42.7387C18.0806 43.1345 18.6704 43.2226 19.0309 42.9425L21.9992 40.607C22.1227 40.509 22.4577 40.2445 27.4833 37.0156C29.1154 35.9673 30.6398 34.7389 32.0132 33.3673C33.1183 32.2623 33.1183 30.4656 32.0132 29.3606C31.6371 28.9844 31.1629 28.716 30.6476 28.5866C27.5264 27.8068 25.1028 25.3832 24.323 22.262C24.1937 21.7467 23.9252 21.2745 23.5491 20.8964C22.446 19.7913 20.6473 19.7933 19.5442 20.8964C18.1727 22.2698 16.9442 23.7942 15.896 25.4263C12.6671 30.4499 12.4006 30.7869 12.3027 30.9123L9.96717 33.8787C9.68503 34.2373 9.77319 34.827 10.169 35.2228C10.5432 35.599 11.0996 35.7009 11.4621 35.4638L16.8345 31.7058C17.3185 31.3806 17.8749 31.2278 18.4333 31.2278V31.2278Z" fill="#C3C9D0"/>
<path d="M46.0448 19.5913H35.5665C33.2408 19.5913 31.017 18.8683 29.1361 17.5007L27.4569 16.2801C24.0693 13.8173 19.3454 14.0485 16.2164 16.8307C14.212 18.6117 11.6336 19.5913 8.95132 19.5913H0.980872C0.440105 19.5913 0.0012207 19.1524 0.0012207 18.6117C0.0012207 18.0709 0.440105 17.632 0.980872 17.632H8.95132C11.1516 17.632 13.2696 16.8267 14.9135 15.3651C18.7224 11.9736 24.4847 11.6934 28.607 14.695L30.2862 15.9157C31.8321 17.0384 33.6581 17.632 35.5665 17.632H46.0448C46.5856 17.632 47.0245 18.0709 47.0245 18.6117C47.0245 19.1524 46.5856 19.5913 46.0448 19.5913V19.5913Z" fill="#C3C9D0"/>
<path d="M22.5378 7.8392C21.997 7.8392 21.5581 7.40031 21.5581 6.85955V4.90024C21.5581 4.35948 21.997 3.92059 22.5378 3.92059C23.0785 3.92059 23.5174 4.35948 23.5174 4.90024V6.85955C23.5174 7.40031 23.0785 7.8392 22.5378 7.8392Z" fill="#C3C9D0"/>
<path d="M28.4159 9.79702C28.1651 9.79702 27.9144 9.70101 27.7223 9.51096C27.3403 9.1289 27.3403 8.5078 27.7223 8.12573L29.6816 6.16643C30.0637 5.78437 30.6848 5.78437 31.0669 6.16643C31.4489 6.54849 31.4489 7.16959 31.0669 7.55166L29.1076 9.51096C28.9175 9.70101 28.6667 9.79702 28.4159 9.79702V9.79702Z" fill="#C3C9D0"/>
<path d="M16.6601 9.79702C16.4094 9.79702 16.1586 9.70101 15.9666 9.51096L14.0073 7.55166C13.6252 7.16959 13.6252 6.54849 14.0073 6.16643C14.3893 5.78437 15.0104 5.78437 15.3925 6.16643L17.3518 8.12573C17.7338 8.5078 17.7338 9.1289 17.3518 9.51096C17.1617 9.70101 16.9109 9.79702 16.6601 9.79702V9.79702Z" fill="#C3C9D0"/>
</g>
<defs>
<clipPath id="clip0">
<rect width="47.0233" height="47.0233" fill="white"/>
</clipPath>
</defs>
</svg>
