<svg width="42" height="42" viewBox="0 0 42 42" fill="none" xmlns="http://www.w3.org/2000/svg">
<g clip-path="url(#clip0)">
<path d="M29.4635 41.1624C27.3813 41.1624 25.5925 39.6942 25.21 37.6687L23.2891 27.6027C23.0524 26.3129 21.9135 25.3833 20.5792 25.3833C19.2448 25.3833 18.106 26.3129 17.8727 27.5958L15.9501 37.6704C15.5659 39.6942 13.777 41.1624 11.6949 41.1624C9.48065 41.1624 7.63176 39.521 7.39336 37.3445L6.64042 30.4326C6.37458 27.9577 5.83775 25.4845 5.04879 23.0782L3.58923 18.5811C2.34405 14.7736 1.71289 10.7997 1.71289 6.77428C1.71289 3.03876 4.78981 -0.000427246 8.57336 -0.000427246C11.3501 -0.000427246 14.0411 0.678759 16.9534 2.07315C19.3957 3.25315 21.7643 3.25315 24.2032 2.07315C26.6301 0.92059 28.8443 0.265416 30.9814 0.0698925C31.3124 0.03216 31.6005 0.188236 31.7772 0.452363C31.9521 0.716491 31.9641 1.05608 31.8132 1.33393L30.508 3.7351C30.2679 4.17417 30.2387 4.69728 30.4239 5.1655C30.6092 5.63202 30.9882 5.99047 31.4633 6.14655C32.8646 6.62164 33.801 7.9337 33.801 9.41385C33.801 9.70199 33.7684 9.97469 33.705 10.2234C33.6123 10.6076 33.5626 11.0158 33.5626 11.4394C33.5626 13.3192 34.6431 15.0789 36.3154 15.9227C36.7596 16.1354 37.1832 16.3892 37.5588 16.6722C37.8367 16.8815 37.9602 17.2382 37.8727 17.5744C37.7955 17.8677 37.7063 18.1489 37.6137 18.4405L36.1113 23.0747C35.3206 25.4845 34.7855 27.9577 34.5179 30.4309L33.765 37.3445C33.5266 39.521 31.6777 41.1624 29.4635 41.1624V41.1624ZM20.5792 23.6682C22.7437 23.6682 24.5908 25.1912 24.975 27.2871L26.8942 37.3479C27.1223 38.5657 28.2029 39.4472 29.4635 39.4472C30.8013 39.4472 31.9178 38.4628 32.0602 37.1593L32.8131 30.2474C33.0909 27.6558 33.6518 25.0643 34.4819 22.5431L35.938 18.0529C35.9775 17.9294 36.0135 17.8196 36.0461 17.7184C35.8917 17.6275 35.7305 17.5418 35.5624 17.4612C33.2985 16.3223 31.8475 13.9606 31.8475 11.4394C31.8475 10.8768 31.9127 10.328 32.043 9.80661C32.0722 9.69341 32.0859 9.56135 32.0859 9.41556C32.0859 8.6712 31.6177 8.01088 30.9196 7.7742C29.966 7.46033 29.2028 6.73998 28.8289 5.79838C28.4533 4.85507 28.515 3.80542 28.9987 2.91699L29.4806 2.02856C28.0468 2.33042 26.5478 2.85524 24.9424 3.62018C22.0456 5.01972 19.1059 5.01972 16.2073 3.61847C13.5369 2.33728 11.0894 1.71469 8.72772 1.71469C5.73655 1.71469 3.42801 3.98379 3.42801 6.77428C3.42801 10.6196 4.03173 14.4134 5.22202 18.0512L6.67987 22.5465C7.50655 25.0643 8.06911 27.6558 8.34696 30.2491L9.0999 37.1593C9.24225 38.4628 10.3571 39.4472 11.6949 39.4472C12.9538 39.4472 14.0343 38.5657 14.2641 37.3497L16.185 27.2802C16.5675 25.1912 18.4147 23.6682 20.5792 23.6682V23.6682Z" fill="#C3C9D0"/>
</g>
<defs>
<clipPath id="clip0">
<rect width="41.1628" height="41.1628" fill="white"/>
</clipPath>
</defs>
</svg>
