<svg width="45" height="45" viewBox="0 0 45 45" fill="none" xmlns="http://www.w3.org/2000/svg">
<g clip-path="url(#clip0)">
<path d="M23.3306 44.9739C21.496 44.9739 19.9125 43.6528 19.5602 41.8351L17.9674 33.2074C17.7856 32.2067 16.9292 31.4815 15.9285 31.4815C14.9278 31.4815 14.0714 32.2067 13.8897 33.2037L12.2949 41.8276C11.9445 43.6528 10.3592 44.9739 8.52644 44.9739C6.55692 44.9739 4.92472 43.4841 4.72796 41.5071L4.11143 35.6267C3.87156 33.4923 3.43119 31.3822 2.7978 29.3621L1.58348 25.5243C0.5322 22.2224 0 18.8043 0 15.3656C0 12.06 2.66475 9.36902 5.9404 9.36902C8.25284 9.36902 10.5934 9.97618 13.007 11.1718C14.9728 12.1462 16.8823 12.1462 18.8481 11.1718C19.3128 10.9488 19.7701 10.7314 20.2479 10.5533C20.7314 10.3716 21.2711 10.6171 21.4548 11.1024C21.6365 11.5878 21.3892 12.1275 20.9038 12.3092C20.4803 12.4666 20.0755 12.6615 19.6708 12.8564C17.1915 14.0857 14.6673 14.0857 12.1769 12.8527C10.0237 11.7845 7.96238 11.243 6.05283 11.243C3.69916 11.243 1.87394 13.0925 1.87394 15.3656C1.87394 18.6113 2.37803 21.8382 3.36747 24.9583L4.58366 28.7999C5.25266 30.9362 5.71927 33.1643 5.97225 35.4243L6.58878 41.316C6.69185 42.3354 7.52575 43.1 8.52644 43.1C9.46341 43.1 10.2748 42.4179 10.4547 41.479L12.0476 32.8664C12.3886 30.9793 14.0208 29.6076 15.9285 29.6076C17.8362 29.6076 19.4684 30.9793 19.8113 32.8701L21.4023 41.4884C21.5841 42.4179 22.3936 43.1 23.3306 43.1C24.3313 43.1 25.1652 42.3354 25.2664 41.3197L25.8829 35.4299C26.1359 33.1643 26.6025 30.9362 27.2696 28.8018L28.4877 24.9583C29.479 21.8382 29.9831 18.6113 29.9831 15.3656C29.9831 14.3406 29.6083 13.3568 28.928 12.5997C28.5814 12.2137 28.6151 11.6234 28.9993 11.2767C29.3834 10.93 29.9756 10.9619 30.3223 11.3479C31.3117 12.4517 31.857 13.8777 31.857 15.3656C31.857 18.8024 31.3248 22.2224 30.2754 25.5243L29.0592 29.364C28.4277 31.3803 27.9873 33.4904 27.7475 35.6323L27.1309 41.5109C26.9323 43.4841 25.3001 44.9739 23.3306 44.9739V44.9739Z" fill="#C3C9D0"/>
<path d="M25.2983 9.36971C24.7811 9.36971 24.3613 8.94995 24.3613 8.43274V0.936971C24.3613 0.419763 24.7811 0 25.2983 0C25.8155 0 26.2353 0.419763 26.2353 0.936971V8.43274C26.2353 8.94995 25.8155 9.36971 25.2983 9.36971Z" fill="#C3C9D0"/>
<path d="M29.046 5.62449H21.5503C21.033 5.62449 20.6133 5.20473 20.6133 4.68752C20.6133 4.17031 21.033 3.75055 21.5503 3.75055H29.046C29.5632 3.75055 29.983 4.17031 29.983 4.68752C29.983 5.20473 29.5632 5.62449 29.046 5.62449Z" fill="#C3C9D0"/>
<path d="M40.2905 22.4892C39.7733 22.4892 39.3535 22.0695 39.3535 21.5522V14.0565C39.3535 13.5393 39.7733 13.1195 40.2905 13.1195C40.8077 13.1195 41.2275 13.5393 41.2275 14.0565V21.5522C41.2275 22.0695 40.8077 22.4892 40.2905 22.4892Z" fill="#C3C9D0"/>
<path d="M44.0382 18.7391H36.5424C36.0252 18.7391 35.6055 18.3194 35.6055 17.8021C35.6055 17.2849 36.0252 16.8652 36.5424 16.8652H44.0382C44.5554 16.8652 44.9752 17.2849 44.9752 17.8021C44.9752 18.3194 44.5554 18.7391 44.0382 18.7391Z" fill="#C3C9D0"/>
</g>
<defs>
<clipPath id="clip0">
<rect width="44.9746" height="44.9746" fill="white"/>
</clipPath>
</defs>
</svg>
