<svg width="43" height="43" viewBox="0 0 43 43" fill="none" xmlns="http://www.w3.org/2000/svg">
<g clip-path="url(#clip0)">
<path d="M30.1824 42.1624C28.0514 42.1624 26.2173 40.6603 25.8238 38.5891L23.8597 28.2645C23.6085 26.9521 22.4402 26 21.0805 26C19.7207 26 18.5525 26.9521 18.303 28.2645L16.3389 38.5873C15.9436 40.6603 14.1113 42.1624 11.9786 42.1624C9.70706 42.1624 7.81149 40.4794 7.56905 38.2465L6.79958 31.1772C6.52201 28.6193 5.97741 26.086 5.17983 23.6424L3.67954 19.0396C2.40411 15.1237 1.75586 11.0533 1.75586 6.93887C1.75586 3.11259 4.90753 -0.000427246 8.78299 -0.000427246C11.6378 -0.000427246 14.3959 0.695259 17.3631 2.12704C19.8648 3.3357 22.2979 3.3357 24.7978 2.12704C27.765 0.695259 30.5232 -0.000427246 33.2286 -0.000427246C37.2534 -0.000427246 40.4051 3.11259 40.4051 6.93887C40.4051 11.0515 39.7568 15.1237 38.4814 19.0413L36.9811 23.6424C36.1835 26.086 35.6389 28.6193 35.3614 31.1772L34.5919 38.2465C34.3495 40.4794 32.4539 42.1624 30.1824 42.1624V42.1624ZM21.0805 24.2432C23.2835 24.2432 25.179 25.7962 25.5831 27.9377L27.5472 38.2605C27.7844 39.5026 28.8929 40.4056 30.1824 40.4056C31.5544 40.4056 32.6998 39.3954 32.8456 38.0568L33.6151 30.9875C33.9067 28.3119 34.4777 25.6556 35.3122 23.0978L36.8125 18.4967C38.0299 14.7566 38.6483 10.867 38.6483 6.93887C38.6483 4.08058 36.2837 1.75636 33.378 1.75636C30.792 1.75636 28.285 2.39582 25.562 3.7099C22.5878 5.14519 19.5714 5.14519 16.5989 3.7099C13.8759 2.39582 11.369 1.75636 8.93232 1.75636C5.87727 1.75636 3.51264 4.08058 3.51264 6.93887C3.51264 10.867 4.13103 14.7566 5.35024 18.4967L6.85053 23.0978C7.685 25.6556 8.25596 28.3101 8.54582 30.9857L9.3153 38.055C9.46111 39.3954 10.6065 40.4056 11.9786 40.4056C13.2681 40.4056 14.3748 39.5026 14.612 38.2588L16.5761 27.9359C16.9819 25.7962 18.8775 24.2432 21.0805 24.2432V24.2432ZM33.7188 38.1516H33.7363H33.7188Z" fill="#C3C9D0"/>
<path d="M23.7161 17.5674H18.4457C16.9929 17.5674 15.8105 16.3851 15.8105 14.9322V11.4187C15.8105 9.96582 16.9929 8.78351 18.4457 8.78351H23.7161C25.1689 8.78351 26.3512 9.96582 26.3512 11.4187V14.9322C26.3512 16.3851 25.1689 17.5674 23.7161 17.5674ZM18.4457 10.5403C17.9608 10.5403 17.5673 10.9338 17.5673 11.4187V14.9322C17.5673 15.4171 17.9608 15.8106 18.4457 15.8106H23.7161C24.2009 15.8106 24.5945 15.4171 24.5945 14.9322V11.4187C24.5945 10.9338 24.2009 10.5403 23.7161 10.5403H18.4457Z" fill="#C3C9D0"/>
<path d="M41.2837 14.0538H25.4726C24.9878 14.0538 24.5942 13.6603 24.5942 13.1754C24.5942 12.6906 24.9878 12.2971 25.4726 12.2971H41.2837C41.7685 12.2971 42.1621 12.6906 42.1621 13.1754C42.1621 13.6603 41.7685 14.0538 41.2837 14.0538Z" fill="#C3C9D0"/>
<path d="M16.689 14.0538H0.877903C0.393031 14.0538 -0.000488281 13.6603 -0.000488281 13.1754C-0.000488281 12.6906 0.393031 12.2971 0.877903 12.2971H16.689C17.1738 12.2971 17.5673 12.6906 17.5673 13.1754C17.5673 13.6603 17.1738 14.0538 16.689 14.0538Z" fill="#C3C9D0"/>
</g>
<defs>
<clipPath id="clip0">
<rect width="42.1628" height="42.1628" fill="white"/>
</clipPath>
</defs>
</svg>
