<svg width="40" height="40" viewBox="0 0 40 40" fill="none" xmlns="http://www.w3.org/2000/svg">
<g clip-path="url(#clip0)">
<path d="M23.9768 22.8171C22.7626 22.8171 21.7114 22.0104 21.48 20.9005L20.5217 15.4799C20.4451 15.1213 20.0279 14.8312 19.5536 14.8312C19.0793 14.8312 18.6621 15.1213 18.5806 15.5043L17.6321 20.8744C17.3958 22.0104 16.3446 22.8171 15.1304 22.8171C13.8315 22.8171 12.7444 21.911 12.6026 20.7082L12.231 17.5888C12.2082 17.4128 12.0029 16.3681 11.144 12.4012C10.7756 10.7095 10.5898 8.97545 10.5898 7.24626C10.5898 5.04769 12.3777 3.25983 14.5746 3.25983C15.3129 3.25983 16.0382 3.46029 16.6722 3.84003C18.4486 4.90427 20.6553 4.90427 22.4351 3.84003C23.0674 3.46029 23.7943 3.25983 24.5326 3.25983C26.7295 3.25983 28.5174 5.04769 28.5174 7.24626C28.5174 8.97708 28.3316 10.7112 27.9616 12.4045C27.0001 16.8277 26.8876 17.491 26.8746 17.5888L26.503 20.7098C26.3628 21.911 25.2758 22.8171 23.9768 22.8171V22.8171ZM19.5536 13.2015C20.802 13.2015 21.8826 14.0294 22.1205 15.1702L23.0788 20.5909C23.1489 20.9201 23.5368 21.1874 23.9768 21.1874C24.4413 21.1874 24.8406 20.8924 24.8879 20.5159L25.2595 17.3965C25.2969 17.0673 25.6718 15.2713 26.3726 12.0574C26.7148 10.4781 26.8876 8.86137 26.8876 7.24626C26.8876 5.94733 25.8315 4.8896 24.5326 4.8896C24.0893 4.8896 23.6541 5.01021 23.276 5.23837C20.9813 6.61391 18.1308 6.61391 15.8361 5.23837C15.4531 5.01021 15.0196 4.8896 14.5746 4.8896C13.2757 4.8896 12.2196 5.9457 12.2196 7.24626C12.2196 8.85974 12.3924 10.4765 12.7363 12.0557C13.4778 15.4766 13.8103 17.0738 13.8494 17.3981L14.221 20.5175C14.2666 20.8924 14.6659 21.1874 15.1304 21.1874C15.5704 21.1874 15.9583 20.9201 16.0333 20.5664L16.9818 15.1963C17.2247 14.0294 18.3052 13.2015 19.5536 13.2015V13.2015Z" fill="#C3C9D0"/>
<path d="M35.0387 34.2261H4.07297C1.82551 34.2261 -0.00146484 32.3975 -0.00146484 30.1517V15.4837C-0.00146484 14.1359 1.09537 13.0391 2.4432 13.0391H4.51138C6.45245 13.0391 8.13601 14.426 8.51085 16.3377C9.05846 19.1018 9.36486 21.0592 9.36486 21.0592C9.70222 23.9341 12.1811 26.0773 15.1326 26.0773C16.5619 26.0773 17.9358 25.5574 19.0034 24.6121C19.3097 24.3399 19.7759 24.3399 20.0806 24.6105C21.1563 25.5574 22.54 26.0773 23.9791 26.0773C26.9322 26.0773 29.4095 23.9357 29.7436 21.0934C29.7468 21.0641 30.0418 19.1458 30.5976 16.3361C30.9757 14.426 32.6576 13.0391 34.597 13.0391H36.6685C38.0163 13.0391 39.1132 14.1359 39.1132 15.4837V30.1517C39.1132 32.3975 37.2862 34.2261 35.0387 34.2261V34.2261ZM2.4432 14.6688C1.99501 14.6688 1.62831 15.0339 1.62831 15.4837V30.1517C1.62831 31.4995 2.72515 32.5964 4.07297 32.5964H35.0387C36.3865 32.5964 37.4834 31.4995 37.4834 30.1517V15.4837C37.4834 15.0339 37.1167 14.6688 36.6685 14.6688H34.597C33.4334 14.6688 32.4229 15.5033 32.1948 16.6539C31.6488 19.4164 31.3571 21.3053 31.3554 21.3134C30.9301 24.9462 27.7569 27.707 23.9791 27.707C22.377 27.707 20.8254 27.2002 19.5444 26.2663C18.27 27.2002 16.7282 27.707 15.1326 27.707C11.3548 27.707 8.18001 24.9446 7.74975 21.2808H7.75138C7.74975 21.2808 7.44661 19.3593 6.91204 16.6539C6.68714 15.5033 5.67504 14.6688 4.51138 14.6688H2.4432Z" fill="#C3C9D0"/>
</g>
<defs>
<clipPath id="clip0">
<rect width="39.1146" height="39.1146" fill="white"/>
</clipPath>
</defs>
</svg>
