<svg width="41" height="41" viewBox="0 0 41 41" fill="none" xmlns="http://www.w3.org/2000/svg">
<g clip-path="url(#clip0)">
<path d="M25.1345 41.0022C23.8618 41.0022 22.76 40.1583 22.5174 38.9932L21.5129 33.3113C21.4343 32.9337 20.997 32.6314 20.4998 32.6314C20.0027 32.6314 19.5654 32.9354 19.4817 33.3369L18.4857 38.9676C18.238 40.1583 17.1378 41.0022 15.8651 41.0022C14.5053 41.0022 13.3658 40.0524 13.2155 38.7916L12.826 35.5236C12.8004 35.3083 12.4878 33.7674 11.6865 30.0842C11.2988 28.3093 11.104 26.4916 11.104 24.6791C11.104 22.3762 12.978 20.5022 15.2826 20.5022C16.0565 20.5022 16.815 20.7123 17.4795 21.1104C19.3433 22.2276 21.6564 22.2276 23.5202 21.1104C24.1847 20.7123 24.9449 20.5022 25.7171 20.5022C28.0216 20.5022 29.8957 22.3762 29.8957 24.6791C29.8957 26.4933 29.7009 28.311 29.3148 30.0859C28.3308 34.6045 28.189 35.3903 28.1754 35.5219L27.7859 38.7933C27.6355 40.0524 26.4961 41.0022 25.1345 41.0022V41.0022ZM20.4998 30.923C21.8101 30.923 22.9428 31.7926 23.1905 32.9901L24.195 38.6703C24.2667 39.0137 24.6733 39.2939 25.1345 39.2939C25.6231 39.2939 26.0417 38.9847 26.0878 38.5917C26.0878 38.59 26.0878 38.59 26.0878 38.59L26.4773 35.3203C26.4944 35.1819 26.5371 34.8112 27.6441 29.7238C28.0028 28.0684 28.1856 26.372 28.1856 24.6825C28.1856 23.3192 27.0786 22.2122 25.7154 22.2122C25.2524 22.2122 24.7963 22.3387 24.3983 22.5778C21.9912 24.0231 19.0033 24.0214 16.5997 22.5778C16.2017 22.3369 15.7455 22.2105 15.2826 22.2105C13.9193 22.2105 12.8123 23.3175 12.8123 24.6791C12.8123 26.3686 12.9951 28.065 13.3539 29.7204C14.0868 33.0875 14.4797 34.9718 14.5207 35.3186L14.9102 38.5883C14.958 38.9847 15.3765 39.2939 15.8651 39.2939C16.3264 39.2939 16.733 39.0137 16.8098 38.643L17.8058 33.014C18.0569 31.7909 19.1895 30.923 20.4998 30.923V30.923Z" fill="#C3C9D0"/>
<path d="M7.68911 30.7501C7.43628 30.7501 7.18857 30.639 7.02115 30.4289L0.187817 21.8872C-0.00693305 21.6429 -0.053058 21.3132 0.0665253 21.0245L8.60819 0.524526C8.79098 0.0871922 9.28982 -0.109266 9.72544 0.0632755C10.1611 0.244359 10.3661 0.7449 10.185 1.18053L1.83978 21.2159L4.7559 24.8614L3.47978 21.672C3.38923 21.4448 3.39948 21.1919 3.50882 20.9733L13.7588 0.473276C13.9689 0.0513172 14.4849 -0.121225 14.9051 0.0906088C15.3271 0.302442 15.4979 0.814942 15.2878 1.2369L5.20861 21.3918L8.48348 29.5782C8.64065 29.9694 8.48519 30.4204 8.12132 30.6322C7.98465 30.7125 7.83603 30.7501 7.68911 30.7501Z" fill="#C3C9D0"/>
<path d="M33.315 30.7498C33.1681 30.7498 33.0212 30.7122 32.8862 30.6336C32.5206 30.4218 32.3669 29.9708 32.524 29.5796L35.7989 21.3932L25.7181 1.23659C25.5062 0.814636 25.6788 0.302136 26.1007 0.0903029C26.5227 -0.12153 27.0352 0.0527196 27.247 0.47297L37.497 20.973C37.6063 21.1916 37.6166 21.4445 37.526 21.6717L36.2499 24.8611L39.166 21.2156L30.8191 1.18193C30.638 0.746303 30.8431 0.245761 31.2787 0.0646779C31.7143 -0.11128 32.2148 0.0885945 32.3959 0.525928L40.9376 21.0259C41.0572 21.3146 41.0111 21.6443 40.8163 21.8886L33.983 30.4303C33.8138 30.6387 33.5661 30.7498 33.315 30.7498V30.7498Z" fill="#C3C9D0"/>
</g>
<defs>
<clipPath id="clip0">
<rect width="41" height="41" fill="white"/>
</clipPath>
</defs>
</svg>
