<svg width="42" height="42" viewBox="0 0 42 42" fill="none" xmlns="http://www.w3.org/2000/svg">
<path d="M32.4847 41.9994C32.3989 41.9994 32.3149 41.9942 32.2344 41.9819C30.9307 41.7789 29.8614 40.2197 29.5429 39.2292C29.1439 37.9744 28.9217 36.6777 28.7047 35.4247C28.5839 34.7317 28.4632 34.0387 28.3144 33.3544C28.2217 32.9484 28.1359 32.5302 28.0519 32.1119C27.7859 30.8064 27.5322 29.5762 27.0404 28.4649C26.2459 26.6414 25.0699 25.5284 23.3357 24.9597C21.8324 24.4662 20.1699 24.4662 18.6667 24.9597L18.3937 24.1284L18.6667 24.9597C16.9324 25.5284 15.7564 26.6397 14.9637 28.4597C14.4702 29.5762 14.2164 30.8082 13.9504 32.1119C13.8647 32.5302 13.7789 32.9484 13.6862 33.3614C13.5392 34.0387 13.4202 34.7317 13.2977 35.4247C13.0807 36.6777 12.8567 37.9762 12.4594 39.2274C12.1409 40.2197 11.0717 41.7789 9.78368 41.9802C8.56568 42.1377 6.91368 41.0579 6.38868 40.0499C3.99643 35.1342 3.38743 30.9272 4.46193 26.7849C4.74893 25.6387 5.29143 24.4137 6.06843 23.1502C6.61618 22.2577 6.60218 21.6749 6.01243 20.8419C4.20643 18.3097 2.15543 15.4344 1.82993 11.7489C1.59718 9.06969 1.66893 5.19869 4.94493 2.50719C7.95493 0.0239418 11.1767 -0.630558 14.2654 0.622442C15.2244 1.01444 16.6157 1.59369 17.9667 2.15544C19.8952 2.95869 22.1054 2.96044 24.0339 2.15544C25.3832 1.59369 26.7744 1.01444 27.7369 0.622442C30.8222 -0.628808 34.0457 0.0221919 37.0592 2.50894C40.3334 5.20044 40.4052 9.07144 40.1724 11.7489C39.8469 15.4344 37.7977 18.3114 35.9882 20.8472C35.4002 21.6767 35.3862 22.2612 35.9357 23.1554C36.7109 24.4154 37.2534 25.6404 37.5422 26.7954C38.6149 30.9272 38.0077 35.1359 35.6242 40.0289C35.1237 40.9879 33.6467 41.9994 32.4847 41.9994V41.9994ZM20.9994 22.8387C21.9759 22.8387 22.9507 22.9909 23.8799 23.2954C26.0902 24.0217 27.6477 25.4812 28.6399 27.7597C29.2069 29.0389 29.4904 30.4232 29.7652 31.7602C29.8492 32.1679 29.9314 32.5739 30.0207 32.9747C30.1782 33.6904 30.3024 34.4062 30.4249 35.1254C30.6419 36.3767 30.8467 37.5597 31.2089 38.6989C31.4452 39.4322 32.1784 40.2039 32.4864 40.2529C32.7489 40.3054 33.8059 39.7262 34.0597 39.2414C36.2384 34.7667 36.8072 30.9429 35.8429 27.2294C35.5962 26.2407 35.1254 25.1819 34.4412 24.0724C33.5294 22.5814 33.5679 21.2357 34.5584 19.8339C36.3224 17.3612 38.1442 14.8079 38.4259 11.5967C38.7444 7.91819 37.9779 5.53294 35.9427 3.85994C33.4192 1.77919 30.8799 1.23319 28.3932 2.24469C27.4342 2.63494 26.0499 3.20894 24.7042 3.77069C22.3487 4.75419 19.6449 4.75419 17.2912 3.77069C15.9437 3.20894 14.5594 2.63494 13.6022 2.24469C11.1172 1.23319 8.57443 1.77919 6.05443 3.85994C4.01743 5.53294 3.25093 7.91994 3.56943 11.5984C3.85118 14.8062 5.67293 17.3594 7.43518 19.8304C8.42743 21.2357 8.46593 22.5814 7.55593 24.0689C6.86993 25.1802 6.39918 26.2407 6.15418 27.2207C5.18643 30.9429 5.75518 34.7667 7.94443 39.2642C8.18943 39.7244 9.19218 40.3002 9.52468 40.2494C9.81868 40.2039 10.5519 39.4322 10.7882 38.6954C11.1504 37.5579 11.3552 36.3767 11.5722 35.1237C11.6947 34.4062 11.8207 33.6887 11.9747 32.9799C12.0674 32.5722 12.1497 32.1662 12.2319 31.7584C12.5049 30.4214 12.7884 29.0372 13.3589 27.7527C14.3477 25.4794 15.9069 24.0199 18.1172 23.2937C19.0482 22.9909 20.0229 22.8387 20.9994 22.8387V22.8387Z" fill="#C3C9D0"/>
<path d="M21.0021 36.7515C19.5828 36.7515 18.3403 35.7382 18.0463 34.3417L16.1738 24.8987L17.8888 24.5592L19.7596 33.9917C19.8821 34.5727 20.4053 35.0015 21.0021 35.0015C21.5988 35.0015 22.1221 34.5727 22.2463 33.9812L24.1153 24.5592L25.8303 24.8987L23.9596 34.3312C23.6638 35.7382 22.4213 36.7515 21.0021 36.7515V36.7515Z" fill="#C3C9D0"/>
</svg>
