<svg width="48" height="48" viewBox="0 0 48 48" fill="none" xmlns="http://www.w3.org/2000/svg">
<g clip-path="url(#clip0)">
<path d="M30.4755 41.2087C28.6978 41.2087 27.1731 39.8744 26.8494 38.0359L25.3522 27.9736C25.1893 27.0436 24.4319 26.3509 23.5528 26.3509C22.6738 26.3509 21.9183 27.0436 21.7515 27.9972L20.2622 38.0123C19.9326 39.8744 18.4079 41.2087 16.6302 41.2087C14.7386 41.2087 13.161 39.7175 12.9648 37.7396L12.384 31.9353C12.3604 31.694 12.1446 30.2635 10.6729 22.2185C10.1039 19.1202 9.81738 15.9414 9.81738 12.7704C9.81738 8.97553 12.484 5.88898 15.7609 5.88898C16.8911 5.88898 17.9959 6.25199 18.9554 6.93483C21.7908 8.95591 25.3149 8.95591 28.1483 6.93483C29.1098 6.25199 30.2146 5.88898 31.3448 5.88898C34.6217 5.88898 37.2883 8.97553 37.2883 12.7704C37.2883 15.9375 37.0018 19.1182 36.4328 22.2204C34.9611 30.2655 34.7453 31.694 34.7217 31.9353L34.1409 37.7396C33.9427 39.7175 32.3671 41.2087 30.4755 41.2087ZM23.5528 24.3867C25.3875 24.3867 26.9573 25.7622 27.2889 27.6577L28.7861 37.7199C28.9391 38.5931 29.6514 39.2465 30.4755 39.2465C31.3546 39.2465 32.0924 38.5146 32.1885 37.5433L32.7693 31.7391C32.8282 31.1544 33.411 27.8343 34.5039 21.8672C35.0494 18.8808 35.3261 15.8217 35.3261 12.7724C35.3261 10.0587 33.5405 7.85119 31.3448 7.85119C30.6266 7.85119 29.9143 8.08665 29.2884 8.53404C25.7505 11.0555 21.3571 11.0574 17.8173 8.53404C17.1914 8.08665 16.481 7.85119 15.7609 7.85119C13.5652 7.85119 11.7796 10.0587 11.7796 12.7704C11.7796 15.8236 12.0563 18.8827 12.6018 21.8653C13.6927 27.8324 14.2775 31.1544 14.3364 31.7391L14.9172 37.5453C15.0133 38.5146 15.7511 39.2465 16.6302 39.2465C17.4523 39.2465 18.1666 38.5931 18.3236 37.6964L19.8129 27.6832C20.1484 25.7622 21.7182 24.3867 23.5528 24.3867V24.3867Z" fill="#C3C9D0"/>
<path d="M4.61573 37.2735C2.49459 37.2735 1.08768 36.7437 0.41072 35.69C0.116388 35.2308 -0.174019 34.44 0.130124 33.298C1.17794 29.3599 9.05818 22.9768 19.7385 17.4159C31.2154 11.441 44.1523 7.45572 46.6855 11.3978C47.8805 13.2442 46.5462 15.958 42.716 19.4605C42.3157 19.8235 41.6956 19.798 41.3287 19.3977C40.9637 18.9974 40.9912 18.3774 41.3915 18.0104C44.9823 14.7296 45.3728 12.9774 45.0373 12.4594C43.8305 10.5756 33.9684 12.216 20.647 19.1524C9.42707 24.9939 2.78696 30.9434 2.02758 33.8003C1.93143 34.1614 1.94321 34.44 2.06486 34.6284C2.42591 35.1955 4.1193 35.6291 7.68071 34.9973C8.22228 34.907 8.7246 35.2583 8.81879 35.792C8.91297 36.3257 8.55781 36.8359 8.02409 36.9301C6.73492 37.1577 5.5988 37.2735 4.61573 37.2735V37.2735Z" fill="#C3C9D0"/>
<path d="M42.4855 37.2746C41.5024 37.2746 40.3663 37.1608 39.0791 36.9332C38.5454 36.839 38.1902 36.3288 38.2844 35.7951C38.3786 35.2634 38.8789 34.9043 39.4225 35.0004C42.9878 35.6323 44.6753 35.1967 45.0363 34.6315C45.158 34.4432 45.1698 34.1645 45.0736 33.8035C44.3142 30.9465 37.6741 24.9971 26.4542 19.1556C13.1308 12.2192 3.27463 10.5847 2.06788 12.4586C1.72056 12.9982 2.14244 14.8073 5.91773 18.1843C6.32195 18.5453 6.35727 19.1654 5.99622 19.5696C5.63517 19.9758 5.01511 20.0072 4.6109 19.6481C0.607991 16.0671 -0.802837 13.2925 0.415695 11.399C2.94498 7.45494 15.8838 11.4402 27.3588 17.4171C38.0391 22.978 45.9193 29.361 46.9672 33.2992C47.2713 34.4412 46.9829 35.23 46.6866 35.6911C46.0135 36.7448 44.6047 37.2746 42.4855 37.2746V37.2746Z" fill="#C3C9D0"/>
</g>
<defs>
<clipPath id="clip0">
<rect width="47.093" height="47.093" fill="white"/>
</clipPath>
</defs>
</svg>
