<svg width="51" height="51" viewBox="0 0 51 51" fill="none" xmlns="http://www.w3.org/2000/svg">
<g clip-path="url(#clip0)">
<path d="M13.4548 46.7504C12.83 46.7504 12.218 46.5783 11.6868 46.2532C10.3459 45.4924 9.67653 43.9051 10.1249 42.4962L12.5835 35.7408C12.6048 35.6601 12.626 35.5517 12.626 35.4667C12.626 35.0481 12.3498 34.6167 11.9205 34.3659C11.3914 34.0663 10.7199 34.1216 10.3714 34.5041L5.81115 39.9504C4.78903 41.0894 2.99553 41.2828 1.69928 40.4923C0.260652 39.6657 -0.381098 37.9317 0.235152 36.4739L1.85228 32.7063C1.9989 32.3642 3.02528 29.2404 4.0049 26.1528C4.68065 24.0172 5.60715 21.9347 6.75678 19.9669C7.68965 18.3392 9.3769 17.3617 11.266 17.3617C12.1352 17.3617 13.0468 17.6082 13.8309 18.0544C14.7085 18.5729 15.397 19.2827 15.839 20.1157C17.1225 22.4064 19.5599 23.8429 22.1885 23.8429H22.4648C23.3509 23.8429 24.2519 24.0894 25.0722 24.5548C25.5524 24.8204 25.9859 25.1711 26.3493 25.5897C26.7339 26.0338 26.685 26.7053 26.243 27.0899C25.801 27.4746 25.1295 27.4257 24.7428 26.9837C24.5473 26.7563 24.3008 26.5587 24.033 26.4099C23.5209 26.1188 22.9812 25.9679 22.4648 25.9679H22.1885C18.7907 25.9679 15.6435 24.1149 13.9733 21.1314C13.6992 20.6172 13.2954 20.2071 12.7642 19.8904C11.3128 19.0659 9.4024 19.6269 8.59703 21.0337C7.52178 22.8739 6.65903 24.8119 6.03003 26.7988C5.53703 28.3543 4.06865 32.9337 3.80515 33.5478L2.19015 37.3112C1.99678 37.7681 2.25815 38.3673 2.78515 38.6691C3.54378 39.1323 3.94115 38.8582 4.20678 38.5607L8.77128 33.1079C9.81678 31.9626 11.5742 31.7309 12.9767 32.5257C14.0753 33.1653 14.7489 34.2894 14.7489 35.4688C14.7489 35.7642 14.7 36.0702 14.598 36.4102L12.1373 43.1826C12.0077 43.5906 12.2733 44.1431 12.7684 44.4236C13.0468 44.5936 13.2912 44.6254 13.4548 44.6254C13.7778 44.6254 14.071 44.4916 14.241 44.2642L16.6827 40.9917C16.9674 40.6049 18.7099 38.6754 21.4235 35.6856C22.8409 34.1258 24.0968 32.4131 25.1593 30.5941C25.2379 30.4517 25.3144 30.2838 25.3782 30.1011C25.5099 29.6612 25.9158 29.3361 26.396 29.3361C26.9825 29.3361 27.4585 29.8014 27.4585 30.3879V30.4092C27.4585 30.5239 27.4394 30.6366 27.4033 30.7449C27.2992 31.0616 27.1674 31.3506 27.0102 31.6396C25.8584 33.6116 24.5133 35.4454 22.996 37.1136C21.704 38.5373 18.678 41.8672 18.389 42.2582L15.941 45.5371C15.3715 46.2978 14.4429 46.7504 13.4548 46.7504V46.7504Z" fill="#C3C9D0"/>
<path d="M40.8306 38.2511C39.2453 38.2511 37.8768 37.1992 37.5751 35.75L36.3256 28.6822C36.2278 28.2147 35.6838 27.8386 35.0654 27.8386C34.4471 27.8386 33.9031 28.2147 33.7989 28.7141L32.5601 35.7181C32.2519 37.1992 30.8834 38.2511 29.3003 38.2511C27.6067 38.2511 26.1914 37.0696 26.0044 35.5013L25.5199 31.4341C25.4881 31.1685 25.0992 29.2517 24.1026 24.6702C23.6202 22.4623 23.3779 20.2013 23.3779 17.9488C23.3779 15.0822 25.7091 12.7511 28.5757 12.7511C29.5383 12.7511 30.4818 13.0125 31.3084 13.5076C33.6268 14.8973 36.5041 14.8973 38.8224 13.5076C39.6491 13.0125 40.5947 12.7511 41.5552 12.7511C44.4218 12.7511 46.7529 15.0822 46.7529 17.9488C46.7529 20.2035 46.5107 22.4645 46.0304 24.6723C44.7724 30.4502 44.6258 31.3087 44.6131 31.4341L44.1286 35.5035C43.9416 37.0696 42.5242 38.2511 40.8306 38.2511ZM35.0654 25.7136C36.6953 25.7136 38.1021 26.7931 38.4123 28.2827L39.6618 35.3484C39.7511 35.7776 40.2568 36.1261 40.8306 36.1261C41.4383 36.1261 41.9589 35.7415 42.0163 35.2506L42.5029 31.1833C42.5221 31.0261 42.5794 30.548 43.9543 24.2218C44.4006 22.1627 44.6279 20.0526 44.6279 17.9488C44.6279 16.2552 43.2509 14.8761 41.5552 14.8761C40.9793 14.8761 40.4119 15.0333 39.9168 15.3308C36.9248 17.1265 33.2082 17.1265 30.2162 15.3308C29.7189 15.0333 29.1516 14.8761 28.5757 14.8761C26.8799 14.8761 25.5029 16.2531 25.5029 17.9488C25.5029 20.0505 25.7303 22.1606 26.1766 24.2197C27.0882 28.406 27.5748 30.7477 27.6279 31.1812L28.1124 35.2506C28.1719 35.7415 28.6926 36.1261 29.3003 36.1261C29.8741 36.1261 30.3798 35.7776 30.4754 35.3165L31.7143 28.3146C32.0288 26.7931 33.4356 25.7136 35.0654 25.7136V25.7136Z" fill="#C3C9D0"/>
<path d="M1.06416 25.5006C0.64341 25.5006 0.24391 25.2477 0.0781598 24.8334C-0.140715 24.2894 0.12491 23.671 0.671035 23.4521L5.98354 21.3271C6.52329 21.1082 7.14591 21.3739 7.36478 21.92C7.58366 22.464 7.31804 23.0824 6.77191 23.3012L1.45941 25.4262C1.32978 25.4772 1.19591 25.5006 1.06416 25.5006V25.5006Z" fill="#C3C9D0"/>
<path d="M49.9396 25.5008C49.7802 25.5008 49.6187 25.4646 49.4657 25.3881L45.2157 23.2631C44.6908 22.9996 44.4783 22.3621 44.7397 21.8373C45.0032 21.3124 45.6386 21.102 46.1656 21.3613L50.4156 23.4863C50.9405 23.7498 51.153 24.3873 50.8916 24.9121C50.7025 25.2861 50.3285 25.5008 49.9396 25.5008V25.5008Z" fill="#C3C9D0"/>
<path d="M14.3946 11.8885C14.2394 11.8885 14.0843 11.8545 13.9356 11.7844L11.2283 10.4796C10.6992 10.2246 10.4782 9.58925 10.7311 9.06225C10.9882 8.53312 11.6236 8.31 12.1506 8.565L14.8578 9.86975C15.3869 10.1247 15.6101 10.7601 15.3551 11.2871C15.1702 11.6675 14.7898 11.8885 14.3946 11.8885Z" fill="#C3C9D0"/>
<path d="M22.4168 9.08231C22.2616 9.08231 22.1065 9.04831 21.9578 8.97818C21.4286 8.72318 21.2055 8.08781 21.4605 7.56081L22.7653 4.85356C23.0224 4.32443 23.6578 4.10343 24.1826 4.35631C24.7118 4.61131 24.9349 5.24668 24.6799 5.77368L23.3751 8.48093C23.1924 8.86131 22.812 9.08231 22.4168 9.08231Z" fill="#C3C9D0"/>
<path d="M17.7069 8.48077C17.267 8.48077 16.8569 8.20664 16.7039 7.76889L16.0026 5.76289C15.8093 5.21039 16.1004 4.60477 16.655 4.40927C17.2139 4.22014 17.8153 4.50914 18.0086 5.06164L18.7099 7.06764C18.9033 7.62227 18.6121 8.22789 18.0575 8.42127C17.9406 8.46164 17.8238 8.48077 17.7069 8.48077V8.48077Z" fill="#C3C9D0"/>
</g>
<defs>
<clipPath id="clip0">
<rect width="51" height="51" fill="white"/>
</clipPath>
</defs>
</svg>
