<svg width="42" height="42" viewBox="0 0 42 42" fill="none" xmlns="http://www.w3.org/2000/svg">
<g clip-path="url(#clip0)">
<path d="M28.7359 41.9752C26.6948 41.9752 24.9442 40.5271 24.5716 38.5333L22.7003 28.7077C22.4782 27.473 21.3886 26.5845 20.1136 26.5845C18.8386 26.5845 17.749 27.473 17.5287 28.6973L15.6556 38.535C15.283 40.5271 13.5323 41.9752 11.4913 41.9752C9.30167 41.9752 7.48452 40.3522 7.26415 38.1992L6.5296 31.4886C6.27251 29.0296 5.75482 26.6195 4.99403 24.3232L3.5739 19.9281C2.36538 16.2221 1.74976 12.3412 1.74976 8.39559C1.74976 4.73157 4.75443 1.74963 8.44818 1.74963C11.152 1.74963 13.7772 2.41248 16.6105 3.77665C18.8666 4.86449 21.037 4.91521 23.2547 3.92356C23.6954 3.72768 24.2131 3.92531 24.409 4.36429C24.6066 4.80503 24.409 5.32271 23.9683 5.52034C21.2906 6.71661 18.5605 6.6589 15.8514 5.35069C13.2595 4.10545 10.8845 3.49857 8.5881 3.49857C5.71984 3.49857 3.49869 5.69524 3.49869 8.39559C3.49869 12.1558 4.08459 15.8548 5.23888 19.3877L6.65727 23.7792C7.45479 26.1893 7.99871 28.7235 8.26979 31.3032L9.00435 38.0156C9.13377 39.2783 10.2024 40.2262 11.4913 40.2262C12.6911 40.2262 13.7177 39.3798 13.9363 38.2115L15.8077 28.3789C16.1802 26.3292 17.9904 24.8356 20.1136 24.8356C22.2368 24.8356 24.047 26.3292 24.4195 28.3877L26.2891 38.208C26.5077 39.3798 27.5361 40.2262 28.7359 40.2262C30.0248 40.2262 31.0952 39.2783 31.2246 38.0208L31.9591 31.2997C32.2302 28.7235 32.7741 26.1893 33.5734 23.774L34.9901 19.3912C35.5375 17.7104 35.9502 15.9965 36.2528 14.1496C36.3315 13.6721 36.7862 13.3538 37.2567 13.4273C37.7324 13.506 38.0559 13.9555 37.9772 14.4312C37.6607 16.3672 37.2269 18.1652 36.6533 19.9316L35.2349 24.3197C34.4724 26.623 33.9564 29.033 33.6976 31.4886L32.963 38.208C32.7427 40.3522 30.9255 41.9752 28.7359 41.9752V41.9752Z" fill="#C3C9D0"/>
<path d="M38.3676 16.412C37.6978 16.412 37.0892 16.0675 36.7604 15.4728L36.0241 14.1332C35.4819 13.1503 34.1859 12.6763 33.0211 13.0331C30.793 13.7082 28.8359 12.7567 27.6397 10.4272C27.01 9.20116 25.8925 8.1378 24.0194 6.98176C23.3897 6.59349 22.942 5.98136 22.7916 5.30103C22.6482 4.65567 22.7811 3.98058 23.1659 3.39818C24.551 1.29946 27.066 0 29.7296 0C35.5169 0 40.225 4.31463 40.225 9.61915V14.6596C40.225 15.4606 39.6793 16.1392 38.8713 16.3473C38.7017 16.391 38.532 16.412 38.3676 16.412V16.412ZM33.8326 11.1635C35.3717 11.1635 36.8216 11.9522 37.5579 13.2902L38.2942 14.6281H38.4761V9.61915C38.4761 5.28004 34.5532 1.74894 29.7296 1.74894C27.6467 1.74894 25.6913 2.74758 24.6297 4.35485C24.5003 4.55248 24.4566 4.73612 24.5003 4.92326C24.5475 5.14013 24.7119 5.3535 24.9393 5.49341C26.3927 6.39236 28.1906 7.67259 29.1962 9.6279C30.0165 11.2212 31.0973 11.7931 32.5157 11.3593C32.9529 11.2264 33.3972 11.1635 33.8326 11.1635V11.1635Z" fill="#C3C9D0"/>
</g>
<defs>
<clipPath id="clip0">
<rect width="41.9745" height="41.9745" fill="white"/>
</clipPath>
</defs>
</svg>
