<svg width="24" height="24" viewBox="0 0 24 24" fill="none" xmlns="http://www.w3.org/2000/svg">
<path fill-rule="evenodd" clip-rule="evenodd" d="M22 12C22 17.5228 17.5228 22 12 22C6.47715 22 2 17.5228 2 12C2 6.47715 6.47715 2 12 2C17.5228 2 22 6.47715 22 12ZM24 12C24 18.6274 18.6274 24 12 24C5.37258 24 0 18.6274 0 12C0 5.37258 5.37258 0 12 0C18.6274 0 24 5.37258 24 12ZM11.001 5C11.001 4.44772 11.4488 4 12.001 4C12.5533 4 13.001 4.44772 13.001 5V11H19C19.5523 11 20 11.4477 20 12C20 12.5523 19.5523 13 19 13H13.001V19C13.001 19.5523 12.5533 20 12.001 20C11.4488 20 11.001 19.5523 11.001 19V13H5C4.44772 13 4 12.5523 4 12C4 11.4477 4.44772 11 5 11H11.001V5Z" fill="#E6E6E6"/>
</svg>
