<svg width="24" height="24" viewBox="0 0 24 24" fill="none" xmlns="http://www.w3.org/2000/svg">
<path d="M19.7413 22.7104C19.2481 22.7104 18.755 22.5871 18.2619 22.3406C16.5361 21.2311 17.7688 19.1354 19.0016 17.163C19.4947 16.4233 20.2344 15.0673 20.3576 14.4509C19.4947 14.6974 17.5223 16.5466 16.2895 17.6561C13.3309 20.2449 10.3723 22.9569 8.27657 20.9845C6.30415 19.1354 8.76967 15.9302 11.7283 11.9854C13.2076 9.88967 16.7826 5.20518 15.9197 4.34225H15.7964C13.3309 4.34225 6.30415 10.9992 2.11276 15.6837C1.61966 16.1768 0.879999 16.1768 0.386895 15.8069C-0.10621 15.3138 -0.10621 14.5742 0.263619 14.0811C2.11276 12.1086 11.3585 2 15.7964 2C16.9059 2 17.399 2.4931 17.7688 2.86293C19.9878 5.20518 16.9059 9.27329 13.7007 13.7112C12.3447 15.5604 10.249 18.3957 10.0024 19.5052C10.8654 19.5052 13.2076 17.2862 14.5637 16.0535C17.1525 13.7112 19.4947 11.6155 21.3438 12.3552C21.9602 12.6017 22.4533 13.0949 22.5766 13.7112C23.0697 15.1905 22.0835 16.9164 20.974 18.7656C20.6042 19.2587 20.2344 20.1216 19.9878 20.6147C20.4809 20.3681 21.2206 19.7518 21.8369 19.1354C22.2068 18.6423 23.0697 18.519 23.5628 19.0121C24.0559 19.3819 24.1792 20.2449 23.6861 20.738C23.5628 20.4914 21.7137 22.7104 19.7413 22.7104V22.7104Z" fill="url(#paint0_linear_1718_31199)"/>
<defs>
<linearGradient id="paint0_linear_1718_31199" x1="-3.43203" y1="14.5964" x2="12.9462" y2="28.3644" gradientUnits="userSpaceOnUse">
<stop stop-color="#FA926B"/>
<stop offset="1" stop-color="#FA5F6B"/>
</linearGradient>
</defs>
</svg>
