<svg width="28" height="26" viewBox="0 0 28 26" fill="none" xmlns="http://www.w3.org/2000/svg">
    <path d="M0.0108435 23.1229C-0.0254723 23.3026 0.0307104 23.4884 0.160166 23.6181C1.18491 24.6426 2.4769 25.3224 3.89706 25.5837C4.19464 25.6383 4.47961 25.4416 4.5343 25.1447C4.58899 24.8473 4.39245 24.5621 4.09509 24.5072C3.17438 24.3378 2.31711 23.9603 1.57648 23.4026C1.7053 23.3346 2.32224 23.1904 3.17331 22.3406C3.76398 21.7496 4.13568 21.116 4.49521 20.5031C4.82077 19.9483 5.12817 19.4243 5.57784 18.9746C6.769 17.7826 8.15264 17.6796 9.44761 18.9744C10.5275 20.0557 10.5029 21.7891 9.44783 22.8442C9.14256 23.1494 8.80547 23.4216 8.44615 23.6529C8.19194 23.8166 8.11867 24.1552 8.2823 24.4094C8.44594 24.6634 8.78453 24.7369 9.03874 24.5732C9.46342 24.2998 9.8614 23.9785 10.2218 23.6181C11.0968 22.7431 11.4907 21.4934 11.2922 20.2845C13.6521 18.4296 16.6612 15.6303 18.8406 13.4512C21.6497 10.642 24.131 7.83569 25.8275 5.54907C26.653 4.43631 28.7238 1.66435 27.7407 0.681257C26.7579 -0.301406 23.9878 1.76731 22.8729 2.59425C20.5863 4.29084 17.78 6.77227 14.9706 9.58141C12.8352 11.7187 10.0819 14.669 8.2195 17.0249C7.0465 16.7664 5.82159 17.1823 4.80389 18.2006C4.25509 18.7494 3.89728 19.3593 3.55121 19.9491C3.21155 20.5281 2.8909 21.0749 2.39957 21.5667C1.59293 22.3718 1.18918 22.3263 0.340677 22.7243C0.170847 22.7935 0.0469457 22.9431 0.0108435 23.1229ZM9.27757 17.4532C10.3472 16.1219 11.8269 14.4435 13.4579 12.7123L15.7093 14.9634C13.9687 16.6038 12.2779 18.0932 10.9287 19.1756C10.7467 18.8178 10.5087 18.488 10.2218 18.2006C9.91822 17.8971 9.60249 17.6476 9.27757 17.4532ZM15.7446 10.3554C18.3409 7.759 20.9659 5.41876 23.1361 3.76575C25.5857 1.89976 26.5863 1.56672 26.9108 1.51097C26.8551 1.83546 26.522 2.83607 24.656 5.28567C23.003 7.45586 20.6628 10.0809 18.0666 12.6772C17.5597 13.1839 17.0348 13.6975 16.5023 14.2087L14.2129 11.9193C14.7234 11.388 15.237 10.8631 15.7446 10.3554Z" fill="url(#paint0_linear_1935_13458)" />
    <defs>
        <linearGradient id="paint0_linear_1935_13458" x1="-4.00404" y1="15.7313" x2="15.7462" y2="31.6686" gradientUnits="userSpaceOnUse">
            <stop stop-color="#FA926B" />
            <stop offset="1" stop-color="#FA5F6B" />
        </linearGradient>
    </defs>
</svg>