<svg width="18" height="18" viewBox="0 0 18 18" fill="none" xmlns="http://www.w3.org/2000/svg">
<g clip-path="url(#clip0_1007_2906)">
<path d="M4.50397 16.7349C4.50397 16.9292 4.34645 17.0867 4.15213 17.0867C3.95781 17.0867 3.80029 16.9292 3.80029 16.7349C3.80029 16.5406 3.95781 16.3831 4.15213 16.3831C4.34645 16.3831 4.50397 16.5406 4.50397 16.7349Z" fill="#C3C9D0"/>
<path d="M0.00697085 15.5075C-0.016375 15.623 0.0197424 15.7425 0.102964 15.8259C0.761729 16.4845 1.59229 16.9215 2.50525 17.0894C2.69655 17.1246 2.87975 16.9981 2.91491 16.8072C2.95006 16.616 2.82372 16.4327 2.63256 16.3974C2.04067 16.2885 1.48957 16.0459 1.01345 15.6873C1.09626 15.6436 1.49287 15.5509 2.03998 15.0046C2.4197 14.6246 2.65865 14.2173 2.88977 13.8233C3.09906 13.4667 3.29668 13.1298 3.58576 12.8407C4.3515 12.0744 5.24098 12.0083 6.07347 12.8406C6.76766 13.5358 6.75187 14.65 6.0736 15.3283C5.87736 15.5246 5.66066 15.6995 5.42967 15.8482C5.26625 15.9534 5.21914 16.1711 5.32434 16.3345C5.42953 16.4978 5.6472 16.545 5.81062 16.4398C6.08363 16.2641 6.33947 16.0575 6.57114 15.8259C7.13364 15.2634 7.38688 14.46 7.2593 13.6828C8.77637 12.4904 10.7108 10.6909 12.1118 9.28997C13.9177 7.48409 15.5128 5.68001 16.6034 4.21004C17.1341 3.49469 18.4653 1.71272 17.8333 1.08073C17.2015 0.449018 15.4207 1.77891 14.704 2.31051C13.2341 3.40117 11.43 4.99638 9.62396 6.80226C8.25122 8.17623 6.48119 10.0729 5.28396 11.5873C4.52989 11.4212 3.74245 11.6885 3.08821 12.3432C2.73542 12.696 2.50539 13.0881 2.28292 13.4672C2.06457 13.8394 1.85844 14.191 1.54258 14.5071C1.02403 15.0247 0.764476 14.9954 0.219006 15.2513C0.10983 15.2958 0.0301794 15.3919 0.00697085 15.5075V15.5075ZM5.96415 11.8627C6.65176 11.0068 7.60303 9.92786 8.65154 8.81495L10.0988 10.2621C8.97989 11.3167 7.89293 12.2741 7.02557 12.97C6.90856 12.7399 6.75558 12.5279 6.57114 12.3432C6.376 12.1481 6.17303 11.9877 5.96415 11.8627V11.8627ZM10.1215 7.2998C11.7906 5.6307 13.4781 4.12627 14.8732 3.06362C16.448 1.86405 17.0912 1.64996 17.2998 1.61411C17.264 1.82272 17.0499 2.46596 15.8503 4.04071C14.7877 5.43584 13.2832 7.12333 11.6143 8.79242C11.2884 9.11817 10.951 9.44831 10.6086 9.77693L9.13686 8.30518C9.46507 7.96364 9.79521 7.62623 10.1215 7.2998V7.2998Z" fill="#C3C9D0"/>
</g>
<defs>
<clipPath id="clip0_1007_2906">
<rect width="18" height="18" fill="white"/>
</clipPath>
</defs>
</svg>
