<svg width="115" height="104" viewBox="0 0 115 104" fill="none" xmlns="http://www.w3.org/2000/svg">
<path d="M40.5211 32.8806L39.1375 27.7169C37.518 21.673 31.3558 18.0707 25.3769 19.6728C19.3909 21.2484 15.8299 27.4302 17.4239 33.4835L17.4368 33.5316L18.8204 38.6953" stroke="#FA5F6B" stroke-width="4.5" stroke-linecap="round" stroke-linejoin="round"/>
<path d="M32.7351 47.2238L33.7422 51.6786" stroke="#FA5F6B" stroke-width="4.5" stroke-linecap="round" stroke-linejoin="round"/>
<path d="M81.2615 44.5398L82.2588 36.2802C83.426 26.6125 76.6166 17.8358 67.0529 16.6811C57.4943 15.4841 48.7659 22.3458 47.5563 32.0123L47.547 32.0892L46.5498 40.3488" stroke="#FA5F6B" stroke-width="5.5" stroke-linecap="round" stroke-linejoin="round"/>
<path fill-rule="evenodd" clip-rule="evenodd" d="M21.1168 40.2258C17.3567 41.2333 15.0952 45.1474 16.1295 49.0075L18.8935 59.3228C19.9278 63.183 23.8434 65.4419 27.6035 64.4344C28.8038 64.1128 30.0375 64.8251 30.3591 66.0254C30.6808 67.2257 29.9685 68.4595 28.7682 68.7811C22.5641 70.4435 16.2127 66.7046 14.5468 60.4875L11.7829 50.1722C10.117 43.9551 13.748 37.5415 19.9521 35.8791L38.1316 31.0079C44.3357 29.3455 50.6871 33.0844 52.3529 39.3015C52.6745 40.5018 51.9622 41.7355 50.7619 42.0572C49.5616 42.3788 48.3279 41.6665 48.0062 40.4662C46.9719 36.606 43.0563 34.3471 39.2963 35.3546L21.1168 40.2258ZM49.0686 43.145C42.6346 42.3682 36.7303 47.011 35.9359 53.5902L33.9438 70.0902C33.1494 76.6694 37.7791 82.584 44.2131 83.3608L73.2925 86.8718C79.7265 87.6486 85.6308 83.0058 86.4252 76.4266L88.4173 59.9266C89.2117 53.3474 84.582 47.4328 78.148 46.656L49.0686 43.145ZM30.4756 52.9309C31.6274 43.3909 40.2237 36.5372 49.7279 37.6847L78.8072 41.1956C88.3115 42.3431 95.0295 51.0458 93.8777 60.5858L91.8855 77.0859C90.7337 86.6259 82.1374 93.4796 72.6332 92.3321L43.5539 88.8212C34.0496 87.6737 27.3316 78.971 28.4834 69.431L30.4756 52.9309Z" fill="#FA5F6B"/>
<path d="M61.697 60.7367L60.6654 69.281" stroke="#FA5F6B" stroke-width="5.5" stroke-linecap="round" stroke-linejoin="round"/>
<path d="M81.2615 43.9011L82.2588 35.6415C83.426 25.9738 76.6166 17.1971 67.0529 16.0424C57.4943 14.8454 48.7659 21.7071 47.5563 31.3736L47.547 31.4505L46.5498 39.7102" stroke="url(#paint0_linear_898:3136)" stroke-width="5.5" stroke-linecap="round" stroke-linejoin="round"/>
<path fill-rule="evenodd" clip-rule="evenodd" d="M72.9628 88.9633L43.8835 85.4523C35.9143 84.4902 30.2405 77.1815 31.2136 69.1219L33.2057 52.6219C34.1788 44.5623 41.4291 38.814 49.3982 39.7762L78.4776 43.2871C86.4467 44.2493 92.1205 51.5579 91.1474 59.6175L89.1553 76.1176C88.1822 84.1772 80.9319 89.9254 72.9628 88.9633Z" stroke="url(#paint1_linear_898:3136)" stroke-width="5.5" stroke-linecap="round" stroke-linejoin="round"/>
<path d="M61.697 60.098L60.6654 68.6424" stroke="url(#paint2_linear_898:3136)" stroke-width="5.5" stroke-linecap="round" stroke-linejoin="round"/>
<defs>
<linearGradient id="paint0_linear_898:3136" x1="42.8048" y1="29.0155" x2="61.0451" y2="51.7208" gradientUnits="userSpaceOnUse">
<stop stop-color="#FA926B"/>
<stop offset="1" stop-color="#FA5F6B"/>
</linearGradient>
<linearGradient id="paint1_linear_898:3136" x1="23.3271" y1="64.8145" x2="55.8085" y2="102.851" gradientUnits="userSpaceOnUse">
<stop stop-color="#FA926B"/>
<stop offset="1" stop-color="#FA5F6B"/>
</linearGradient>
<linearGradient id="paint2_linear_898:3136" x1="58.6225" y1="64.9994" x2="62.4794" y2="66.7807" gradientUnits="userSpaceOnUse">
<stop stop-color="#FA926B"/>
<stop offset="1" stop-color="#FA5F6B"/>
</linearGradient>
</defs>
</svg>
