<svg width="28" height="24" viewBox="0 0 28 24" fill="none" xmlns="http://www.w3.org/2000/svg">
<path d="M0 3.5C0 1.568 1.568 0 3.5 0H24.5C26.432 0 28 1.568 28 3.5V7.874C27.6392 7.61805 27.2412 7.41906 26.82 7.284L26 7.024V3.5C26 3.10218 25.842 2.72064 25.5607 2.43934C25.2794 2.15804 24.8978 2 24.5 2H3.5C3.10218 2 2.72064 2.15804 2.43934 2.43934C2.15804 2.72064 2 3.10218 2 3.5V16.5C2 17.328 2.672 18 3.5 18H8V16C8 15.4696 8.21071 14.9609 8.58579 14.5858C8.96086 14.2107 9.46957 14 10 14H18C18.5304 14 19.0391 14.2107 19.4142 14.5858C19.7893 14.9609 20 15.4696 20 16V16.41C19.2909 16.3946 18.5937 16.594 18 16.982V16H10V18H16.968L16.018 19.396L15.874 19.636L15.848 19.68C15.7922 19.7842 15.7415 19.891 15.696 20H3.5C2.57174 20 1.6815 19.6313 1.02513 18.9749C0.368749 18.3185 0 17.4283 0 16.5V3.5Z" fill="url(#paint0_linear)"/>
<path d="M27.84 11.0097C27.944 11.4697 27.998 11.9537 28 12.4597V12.5157C27.994 14.2637 27.37 16.2777 26.128 18.5557C25.868 19.0357 25.604 19.4837 25.334 19.8997C23.94 22.0617 22.438 23.3937 20.826 23.8977C20.459 24.0112 20.0692 24.03 19.693 23.9524C19.3167 23.8747 18.9662 23.7032 18.674 23.4537L18.514 23.3077L17.896 22.6877C17.6354 22.4195 17.4669 22.0752 17.4151 21.7048C17.3634 21.3344 17.4309 20.9572 17.608 20.6277L17.7 20.4797L18.634 19.1077C18.7881 18.8778 19.0002 18.6927 19.2489 18.5712C19.4976 18.4497 19.7739 18.396 20.05 18.4157C20.11 18.4197 20.172 18.4297 20.234 18.4417L20.398 18.4877L22.12 19.0617C22.808 18.5417 23.38 17.8857 23.84 17.0977C24.234 16.4217 24.49 15.7357 24.612 15.0397L24.662 14.6917L23.228 13.3317C22.9959 13.1064 22.8308 12.8211 22.751 12.5076C22.6712 12.1941 22.6798 11.8646 22.776 11.5557L22.836 11.3857L23.488 9.85173C23.6222 9.51184 23.871 9.2295 24.1912 9.05348C24.5115 8.87747 24.8831 8.81885 25.242 8.88773L25.396 8.92773L26.21 9.18773C27.02 9.44773 27.638 10.1397 27.838 11.0077L27.84 11.0097Z" fill="url(#paint1_linear)"/>
<path d="M14 12C15.0609 12 16.0783 11.5786 16.8284 10.8284C17.5786 10.0783 18 9.06087 18 8C18 6.93913 17.5786 5.92172 16.8284 5.17157C16.0783 4.42143 15.0609 4 14 4C12.9391 4 11.9217 4.42143 11.1716 5.17157C10.4214 5.92172 10 6.93913 10 8C10 9.06087 10.4214 10.0783 11.1716 10.8284C11.9217 11.5786 12.9391 12 14 12V12ZM14 10C13.4696 10 12.9609 9.78929 12.5858 9.41421C12.2107 9.03914 12 8.53043 12 8C12 7.46957 12.2107 6.96086 12.5858 6.58579C12.9609 6.21071 13.4696 6 14 6C14.5304 6 15.0391 6.21071 15.4142 6.58579C15.7893 6.96086 16 7.46957 16 8C16 8.53043 15.7893 9.03914 15.4142 9.41421C15.0391 9.78929 14.5304 10 14 10V10Z" fill="url(#paint2_linear)"/>
<defs>
<linearGradient id="paint0_linear" x1="-4.00404" y1="12.1644" x2="12.0495" y2="28.4677" gradientUnits="userSpaceOnUse">
<stop stop-color="#FA926B"/>
<stop offset="1" stop-color="#FA5F6B"/>
</linearGradient>
<linearGradient id="paint1_linear" x1="15.8821" y1="18.0679" x2="25.6971" y2="23.0536" gradientUnits="userSpaceOnUse">
<stop stop-color="#FA926B"/>
<stop offset="1" stop-color="#FA5F6B"/>
</linearGradient>
<linearGradient id="paint2_linear" x1="8.85599" y1="8.86575" x2="14.9609" y2="13.2942" gradientUnits="userSpaceOnUse">
<stop stop-color="#FA926B"/>
<stop offset="1" stop-color="#FA5F6B"/>
</linearGradient>
</defs>
</svg>
