<svg width="24" height="25" viewBox="0 0 24 25" fill="none" xmlns="http://www.w3.org/2000/svg">
<path d="M17 19.5H3C1.89543 19.5 1 18.6046 1 17.5V5.5C1 4.39543 1.89543 3.5 3 3.5H21C22.1046 3.5 23 4.39543 23 5.5V9.5" stroke="#E6E6E6" stroke-width="1.5" stroke-linecap="round"/>
<path d="M12.1737 5.5C9.87228 5.5 8 7.37228 8 9.67366C8 11.975 9.87228 13.8473 12.1737 13.8473C14.475 13.8473 16.3473 11.975 16.3473 9.67366C16.3473 7.37233 14.475 5.5 12.1737 5.5ZM12.1737 12.4411C10.6477 12.4411 9.40625 11.1996 9.40625 9.67366C9.40625 8.14773 10.6477 6.90625 12.1737 6.90625C13.6996 6.90625 14.9411 8.14769 14.9411 9.67366C14.9411 11.1996 13.6996 12.4411 12.1737 12.4411Z" fill="#E6E6E6"/>
<path d="M17 19.5V17.5C17 16.3954 16.1046 15.5 15 15.5H9C7.89543 15.5 7 16.3954 7 17.5V19.5" stroke="#E6E6E6" stroke-width="1.5" stroke-linecap="round"/>
<path d="M23.0459 11.7669C23.1632 12.0209 23.256 12.2949 23.3229 12.5882L23.3302 12.6207C23.5543 13.6354 23.4717 14.8809 23.0822 16.3561C23.001 16.6667 22.9135 16.9592 22.8186 17.234C22.33 18.6607 21.6738 19.6193 20.8492 20.1113C20.6613 20.2226 20.4485 20.2818 20.2307 20.2834C20.0128 20.2849 19.7969 20.2289 19.6031 20.1203L19.4957 20.0554L19.0738 19.7724C18.895 19.6491 18.7572 19.4702 18.6804 19.2618C18.6036 19.0533 18.5918 18.8262 18.6468 18.6131L18.6783 18.5159L19.0156 17.6044C19.0708 17.4519 19.1639 17.3183 19.2854 17.217C19.4069 17.1157 19.5525 17.0504 19.7075 17.0276C19.7412 17.0225 19.7767 17.0206 19.8125 17.0199L19.9091 17.0263L20.9347 17.1459C21.247 16.7591 21.4775 16.3078 21.629 15.7937C21.7587 15.3528 21.8108 14.9232 21.7876 14.5043L21.7699 14.2963L20.8011 13.685C20.6437 13.5831 20.5154 13.438 20.4305 13.2661C20.3457 13.0941 20.3075 12.9019 20.3205 12.7108L20.3315 12.6048L20.492 11.6342C20.5219 11.4205 20.6226 11.2259 20.7765 11.0841C20.9305 10.9424 21.128 10.8623 21.3352 10.8578L21.4254 10.862L21.9088 10.912C22.3899 10.9625 22.8212 11.2873 23.0446 11.766L23.0459 11.7669Z" fill="#E6E6E6"/>
</svg>
