<svg width="81" height="41" viewBox="0 0 81 41" fill="none" xmlns="http://www.w3.org/2000/svg">
<path d="M47.7545 0.536555C46.9406 0.629876 46.283 0.875458 45.676 1.32242C44.5172 2.18195 44.0896 3.77823 44.6874 5.04053C44.8713 5.43346 45.1978 5.88042 45.5335 6.2095C45.9105 6.57787 46.4991 6.99045 47.8878 7.87454C48.5224 8.27729 49.1064 8.67514 49.1892 8.76355C49.3087 8.89125 49.3363 8.96001 49.3363 9.1221C49.3363 9.294 49.3041 9.35785 49.1202 9.56414C48.7247 9.99637 48.1131 10.1044 47.1797 9.91287C46.6463 9.7999 46.1772 9.64764 45.7542 9.44626C45.5105 9.32839 45.4599 9.31856 45.4093 9.3775C45.3495 9.45118 45.2622 9.65255 44.8483 10.6742C44.4437 11.6761 44.4667 11.573 44.6 11.6811C44.6644 11.7351 44.9219 11.853 45.1748 11.9512C46.4761 12.4424 47.5889 12.6094 48.7385 12.4915C49.9433 12.3638 50.794 11.9954 51.4699 11.3078C52.0953 10.6644 52.3436 10.0651 52.3436 9.17612C52.3436 8.26747 52.1321 7.75666 51.4285 6.97571C50.8262 6.30282 50.2008 5.84603 48.5132 4.84406C47.5751 4.28413 47.405 4.12696 47.405 3.8077C47.405 3.6358 47.6533 3.30181 47.874 3.1741C48.0534 3.07096 48.1315 3.06114 48.6695 3.06605C49.1524 3.06605 49.3593 3.09061 49.7593 3.19866C50.0306 3.27234 50.3295 3.36075 50.4215 3.40495C50.6974 3.52774 50.794 3.50318 50.8951 3.29198C51.0699 2.92852 51.5895 1.59747 51.5895 1.51397C51.5895 1.39118 51.4653 1.29295 51.0653 1.09648C50.072 0.615141 48.8719 0.408852 47.7545 0.536555Z" fill="url(#paint0_linear_674_53131)"/>
<path d="M5.60604 0.580759C5.17839 0.624963 4.57141 0.757578 4.25872 0.870545C3.06775 1.30768 1.93196 2.38824 1.32038 3.65053C1.06287 4.19081 0.901928 4.73109 0.773174 5.48257C0.543257 6.83327 0.800764 8.60637 1.37556 9.66729C1.76182 10.3795 2.33201 11.0622 2.96199 11.5681C3.24708 11.7989 3.85407 12.1378 4.29091 12.3147C4.64038 12.4522 5.61983 12.6143 6.12105 12.6143C6.55789 12.6143 7.49595 12.4669 7.82704 12.3441C8.4892 12.0985 8.80189 11.9414 8.81568 11.8431C8.82488 11.7842 8.72831 11.5435 8.60416 11.3078C8.48 11.0671 8.25008 10.6005 8.08914 10.2714C7.9328 9.93743 7.77186 9.64273 7.73967 9.61326C7.68909 9.56905 7.58332 9.5887 7.29363 9.69185C6.31878 10.0357 5.27955 9.80481 4.54842 9.08771C4.05639 8.60637 3.77589 8.00715 3.65174 7.19182C3.59196 6.78907 3.58736 6.62698 3.63335 6.2095C3.7529 5.06508 4.15756 4.29887 4.93468 3.75368C5.24736 3.53265 5.57385 3.41477 6.09806 3.32636C6.41994 3.27725 6.5257 3.27725 6.86598 3.35092C7.0867 3.39513 7.34881 3.4688 7.44997 3.50318C7.54654 3.54248 7.6615 3.56212 7.69828 3.54739C7.76726 3.51792 8.11213 2.88432 8.41103 2.25072C8.4892 2.0739 8.62715 1.79884 8.71452 1.63676C8.80189 1.46485 8.85247 1.3175 8.83407 1.27821C8.77889 1.1898 8.09374 0.88528 7.68909 0.772313C7.31202 0.669168 6.38316 0.531642 6.11185 0.541466C6.02449 0.541466 5.79457 0.561112 5.60604 0.580759Z" fill="url(#paint1_linear_674_53131)"/>
<path d="M32.8052 0.61514C31.8488 0.629875 31.5131 0.64461 31.4855 0.693726C31.4671 0.723196 31.4533 3.36566 31.4487 6.55822C31.4487 12.2459 31.4533 12.3687 31.5361 12.4178C31.6557 12.4817 34.1388 12.4866 34.2537 12.4178C34.3411 12.3687 34.3411 12.2115 34.3411 6.57296C34.3411 0.870545 34.3411 0.772313 34.2537 0.678992C34.2031 0.624964 34.148 0.58567 34.1296 0.590582C34.1066 0.600405 33.5134 0.610229 32.8052 0.61514Z" fill="url(#paint2_linear_674_53131)"/>
<path d="M76.1722 0.713373C73.8225 0.723196 72.8476 0.742843 72.8017 0.782136C72.7189 0.860722 72.7097 12.1673 72.7971 12.2606C72.8384 12.3048 73.7811 12.3196 76.7516 12.3196C80.2464 12.3196 80.6556 12.3097 80.6832 12.241C80.7062 12.1771 80.6694 11.8038 80.5085 10.463C80.4855 10.2665 80.4671 10.0848 80.4671 10.0602C80.4671 10.0357 80.4349 9.98163 80.3935 9.94234C80.3291 9.87358 80.0532 9.86375 78.03 9.86375C76.2872 9.86375 75.7262 9.84902 75.7032 9.80481C75.6618 9.73114 75.6664 7.82542 75.7078 7.75175C75.7262 7.72228 76.3286 7.70263 77.4552 7.70263C79.0554 7.70263 79.1796 7.69772 79.2209 7.61422C79.2623 7.53564 79.2347 7.21147 79.083 5.90989C79.0554 5.6643 79.0048 5.41872 78.968 5.35487L78.8991 5.24681L77.3356 5.25173C76.2964 5.25664 75.7492 5.23699 75.7216 5.20752C75.6664 5.14858 75.6526 3.28216 75.7032 3.18884C75.7262 3.14954 76.3378 3.13481 77.8046 3.13481C79.6164 3.13481 79.8739 3.12499 79.8969 3.06114C79.9337 2.96781 79.8417 2.02478 79.7314 1.29786C79.6578 0.831252 79.5888 0.649521 79.5014 0.693726C79.4877 0.698638 77.9886 0.708461 76.1722 0.713373Z" fill="url(#paint3_linear_674_53131)"/>
<path d="M9.73535 0.772312C9.70316 0.782135 9.66178 0.816517 9.64338 0.845987C9.62499 0.875456 9.6066 3.47862 9.6066 6.6319C9.6066 11.1653 9.62039 12.3736 9.66637 12.4031C9.75374 12.462 12.2598 12.4767 12.3656 12.4178C12.453 12.3687 12.4576 12.2852 12.4668 10.0209L12.4806 7.67807L14.4762 7.66334C15.8052 7.65843 16.4903 7.66825 16.5225 7.70263C16.5547 7.73701 16.5685 8.51305 16.5593 10.0258C16.5501 11.46 16.5639 12.3245 16.5915 12.3687C16.6329 12.4325 16.8398 12.4424 17.8974 12.4571C18.6607 12.462 19.2079 12.4522 19.2815 12.4227L19.4011 12.3687V6.60243C19.4011 2.50612 19.3873 0.821428 19.3505 0.79687C19.3229 0.782135 18.7067 0.7674 17.9848 0.772312C16.7984 0.782135 16.6605 0.787047 16.6053 0.865633C16.5593 0.929484 16.5455 1.38627 16.5547 3.05131C16.5593 4.30869 16.5501 5.16823 16.5225 5.1977C16.4765 5.24681 12.5817 5.27137 12.5036 5.22226C12.476 5.20261 12.4576 4.42166 12.4576 3.0464C12.4576 1.86761 12.4392 0.870545 12.4162 0.836163C12.384 0.782135 12.1127 0.7674 11.0827 0.762489C10.3745 0.757577 9.76294 0.762489 9.73535 0.772312Z" fill="url(#paint4_linear_674_53131)"/>
<path d="M25.3743 0.762489C24.3213 0.777224 23.9534 0.791959 23.9212 0.841076C23.8937 0.870546 23.7327 1.29786 23.5626 1.78411C23.3878 2.27036 23.1073 3.05622 22.9372 3.52774C22.7671 3.99926 22.4728 4.8195 22.2842 5.34505C22.0957 5.87059 21.829 6.60243 21.7002 6.96589C21.5669 7.32935 21.3784 7.84998 21.2864 8.12012C21.0151 8.88634 20.4357 10.4875 20.0816 11.4502C19.8333 12.1231 19.7689 12.3392 19.8103 12.3834C19.8931 12.4718 22.5096 12.4915 22.6613 12.408C22.7487 12.3589 22.8498 12.1477 23.1119 11.4404C23.2959 10.9443 23.4706 10.5072 23.4982 10.4728C23.5396 10.4139 23.8891 10.404 25.4525 10.404H27.3562L27.4344 10.5366C27.4804 10.6054 27.6413 11.0425 27.7977 11.5042C28.023 12.1575 28.1057 12.3589 28.1931 12.4031C28.3357 12.4866 31.0027 12.4718 31.0809 12.3883C31.1223 12.3441 31.1085 12.2705 31.0395 12.0936C30.9015 11.7302 30.5015 10.6152 30.2302 9.81464C30.0968 9.42171 29.8991 8.8716 29.7933 8.58673C29.6876 8.30185 29.522 7.84016 29.4255 7.55528C29.2093 6.90204 28.4598 4.77039 28.2437 4.19081C28.1563 3.94523 27.9908 3.48354 27.8804 3.15937C27.7747 2.8352 27.5999 2.33913 27.4942 2.05425C27.3884 1.76938 27.255 1.39609 27.1953 1.21927C27.0895 0.909839 26.9424 0.718285 26.832 0.737931C26.8044 0.747755 26.1468 0.757578 25.3743 0.762489ZM25.8617 5.59063C26.0457 6.1702 26.2756 6.8873 26.3676 7.18691C26.4641 7.48161 26.5469 7.80578 26.5469 7.8991L26.5515 8.07101L25.4571 8.08574C24.5926 8.09556 24.3581 8.08574 24.3397 8.03171C24.3167 7.96786 24.5144 7.30479 24.9789 5.86077C25.1214 5.42854 25.2594 4.97667 25.287 4.85388C25.3651 4.51989 25.3743 4.50025 25.4525 4.51989C25.5031 4.52972 25.6272 4.84897 25.8617 5.59063Z" fill="url(#paint5_linear_674_53131)"/>
<path d="M35.6746 0.796872C35.6516 0.826342 35.6332 3.03658 35.6332 6.60734C35.6332 12.354 35.6332 12.3638 35.7252 12.4178C35.8494 12.4915 38.3233 12.462 38.3876 12.3932C38.4198 12.3589 38.4382 11.5976 38.4382 10.2174C38.4428 8.28221 38.452 8.09065 38.521 8.10539C38.5624 8.11521 38.9624 8.73899 39.4131 9.49538C39.8683 10.2518 40.4431 11.2194 40.696 11.6418C41.0685 12.2655 41.1788 12.4178 41.28 12.4375C41.4961 12.4866 44.5586 12.4325 44.6092 12.3785C44.6368 12.349 44.6092 12.2754 44.5218 12.1673C44.3931 12.0052 43.7033 11.0524 42.963 10.0111C42.7607 9.72623 42.3192 9.11227 41.9835 8.65058C41.6341 8.16433 41.3812 7.76648 41.3904 7.71737C41.3996 7.66825 41.4823 7.61422 41.6111 7.57984C42.0203 7.46687 42.3606 7.25076 42.7193 6.86765C43.2297 6.32737 43.3998 5.98847 43.5884 5.14858C43.8137 4.12205 43.5654 2.80573 43.009 2.08372C42.7331 1.72517 42.5261 1.56309 42.0019 1.27821C41.5467 1.03754 41.1512 0.904928 40.6454 0.831254C40.1534 0.757579 35.739 0.733021 35.6746 0.796872ZM39.6108 3.17902C40.1856 3.33619 40.4017 3.50318 40.5994 3.92067C40.811 4.36272 40.7098 5.17805 40.4109 5.52187C40.089 5.89024 38.7693 6.16529 38.498 5.92462C38.4152 5.85095 38.4106 3.23304 38.4934 3.14463C38.5762 3.05622 39.2383 3.07587 39.6108 3.17902Z" fill="url(#paint6_linear_674_53131)"/>
<path d="M61.361 0.777225C61.3426 0.806695 61.5265 1.28312 61.7702 1.82832L62.2117 2.82538V7.51108C62.2117 11.0966 62.2255 12.2164 62.2668 12.2606C62.3358 12.3343 67.3572 12.3441 67.8446 12.2655C69.5552 12.0052 70.8428 11.0966 71.5923 9.61817C72.466 7.8991 72.5074 5.22717 71.6842 3.47863C71.0589 2.14757 69.9599 1.22418 68.5666 0.865635C68.1803 0.76249 68.0378 0.757579 64.7775 0.742844C62.2944 0.728109 61.384 0.737932 61.361 0.777225ZM67.4354 3.18884C68.6999 3.43442 69.4679 5.09947 69.2517 7.13288C69.169 7.90892 68.985 8.45902 68.6356 8.96984C68.3689 9.35294 67.9182 9.68202 67.4768 9.80972C67.2514 9.87358 65.2512 9.88831 65.1914 9.82446C65.15 9.78025 65.1362 3.25269 65.1822 3.17902C65.219 3.11516 67.1089 3.12499 67.4354 3.18884Z" fill="url(#paint7_linear_674_53131)"/>
<path d="M54.4726 1.04245C53.7737 1.31259 53.3644 2.11319 53.5852 2.78117C53.6541 2.98746 54.1784 4.17608 54.9233 5.80674C55.167 6.34702 55.3509 6.81854 55.3371 6.85783C55.3187 6.91186 55.2682 6.92168 55.1164 6.89221C54.8727 6.85292 53.8611 6.70557 52.854 6.57296C52.4264 6.51893 51.939 6.44034 51.7826 6.40105C51.309 6.28317 51.2952 6.35193 51.6998 6.81363C52.3022 7.50126 52.5919 8.14468 52.6333 8.92072C52.6471 9.17121 52.6793 9.38732 52.7023 9.40206C52.7299 9.42171 53.0012 9.45118 53.3047 9.47573C53.6128 9.50029 54.1646 9.54941 54.5324 9.59361C54.9003 9.63291 55.5487 9.70167 55.9809 9.74587C56.4086 9.78517 56.7994 9.84411 56.8546 9.87358C56.9052 9.90305 57.1857 10.1044 57.4754 10.3205C57.7651 10.5416 58.1605 10.8313 58.3491 10.9738C58.5376 11.1113 59.0112 11.46 59.4021 11.7498C59.7929 12.0396 60.1516 12.2999 60.1976 12.3245C60.3126 12.3932 60.3585 12.349 60.6804 11.8579C61.6783 10.3402 61.8944 9.98654 61.8806 9.89322C61.8714 9.83919 61.6277 9.62308 61.269 9.35785C60.4505 8.74881 59.8481 8.30185 59.1032 7.75175L58.4732 7.29006L58.2985 6.89221C57.6133 5.32049 56.8776 3.67018 56.1143 1.97075C55.9625 1.63185 55.8614 1.47959 55.7096 1.34206C55.3279 1.00807 54.8589 0.895104 54.4726 1.04245Z" fill="url(#paint8_linear_674_53131)"/>
<path fill-rule="evenodd" clip-rule="evenodd" d="M9.30638 14.7359C9.85867 14.7359 10.3064 15.1879 10.3064 15.7455V25.2424C10.3064 26.3575 11.2018 27.2615 12.3064 27.2615H43.4109C43.9632 27.2615 44.4109 27.7135 44.4109 28.2711C44.4109 28.8286 43.9632 29.2806 43.4109 29.2806H12.3064C10.0972 29.2806 8.30638 27.4726 8.30638 25.2424V15.7455C8.30638 15.1879 8.7541 14.7359 9.30638 14.7359Z" fill="url(#paint9_linear_674_53131)"/>
<path fill-rule="evenodd" clip-rule="evenodd" d="M46.4609 26.2276C45.3287 26.2276 44.4109 27.1542 44.4109 28.2972C44.4109 29.4402 45.3287 30.3668 46.4609 30.3668C47.5931 30.3668 48.5109 29.4402 48.5109 28.2972C48.5109 27.1542 47.5931 26.2276 46.4609 26.2276ZM42.4109 28.2972C42.4109 26.0391 44.2241 24.2085 46.4609 24.2085C48.6976 24.2085 50.5109 26.0391 50.5109 28.2972C50.5109 30.5553 48.6976 32.3859 46.4609 32.3859C44.2241 32.3859 42.4109 30.5553 42.4109 28.2972Z" fill="url(#paint10_linear_674_53131)"/>
<path fill-rule="evenodd" clip-rule="evenodd" d="M64.9738 31.2591C66.6904 31.2591 68.082 29.8542 68.082 28.1211C68.082 26.3881 66.6904 24.9832 64.9738 24.9832C63.2571 24.9832 61.8655 26.3881 61.8655 28.1211C61.8655 29.8542 63.2571 31.2591 64.9738 31.2591ZM64.9738 33.2782C67.795 33.2782 70.082 30.9693 70.082 28.1211C70.082 25.273 67.795 22.9641 64.9738 22.9641C62.1526 22.9641 59.8655 25.273 59.8655 28.1211C59.8655 30.9693 62.1526 33.2782 64.9738 33.2782Z" fill="url(#paint11_linear_674_53131)"/>
<path fill-rule="evenodd" clip-rule="evenodd" d="M64.9734 38.4804C70.6397 38.4804 75.2331 33.843 75.2331 28.1225C75.2331 22.402 70.6397 17.7646 64.9734 17.7646C59.3071 17.7646 54.7136 22.402 54.7136 28.1225C54.7136 33.843 59.3071 38.4804 64.9734 38.4804ZM64.9734 40.4995C71.7443 40.4995 77.2331 34.9581 77.2331 28.1225C77.2331 21.2869 71.7443 15.7455 64.9734 15.7455C58.2025 15.7455 52.7136 21.2869 52.7136 28.1225C52.7136 34.9581 58.2025 40.4995 64.9734 40.4995Z" fill="url(#paint12_linear_674_53131)"/>
<path fill-rule="evenodd" clip-rule="evenodd" d="M76.1437 25.0137H65.4164V22.9946H76.1437V25.0137Z" fill="url(#paint13_linear_674_53131)"/>
<path fill-rule="evenodd" clip-rule="evenodd" d="M62.1423 39.3124L67.506 29.9335L69.238 30.9431L63.8744 40.322L62.1423 39.3124Z" fill="url(#paint14_linear_674_53131)"/>
<path fill-rule="evenodd" clip-rule="evenodd" d="M56.7787 20.1026L62.1423 29.4816L60.4103 30.4912L55.0466 21.1122L56.7787 20.1026Z" fill="url(#paint15_linear_674_53131)"/>
<defs>
<linearGradient id="paint0_linear_674_53131" x1="21.0312" y1="9.14237" x2="35.1015" y2="44.4509" gradientUnits="userSpaceOnUse">
<stop stop-color="#FA926B"/>
<stop offset="1" stop-color="#FA5F6B"/>
</linearGradient>
<linearGradient id="paint1_linear_674_53131" x1="21.0312" y1="9.14237" x2="35.1015" y2="44.4509" gradientUnits="userSpaceOnUse">
<stop stop-color="#FA926B"/>
<stop offset="1" stop-color="#FA5F6B"/>
</linearGradient>
<linearGradient id="paint2_linear_674_53131" x1="21.0312" y1="9.14237" x2="35.1015" y2="44.4509" gradientUnits="userSpaceOnUse">
<stop stop-color="#FA926B"/>
<stop offset="1" stop-color="#FA5F6B"/>
</linearGradient>
<linearGradient id="paint3_linear_674_53131" x1="21.0312" y1="9.14237" x2="35.1015" y2="44.4509" gradientUnits="userSpaceOnUse">
<stop stop-color="#FA926B"/>
<stop offset="1" stop-color="#FA5F6B"/>
</linearGradient>
<linearGradient id="paint4_linear_674_53131" x1="21.0312" y1="9.14237" x2="35.1015" y2="44.4509" gradientUnits="userSpaceOnUse">
<stop stop-color="#FA926B"/>
<stop offset="1" stop-color="#FA5F6B"/>
</linearGradient>
<linearGradient id="paint5_linear_674_53131" x1="21.0312" y1="9.14237" x2="35.1015" y2="44.4509" gradientUnits="userSpaceOnUse">
<stop stop-color="#FA926B"/>
<stop offset="1" stop-color="#FA5F6B"/>
</linearGradient>
<linearGradient id="paint6_linear_674_53131" x1="21.0312" y1="9.14237" x2="35.1015" y2="44.4509" gradientUnits="userSpaceOnUse">
<stop stop-color="#FA926B"/>
<stop offset="1" stop-color="#FA5F6B"/>
</linearGradient>
<linearGradient id="paint7_linear_674_53131" x1="21.0312" y1="9.14237" x2="35.1015" y2="44.4509" gradientUnits="userSpaceOnUse">
<stop stop-color="#FA926B"/>
<stop offset="1" stop-color="#FA5F6B"/>
</linearGradient>
<linearGradient id="paint8_linear_674_53131" x1="21.0312" y1="9.14237" x2="35.1015" y2="44.4509" gradientUnits="userSpaceOnUse">
<stop stop-color="#FA926B"/>
<stop offset="1" stop-color="#FA5F6B"/>
</linearGradient>
<linearGradient id="paint9_linear_674_53131" x1="21.0312" y1="9.14237" x2="35.1015" y2="44.4509" gradientUnits="userSpaceOnUse">
<stop stop-color="#FA926B"/>
<stop offset="1" stop-color="#FA5F6B"/>
</linearGradient>
<linearGradient id="paint10_linear_674_53131" x1="21.0312" y1="9.14237" x2="35.1015" y2="44.4509" gradientUnits="userSpaceOnUse">
<stop stop-color="#FA926B"/>
<stop offset="1" stop-color="#FA5F6B"/>
</linearGradient>
<linearGradient id="paint11_linear_674_53131" x1="21.0312" y1="9.14237" x2="35.1015" y2="44.4509" gradientUnits="userSpaceOnUse">
<stop stop-color="#FA926B"/>
<stop offset="1" stop-color="#FA5F6B"/>
</linearGradient>
<linearGradient id="paint12_linear_674_53131" x1="21.0312" y1="9.14237" x2="35.1015" y2="44.4509" gradientUnits="userSpaceOnUse">
<stop stop-color="#FA926B"/>
<stop offset="1" stop-color="#FA5F6B"/>
</linearGradient>
<linearGradient id="paint13_linear_674_53131" x1="21.0312" y1="9.14237" x2="35.1015" y2="44.4509" gradientUnits="userSpaceOnUse">
<stop stop-color="#FA926B"/>
<stop offset="1" stop-color="#FA5F6B"/>
</linearGradient>
<linearGradient id="paint14_linear_674_53131" x1="21.0312" y1="9.14237" x2="35.1015" y2="44.4509" gradientUnits="userSpaceOnUse">
<stop stop-color="#FA926B"/>
<stop offset="1" stop-color="#FA5F6B"/>
</linearGradient>
<linearGradient id="paint15_linear_674_53131" x1="21.0312" y1="9.14237" x2="35.1015" y2="44.4509" gradientUnits="userSpaceOnUse">
<stop stop-color="#FA926B"/>
<stop offset="1" stop-color="#FA5F6B"/>
</linearGradient>
</defs>
</svg>
