<svg width="81" height="41" viewBox="0 0 81 41" fill="none" xmlns="http://www.w3.org/2000/svg">
<path d="M76.7039 0.661065C77.1841 0.352494 77.8188 0.499132 78.1215 0.98859C79.1167 2.59767 79.7912 4.39079 80.1065 6.26558C80.4219 8.14038 80.3719 10.0601 79.9593 11.9152C79.5468 13.7703 78.7799 15.5244 77.7023 17.0774C76.6247 18.6303 75.2576 19.9518 73.679 20.9662C73.1989 21.2747 72.5642 21.1281 72.2615 20.6386C71.9587 20.1492 72.1026 19.5023 72.5828 19.1937C73.933 18.326 75.1024 17.1957 76.024 15.8674C76.9457 14.5391 77.6017 13.0388 77.9546 11.452C78.3074 9.86529 78.3502 8.22325 78.0805 6.61966C77.8108 5.01607 77.2338 3.48234 76.3826 2.10603C76.0799 1.61657 76.2237 0.969636 76.7039 0.661065Z" fill="url(#paint0_linear_674_53154)"/>
<path d="M74.678 2.99426C74.3769 2.50749 73.7457 2.36166 73.2682 2.66853C72.7906 2.97541 72.6476 3.61879 72.9486 4.10556C73.5355 5.0544 73.9332 6.11178 74.1192 7.21732C74.3051 8.32285 74.2756 9.4549 74.0324 10.5488C73.7891 11.6427 73.3369 12.6771 72.7014 13.5929C72.066 14.5086 71.2598 15.2878 70.329 15.886C69.8514 16.1929 69.7084 16.8363 70.0094 17.323C70.3105 17.8098 70.9417 17.9557 71.4192 17.6488C72.5772 16.9047 73.58 15.9353 74.3705 14.7962C75.1609 13.657 75.7235 12.3703 76.0261 11.0095C76.3287 9.64866 76.3654 8.24044 76.1341 6.86519C75.9028 5.48994 75.408 4.17459 74.678 2.99426Z" fill="url(#paint1_linear_674_53154)"/>
<path d="M37.9648 32.7295C37.3971 32.7295 36.937 33.1985 36.937 33.7771C36.937 34.3557 37.3971 34.8248 37.9648 34.8248L56.2186 34.8248C56.7863 34.8248 57.2465 34.3557 57.2465 33.7771C57.2465 33.1985 56.7863 32.7295 56.2186 32.7295L37.9648 32.7295Z" fill="url(#paint2_linear_674_53154)"/>
<path d="M36.936 28.156C36.936 27.5774 37.3962 27.1084 37.9638 27.1084L56.2177 27.1084C56.7853 27.1084 57.2455 27.5774 57.2455 28.156C57.2455 28.7346 56.7853 29.2037 56.2177 29.2037L37.9638 29.2037C37.3962 29.2037 36.936 28.7346 36.936 28.156Z" fill="url(#paint3_linear_674_53154)"/>
<path d="M37.9638 21.4912C37.3962 21.4912 36.936 21.9602 36.936 22.5389C36.936 23.1175 37.3962 23.5865 37.9638 23.5865L56.2177 23.5865C56.7853 23.5865 57.2455 23.1175 57.2455 22.5389C57.2455 21.9602 56.7853 21.4912 56.2177 21.4912L37.9638 21.4912Z" fill="url(#paint4_linear_674_53154)"/>
<path d="M36.936 16.9178C36.936 16.3392 37.3962 15.8701 37.9638 15.8701L56.2177 15.8701C56.7853 15.8701 57.2455 16.3392 57.2455 16.9178C57.2455 17.4964 56.7853 17.9654 56.2177 17.9654L37.9638 17.9654C37.3962 17.9654 36.936 17.4964 36.936 16.9178Z" fill="url(#paint5_linear_674_53154)"/>
<path fill-rule="evenodd" clip-rule="evenodd" d="M7.42181 14.8193C6.28653 14.8193 5.3662 15.7574 5.3662 16.9146V33.7713C5.3662 34.9285 6.28653 35.8666 7.42181 35.8666H32.2978C33.4331 35.8666 34.3534 34.9285 34.3534 33.7713V16.9146C34.3534 15.7574 33.4331 14.8193 32.2978 14.8193H7.42181ZM7.42181 16.9146L32.2978 16.9146V33.7713H7.42181V16.9146Z" fill="url(#paint6_linear_674_53154)"/>
<path fill-rule="evenodd" clip-rule="evenodd" d="M62.303 37.3554L62.3038 6.60683C62.3038 4.87101 60.9233 3.46385 59.2204 3.46385H3.39396C1.69104 3.46385 0.310547 4.87101 0.310547 6.60683V37.3573C0.310547 39.0931 1.69104 40.5003 3.39396 40.5003H14.267C14.3027 40.5003 14.3384 40.4996 14.3739 40.4984H59.2196C60.9226 40.4984 62.303 39.0912 62.303 37.3554ZM3.39396 5.55917C2.82632 5.55917 2.36616 6.02822 2.36616 6.60683V37.3573C2.36616 37.9359 2.82632 38.405 3.39396 38.405H14.267C14.2819 38.405 14.2968 38.4046 14.3115 38.404C14.3259 38.4034 14.3402 38.4031 14.3545 38.4031H59.2196C59.7873 38.4031 60.2474 37.934 60.2474 37.3554V12.1848H16.3226C15.7549 12.1848 15.2948 11.7157 15.2948 11.1371V6.60683C15.2948 6.02822 14.8346 5.55917 14.267 5.55917H3.39396ZM17.3504 6.60683C17.3504 6.23948 17.2886 5.88686 17.1749 5.55917H30.2434V10.0895H17.3504V6.60683ZM32.299 10.0895V5.55917H45.2274V10.0895H32.299ZM47.283 10.0895H60.2482V6.60683C60.2482 6.02822 59.788 5.55917 59.2204 5.55917H47.283V10.0895Z" fill="url(#paint7_linear_674_53154)"/>
<path d="M69.9429 4.79267C70.4231 4.48409 71.0577 4.63073 71.3605 5.12019C71.8158 5.85643 72.1244 6.67689 72.2687 7.53471C72.413 8.39253 72.3901 9.27093 72.2014 10.1197C72.0126 10.9685 71.6617 11.7711 71.1687 12.4817C70.6756 13.1923 70.0501 13.7969 69.3278 14.2611C68.8476 14.5696 68.2129 14.423 67.9102 13.9335C67.6075 13.4441 67.7514 12.7971 68.2315 12.4886C68.7255 12.1712 69.1532 11.7577 69.4904 11.2718C69.8276 10.7859 70.0676 10.237 70.1966 9.65654C70.3257 9.07609 70.3414 8.47541 70.2427 7.88879C70.144 7.30217 69.933 6.7411 69.6216 6.23763C69.3188 5.74817 69.4627 5.10124 69.9429 4.79267Z" fill="url(#paint8_linear_674_53154)"/>
<path d="M65.4851 10.3495C66.3915 10.5589 67.2943 9.97346 67.5014 9.04186C67.7086 8.11026 67.1417 7.18528 66.2353 6.97586C65.3289 6.76643 64.4262 7.35187 64.219 8.28347C64.0118 9.21507 64.5787 10.14 65.4851 10.3495Z" fill="url(#paint9_linear_674_53154)"/>
<defs>
<linearGradient id="paint0_linear_674_53154" x1="20.6524" y1="9.14254" x2="34.7231" y2="44.4516" gradientUnits="userSpaceOnUse">
<stop stop-color="#FA926B"/>
<stop offset="1" stop-color="#FA5F6B"/>
</linearGradient>
<linearGradient id="paint1_linear_674_53154" x1="20.6524" y1="9.14254" x2="34.7231" y2="44.4516" gradientUnits="userSpaceOnUse">
<stop stop-color="#FA926B"/>
<stop offset="1" stop-color="#FA5F6B"/>
</linearGradient>
<linearGradient id="paint2_linear_674_53154" x1="20.6524" y1="9.14254" x2="34.7231" y2="44.4516" gradientUnits="userSpaceOnUse">
<stop stop-color="#FA926B"/>
<stop offset="1" stop-color="#FA5F6B"/>
</linearGradient>
<linearGradient id="paint3_linear_674_53154" x1="20.6524" y1="9.14254" x2="34.7231" y2="44.4516" gradientUnits="userSpaceOnUse">
<stop stop-color="#FA926B"/>
<stop offset="1" stop-color="#FA5F6B"/>
</linearGradient>
<linearGradient id="paint4_linear_674_53154" x1="20.6524" y1="9.14254" x2="34.7231" y2="44.4516" gradientUnits="userSpaceOnUse">
<stop stop-color="#FA926B"/>
<stop offset="1" stop-color="#FA5F6B"/>
</linearGradient>
<linearGradient id="paint5_linear_674_53154" x1="20.6524" y1="9.14254" x2="34.7231" y2="44.4516" gradientUnits="userSpaceOnUse">
<stop stop-color="#FA926B"/>
<stop offset="1" stop-color="#FA5F6B"/>
</linearGradient>
<linearGradient id="paint6_linear_674_53154" x1="20.6524" y1="9.14254" x2="34.7231" y2="44.4516" gradientUnits="userSpaceOnUse">
<stop stop-color="#FA926B"/>
<stop offset="1" stop-color="#FA5F6B"/>
</linearGradient>
<linearGradient id="paint7_linear_674_53154" x1="20.6524" y1="9.14254" x2="34.7231" y2="44.4516" gradientUnits="userSpaceOnUse">
<stop stop-color="#FA926B"/>
<stop offset="1" stop-color="#FA5F6B"/>
</linearGradient>
<linearGradient id="paint8_linear_674_53154" x1="20.6524" y1="9.14254" x2="34.7231" y2="44.4516" gradientUnits="userSpaceOnUse">
<stop stop-color="#FA926B"/>
<stop offset="1" stop-color="#FA5F6B"/>
</linearGradient>
<linearGradient id="paint9_linear_674_53154" x1="20.6524" y1="9.14254" x2="34.7231" y2="44.4516" gradientUnits="userSpaceOnUse">
<stop stop-color="#FA926B"/>
<stop offset="1" stop-color="#FA5F6B"/>
</linearGradient>
</defs>
</svg>
