<svg width="81" height="41" viewBox="0 0 81 41" fill="none" xmlns="http://www.w3.org/2000/svg">
<path d="M15.5894 20.3489C15.5894 19.7922 16.0404 19.3409 16.5967 19.3409L39.0255 19.3409C39.5818 19.3409 40.0328 19.7922 40.0328 20.3489C40.0328 20.9056 39.5818 21.3569 39.0255 21.3569L16.5967 21.3569C16.0404 21.3569 15.5894 20.9056 15.5894 20.3489Z" fill="url(#paint0_linear_674_53150)"/>
<path d="M16.5957 15.309C16.0394 15.309 15.5884 15.7603 15.5884 16.317C15.5884 16.8737 16.0394 17.325 16.5957 17.325L39.0245 17.325C39.5808 17.325 40.0318 16.8737 40.0318 16.317C40.0318 15.7603 39.5808 15.309 39.0245 15.309L16.5957 15.309Z" fill="url(#paint1_linear_674_53150)"/>
<path d="M15.5884 12.2851C15.5884 11.7284 16.0394 11.2771 16.5957 11.2771L39.0245 11.2771C39.5808 11.2771 40.0318 11.7284 40.0318 12.2851C40.0318 12.8418 39.5808 13.2931 39.0245 13.2931L16.5957 13.2931C16.0394 13.2931 15.5884 12.8418 15.5884 12.2851Z" fill="url(#paint2_linear_674_53150)"/>
<path d="M16.5957 7.24525C16.0394 7.24525 15.5884 7.69653 15.5884 8.25322C15.5884 8.80991 16.0394 9.26119 16.5957 9.26119L39.0245 9.2612C39.5808 9.2612 40.0318 8.80991 40.0318 8.25322C40.0318 7.69653 39.5808 7.24525 39.0245 7.24525L16.5957 7.24525Z" fill="url(#paint3_linear_674_53150)"/>
<path d="M42.9998 16.9025C42.6201 16.7365 42.1774 16.8202 41.8844 17.1135C41.5913 17.4067 41.5077 17.8496 41.6736 18.2297L43.5085 22.4334C43.7312 22.9436 44.325 23.1765 44.8348 22.9537C45.3446 22.7308 45.5774 22.1367 45.3547 21.6265L44.5483 19.7792L46.3944 20.5861C46.9042 20.8089 47.498 20.576 47.7207 20.0659C47.9434 19.5557 47.7106 18.9615 47.2008 18.7387L42.9998 16.9025Z" fill="url(#paint4_linear_674_53150)"/>
<path d="M22.7625 29.905C22.2062 29.905 21.7552 30.3562 21.7552 30.9129C21.7552 31.4696 22.2062 31.9209 22.7625 31.9209L32.8615 31.9209C33.4178 31.9209 33.8688 31.4696 33.8688 30.9129C33.8688 30.3562 33.4178 29.905 32.8615 29.905L22.7625 29.905Z" fill="url(#paint5_linear_674_53150)"/>
<path fill-rule="evenodd" clip-rule="evenodd" d="M0.689453 31.2737C0.689453 33.5004 2.49339 35.3056 4.71865 35.3056H24.7624V38.4845H20.258C19.7017 38.4845 19.2507 38.9358 19.2507 39.4925C19.2507 40.0492 19.7017 40.5005 20.258 40.5005H35.3668C35.9231 40.5005 36.3741 40.0492 36.3741 39.4925C36.3741 38.9358 35.9231 38.4845 35.3668 38.4845H30.862V35.3056H50.9038C53.1291 35.3056 54.933 33.5004 54.933 31.2737V4.53238C54.933 2.30563 53.1291 0.500488 50.9038 0.500488H4.71865C2.49339 0.500488 0.689453 2.30563 0.689453 4.53238V31.2737ZM50.9038 2.51643H4.71865C3.60602 2.51643 2.70405 3.419 2.70405 4.53238V26.7157H52.9184V4.53238C52.9184 3.41901 52.0165 2.51643 50.9038 2.51643ZM28.8474 35.3056V38.4845H26.7769V35.3056H28.8474ZM52.9184 31.2737V28.7316H2.70405V31.2737C2.70405 32.3871 3.60602 33.2896 4.71865 33.2896H50.9038C52.0165 33.2896 52.9184 32.3871 52.9184 31.2737Z" fill="url(#paint6_linear_674_53150)"/>
<path fill-rule="evenodd" clip-rule="evenodd" d="M64.2117 17.8677C63.1668 16.0566 60.8525 15.4361 59.0427 16.4817C57.2329 17.5273 56.6128 19.8431 57.6577 21.6541C58.7026 23.4651 61.0168 24.0856 62.8266 23.04C64.6365 21.9944 65.2566 19.6787 64.2117 17.8677ZM60.05 18.2276C60.8963 17.7387 61.9784 18.0288 62.467 18.8756C62.9555 19.7224 62.6656 20.8053 61.8193 21.2942C60.9731 21.7831 59.891 21.493 59.4024 20.6461C58.9138 19.7993 59.2038 18.7165 60.05 18.2276Z" fill="url(#paint7_linear_674_53150)"/>
<path d="M65.9807 13.2864C66.3741 12.8928 67.0119 12.8928 67.4053 13.2864C68.2551 14.1369 68.9293 15.1464 69.3892 16.2576C69.8491 17.3687 70.0858 18.5596 70.0858 19.7622C70.0858 20.9649 69.8491 22.1558 69.3892 23.2669C68.9293 24.378 68.2551 25.3876 67.4053 26.238C67.0119 26.6316 66.3741 26.6316 65.9807 26.238C65.5874 25.8444 65.5874 25.2062 65.9807 24.8125C66.6435 24.1493 67.1692 23.362 67.5279 22.4954C67.8866 21.6289 68.0712 20.7002 68.0712 19.7622C68.0712 18.8243 67.8866 17.8956 67.5279 17.029C67.1693 16.1625 66.6435 15.3752 65.9807 14.7119C65.5874 14.3183 65.5874 13.6801 65.9807 13.2864Z" fill="url(#paint8_linear_674_53150)"/>
<path d="M71.1918 9.38034C70.8005 8.98887 70.1663 8.98886 69.775 9.38034C69.3838 9.77182 69.3838 10.4065 69.775 10.798C70.9515 11.9752 71.8846 13.3727 72.5213 14.9108C73.158 16.4489 73.4857 18.0974 73.4857 19.7622C73.4857 21.427 73.158 23.0755 72.5213 24.6136C71.8846 26.1517 70.9515 27.5493 69.775 28.7265C69.3838 29.1179 69.3838 29.7526 69.775 30.1441C70.1663 30.5356 70.8005 30.5356 71.1918 30.1441C72.5542 28.7807 73.635 27.1622 74.3723 25.3809C75.1097 23.5995 75.4892 21.6903 75.4892 19.7622C75.4892 17.8341 75.1097 15.9249 74.3723 14.1436C73.635 12.3623 72.5542 10.7437 71.1918 9.38034Z" fill="url(#paint9_linear_674_53150)"/>
<path d="M73.4783 5.78285C73.8717 5.38921 74.5095 5.38921 74.9029 5.78285C76.7374 7.61865 78.1927 9.79806 79.1856 12.1966C80.1784 14.5952 80.6895 17.166 80.6895 19.7622C80.6895 22.3584 80.1784 24.9292 79.1856 27.3278C78.1927 29.7264 76.7374 31.9058 74.9029 33.7416C74.5095 34.1352 73.8717 34.1352 73.4783 33.7416C73.085 33.348 73.085 32.7098 73.4783 32.3161C75.1258 30.6675 76.4327 28.7103 77.3243 26.5563C78.2159 24.4023 78.6749 22.0937 78.6749 19.7622C78.6749 17.4308 78.2159 15.1221 77.3243 12.9681C76.4327 10.8141 75.1258 8.85694 73.4783 7.20834C73.085 6.8147 73.085 6.17649 73.4783 5.78285Z" fill="url(#paint10_linear_674_53150)"/>
<defs>
<linearGradient id="paint0_linear_674_53150" x1="21.0312" y1="9.14335" x2="35.1015" y2="44.4518" gradientUnits="userSpaceOnUse">
<stop stop-color="#FA926B"/>
<stop offset="1" stop-color="#FA5F6B"/>
</linearGradient>
<linearGradient id="paint1_linear_674_53150" x1="21.0312" y1="9.14335" x2="35.1015" y2="44.4518" gradientUnits="userSpaceOnUse">
<stop stop-color="#FA926B"/>
<stop offset="1" stop-color="#FA5F6B"/>
</linearGradient>
<linearGradient id="paint2_linear_674_53150" x1="21.0312" y1="9.14335" x2="35.1015" y2="44.4518" gradientUnits="userSpaceOnUse">
<stop stop-color="#FA926B"/>
<stop offset="1" stop-color="#FA5F6B"/>
</linearGradient>
<linearGradient id="paint3_linear_674_53150" x1="21.0312" y1="9.14335" x2="35.1015" y2="44.4518" gradientUnits="userSpaceOnUse">
<stop stop-color="#FA926B"/>
<stop offset="1" stop-color="#FA5F6B"/>
</linearGradient>
<linearGradient id="paint4_linear_674_53150" x1="21.0312" y1="9.14335" x2="35.1015" y2="44.4518" gradientUnits="userSpaceOnUse">
<stop stop-color="#FA926B"/>
<stop offset="1" stop-color="#FA5F6B"/>
</linearGradient>
<linearGradient id="paint5_linear_674_53150" x1="21.0312" y1="9.14335" x2="35.1015" y2="44.4518" gradientUnits="userSpaceOnUse">
<stop stop-color="#FA926B"/>
<stop offset="1" stop-color="#FA5F6B"/>
</linearGradient>
<linearGradient id="paint6_linear_674_53150" x1="21.0312" y1="9.14335" x2="35.1015" y2="44.4518" gradientUnits="userSpaceOnUse">
<stop stop-color="#FA926B"/>
<stop offset="1" stop-color="#FA5F6B"/>
</linearGradient>
<linearGradient id="paint7_linear_674_53150" x1="21.0312" y1="9.14335" x2="35.1015" y2="44.4518" gradientUnits="userSpaceOnUse">
<stop stop-color="#FA926B"/>
<stop offset="1" stop-color="#FA5F6B"/>
</linearGradient>
<linearGradient id="paint8_linear_674_53150" x1="21.0312" y1="9.14335" x2="35.1015" y2="44.4518" gradientUnits="userSpaceOnUse">
<stop stop-color="#FA926B"/>
<stop offset="1" stop-color="#FA5F6B"/>
</linearGradient>
<linearGradient id="paint9_linear_674_53150" x1="21.0312" y1="9.14335" x2="35.1015" y2="44.4518" gradientUnits="userSpaceOnUse">
<stop stop-color="#FA926B"/>
<stop offset="1" stop-color="#FA5F6B"/>
</linearGradient>
<linearGradient id="paint10_linear_674_53150" x1="21.0312" y1="9.14335" x2="35.1015" y2="44.4518" gradientUnits="userSpaceOnUse">
<stop stop-color="#FA926B"/>
<stop offset="1" stop-color="#FA5F6B"/>
</linearGradient>
</defs>
</svg>
