<svg width="80" height="41" viewBox="0 0 80 41" fill="none" xmlns="http://www.w3.org/2000/svg">
<path fill-rule="evenodd" clip-rule="evenodd" d="M14.3253 35.2524C19.3145 35.2524 23.3591 31.2417 23.3591 26.2941C23.3591 21.3466 19.3145 17.3358 14.3253 17.3358C9.33612 17.3358 5.29157 21.3466 5.29157 26.2941C5.29157 31.2417 9.33612 35.2524 14.3253 35.2524ZM14.3253 37.2524C20.4284 37.2524 25.3759 32.3462 25.3759 26.2941C25.3759 20.242 20.4284 15.3358 14.3253 15.3358C8.22225 15.3358 3.27472 20.242 3.27472 26.2941C3.27472 32.3462 8.22225 37.2524 14.3253 37.2524Z" fill="url(#paint0_linear_674_53136)"/>
<path fill-rule="evenodd" clip-rule="evenodd" d="M14.3288 30.7787C16.8271 30.7787 18.8524 28.7703 18.8524 26.2928C18.8524 23.8154 16.8271 21.807 14.3288 21.807C11.8304 21.807 9.80514 23.8154 9.80514 26.2928C9.80514 28.7703 11.8304 30.7787 14.3288 30.7787ZM14.3288 32.7787C17.941 32.7787 20.8692 29.8748 20.8692 26.2928C20.8692 22.7108 17.941 19.807 14.3288 19.807C10.7166 19.807 7.78829 22.7108 7.78829 26.2928C7.78829 29.8748 10.7166 32.7787 14.3288 32.7787Z" fill="url(#paint1_linear_674_53136)"/>
<path fill-rule="evenodd" clip-rule="evenodd" d="M40.0238 0.499512C39.4669 0.499512 39.0154 0.947226 39.0154 1.49951V1.83936H37.207C36.5592 1.83936 35.9828 2.14215 35.6138 2.61279H8.31654C4.97492 2.61279 2.266 5.29909 2.266 8.61279V18.6208C0.83187 20.8334 0 23.4664 0 26.292C0 34.138 6.41406 40.4985 14.3262 40.4985C22.2383 40.4985 28.6524 34.138 28.6524 26.292C28.6524 18.4459 22.2383 12.0854 14.3262 12.0854C12.9778 12.0854 11.6729 12.2702 10.4358 12.6155V9.7417L35.4591 9.7417C35.8076 10.3403 36.4598 10.7432 37.207 10.7432H39.0154V11.0865C39.0154 11.6388 39.4669 12.0865 40.0238 12.0865H45.3823C45.9392 12.0865 46.3907 11.6388 46.3907 11.0865V9.96539H49.0277C50.1416 9.96539 51.0446 9.06996 51.0446 7.96539V4.61279C51.0446 3.50822 50.1416 2.61279 49.0277 2.61279H46.3907V1.49951C46.3907 0.947227 45.9392 0.499512 45.3823 0.499512H40.0238ZM41.0322 2.49951V10.0865H44.3738V2.49951H41.0322ZM8.41896 13.3456V6.07764C8.41896 5.55412 8.53604 5.05773 8.74566 4.61279H8.31654C6.0888 4.61279 4.28285 6.40366 4.28285 8.61279V16.1611C5.47635 14.9975 6.87455 14.0396 8.41896 13.3456ZM35.1901 7.7417V4.61279H11.913C11.0972 4.61279 10.4358 5.26863 10.4358 6.07764V7.7417L35.1901 7.7417ZM39.0154 8.7432H37.207V3.83936H39.0154V8.7432ZM49.0277 7.96539L46.3907 7.96539V4.61279H49.0277V7.96539ZM26.6355 26.292C26.6355 33.0334 21.1245 38.4985 14.3262 38.4985C7.52793 38.4985 2.01685 33.0334 2.01685 26.292C2.01685 19.5505 7.52793 14.0854 14.3262 14.0854C21.1245 14.0854 26.6355 19.5505 26.6355 26.292Z" fill="url(#paint2_linear_674_53136)"/>
<path fill-rule="evenodd" clip-rule="evenodd" d="M43.9895 15.3511C43.9895 14.7988 43.5381 14.3511 42.9811 14.3511C42.4242 14.3511 41.9727 14.7988 41.9727 15.3511V31.9191C41.9727 34.1282 43.7786 35.9191 46.0064 35.9191H55.3186C55.7923 37.6034 57.3509 38.8392 59.2005 38.8392C61.426 38.8392 63.2302 37.0501 63.2302 34.8432C63.2302 32.6362 61.426 30.8472 59.2005 30.8472C57.2957 30.8472 55.6996 32.1577 55.2791 33.9191H46.0064C44.8925 33.9191 43.9895 33.0236 43.9895 31.9191V15.3511ZM57.1877 34.8432C57.1877 33.7408 58.0889 32.8472 59.2005 32.8472C60.3122 32.8472 61.2133 33.7408 61.2133 34.8432C61.2133 35.9455 60.3122 36.8392 59.2005 36.8392C58.0889 36.8392 57.1877 35.9455 57.1877 34.8432Z" fill="url(#paint3_linear_674_53136)"/>
<path fill-rule="evenodd" clip-rule="evenodd" d="M55.9112 26.5312C55.767 25.9977 56.0863 25.4494 56.6243 25.3064C57.8874 24.9708 59.2049 24.8852 60.5015 25.0544C61.798 25.2237 63.0483 25.6445 64.1808 26.293C65.3134 26.9414 66.306 27.8046 67.1021 28.8335C67.8982 29.8623 68.4822 31.0366 68.8207 32.2892C68.9648 32.8227 68.6456 33.371 68.1076 33.514C67.5696 33.6569 67.0167 33.3403 66.8725 32.8068C66.6026 31.8079 66.1369 30.8715 65.5021 30.051C64.8672 29.2305 64.0756 28.5421 63.1724 28.025C62.2692 27.5079 61.2722 27.1723 60.2382 27.0373C59.2043 26.9023 58.1536 26.9706 57.1463 27.2383C56.6083 27.3812 56.0553 27.0646 55.9112 26.5312Z" fill="url(#paint4_linear_674_53136)"/>
<path fill-rule="evenodd" clip-rule="evenodd" d="M54.3327 20.6931C54.1886 20.1596 54.5078 19.6113 55.0458 19.4684C57.0821 18.9273 59.2059 18.7893 61.296 19.0621C63.3862 19.335 65.4016 20.0134 67.2273 21.0587C69.053 22.104 70.6532 23.4956 71.9366 25.1541C73.2199 26.8126 74.1613 28.7056 74.7069 30.7249C74.8511 31.2584 74.5318 31.8067 73.9939 31.9496C73.4559 32.0926 72.9029 31.776 72.7588 31.2425C72.2817 29.4769 71.4586 27.8218 70.3365 26.3716C69.2144 24.9215 67.8152 23.7047 66.2189 22.7907C64.6225 21.8768 62.8603 21.2836 61.0328 21.045C59.2053 20.8064 57.3483 20.9271 55.5678 21.4002C55.0298 21.5432 54.4769 21.2266 54.3327 20.6931Z" fill="url(#paint5_linear_674_53136)"/>
<path fill-rule="evenodd" clip-rule="evenodd" d="M52.9237 15.4786C52.7796 14.9451 53.0988 14.3968 53.6368 14.2538C56.3636 13.5293 59.2077 13.3444 62.0066 13.7098C64.8055 14.0752 67.5044 14.9837 69.9493 16.3835C72.3941 17.7832 74.537 19.6468 76.2556 21.8677C77.9741 24.0887 79.2347 26.6236 79.9654 29.3277C80.1095 29.8611 79.7903 30.4095 79.2523 30.5524C78.7144 30.6954 78.1614 30.3788 78.0173 29.8453C77.3552 27.3949 76.2128 25.0979 74.6555 23.0853C73.0982 21.0727 71.1563 19.3839 68.9409 18.1155C66.7254 16.8471 64.2797 16.0238 61.7434 15.6927C59.2071 15.3616 56.6298 15.5291 54.1588 16.1857C53.6208 16.3286 53.0679 16.012 52.9237 15.4786Z" fill="url(#paint6_linear_674_53136)"/>
<defs>
<linearGradient id="paint0_linear_674_53136" x1="20.3417" y1="9.14215" x2="34.4114" y2="44.45" gradientUnits="userSpaceOnUse">
<stop stop-color="#FA926B"/>
<stop offset="1" stop-color="#FA5F6B"/>
</linearGradient>
<linearGradient id="paint1_linear_674_53136" x1="20.3417" y1="9.14215" x2="34.4114" y2="44.45" gradientUnits="userSpaceOnUse">
<stop stop-color="#FA926B"/>
<stop offset="1" stop-color="#FA5F6B"/>
</linearGradient>
<linearGradient id="paint2_linear_674_53136" x1="20.3417" y1="9.14215" x2="34.4114" y2="44.45" gradientUnits="userSpaceOnUse">
<stop stop-color="#FA926B"/>
<stop offset="1" stop-color="#FA5F6B"/>
</linearGradient>
<linearGradient id="paint3_linear_674_53136" x1="20.3417" y1="9.14215" x2="34.4114" y2="44.45" gradientUnits="userSpaceOnUse">
<stop stop-color="#FA926B"/>
<stop offset="1" stop-color="#FA5F6B"/>
</linearGradient>
<linearGradient id="paint4_linear_674_53136" x1="20.3417" y1="9.14215" x2="34.4114" y2="44.45" gradientUnits="userSpaceOnUse">
<stop stop-color="#FA926B"/>
<stop offset="1" stop-color="#FA5F6B"/>
</linearGradient>
<linearGradient id="paint5_linear_674_53136" x1="20.3417" y1="9.14215" x2="34.4114" y2="44.45" gradientUnits="userSpaceOnUse">
<stop stop-color="#FA926B"/>
<stop offset="1" stop-color="#FA5F6B"/>
</linearGradient>
<linearGradient id="paint6_linear_674_53136" x1="20.3417" y1="9.14215" x2="34.4114" y2="44.45" gradientUnits="userSpaceOnUse">
<stop stop-color="#FA926B"/>
<stop offset="1" stop-color="#FA5F6B"/>
</linearGradient>
</defs>
</svg>
