<svg width="81" height="41" viewBox="0 0 81 41" fill="none" xmlns="http://www.w3.org/2000/svg">
<path fill-rule="evenodd" clip-rule="evenodd" d="M28.1934 3.08494C28.1934 1.78426 29.2511 0.729857 30.5557 0.729857H78.3272C79.6318 0.729857 80.6895 1.78427 80.6895 3.08494V38.1444C80.6895 39.4451 79.6318 40.4995 78.3272 40.4995H30.5557C29.2511 40.4995 28.1934 39.4451 28.1934 38.1444V3.08494ZM30.5557 2.32065C30.1323 2.32065 29.7891 2.66284 29.7891 3.08494V38.1444C29.7891 38.5665 30.1323 38.9087 30.5557 38.9087H78.3272C78.7506 38.9087 79.0938 38.5665 79.0938 38.1444V3.08494C79.0938 2.66283 78.7506 2.32065 78.3272 2.32065H30.5557Z" fill="url(#paint0_linear_674_53146)"/>
<path d="M2.65211 6.40868H4.13587L6.07497 1.00825V0.929981H4.64616L3.39791 4.94509H3.36651L2.09471 0.929981H0.689453V1.00825L2.65211 6.40868Z" fill="url(#paint1_linear_674_53146)"/>
<path d="M7.15878 1.90049C7.62197 1.90049 7.88889 1.63439 7.88889 1.19609C7.88889 0.76562 7.62197 0.499512 7.15878 0.499512C6.6799 0.499512 6.42868 0.76562 6.42868 1.19609C6.42868 1.63439 6.6799 1.90049 7.15878 1.90049ZM6.54644 6.40868H7.75543V2.31531H6.54644V6.40868Z" fill="url(#paint2_linear_674_53146)"/>
<path d="M10.3001 6.47912C11.4228 6.47912 12.0744 5.82951 12.1843 5.09379H11.0145C10.9439 5.28164 10.7476 5.50078 10.3001 5.50078C9.75059 5.50078 9.50722 5.16423 9.49937 4.6868H12.2392V4.24068C12.2392 3.12929 11.5327 2.24487 10.2766 2.24487C8.94198 2.24487 8.26682 3.20756 8.26682 4.36591C8.26682 5.53992 9.00478 6.47912 10.3001 6.47912ZM9.50722 3.92761C9.53077 3.53628 9.75844 3.23104 10.2766 3.23104C10.7555 3.23104 10.9831 3.53628 11.0067 3.92761H9.50722Z" fill="url(#paint3_linear_674_53146)"/>
<path d="M13.5162 6.40868H15.1099L15.6987 3.60672H15.7301L16.2954 6.40868H17.889L18.8939 2.39358V2.31531H17.7163L17.0961 5.11727H17.0647L16.5152 2.31531H14.898L14.3484 5.11727H14.317L13.6968 2.31531H12.5114V2.39358L13.5162 6.40868Z" fill="url(#paint4_linear_674_53146)"/>
<path d="M34.9869 32.4171C36.1008 32.4171 36.8392 31.656 36.9268 30.7576H35.9318C35.8567 31.1693 35.5751 31.5374 34.9869 31.5374C34.261 31.5374 33.8668 31.0633 33.8668 30.1836C33.8668 29.304 34.261 28.8236 34.9869 28.8236C35.6002 28.8236 35.888 29.2229 35.9256 29.6409H36.9268C36.8643 28.7175 36.1071 27.9377 34.9869 27.9377C33.5789 27.9377 32.8655 28.9234 32.8655 30.1836C32.8655 31.4251 33.5789 32.4171 34.9869 32.4171Z" fill="url(#paint5_linear_674_53146)"/>
<path d="M38.4161 32.4171C38.8228 32.4171 39.1107 32.2736 39.2922 32.0677H39.3172L39.386 32.3609H40.2496V30.2148C40.2496 29.5348 39.7114 29.0419 38.8166 29.0419C37.8529 29.0419 37.4086 29.566 37.4086 30.1774H38.3097C38.3097 29.9777 38.4849 29.8155 38.7853 29.8155C39.142 29.8155 39.2859 29.9902 39.2859 30.2148V30.4831C39.1545 30.4394 38.8291 30.3895 38.585 30.3895C37.6839 30.3895 37.2709 30.7888 37.2709 31.3939C37.2709 31.9741 37.6777 32.4171 38.4161 32.4171ZM38.6601 31.6684C38.3723 31.6684 38.2221 31.5312 38.2221 31.344C38.2221 31.1693 38.3848 31.0321 38.6977 31.0321C38.8854 31.0321 39.0857 31.0571 39.2859 31.1382V31.1693C39.2859 31.4376 39.0544 31.6684 38.6601 31.6684Z" fill="url(#paint6_linear_674_53146)"/>
<path d="M42.1083 32.4171C42.9406 32.4171 43.5413 32.049 43.5413 31.3752C43.5413 30.689 43.072 30.4581 42.5713 30.3646L41.9456 30.246C41.7891 30.2148 41.7015 30.1462 41.7015 30.0214C41.7015 29.8966 41.8454 29.7968 42.0832 29.7968C42.4086 29.7968 42.5213 29.984 42.515 30.1337H43.4662C43.4662 29.5286 42.9531 29.0419 42.102 29.0419C41.2259 29.0419 40.7566 29.4786 40.7566 30.0089C40.7566 30.664 41.2322 30.9323 41.7578 31.0321L42.2397 31.1257C42.465 31.1693 42.5713 31.238 42.5713 31.3815C42.5713 31.4938 42.4524 31.6185 42.1083 31.6185C41.7641 31.6185 41.6202 31.4376 41.6202 31.2567H40.6565C40.6752 31.9242 41.0883 32.4171 42.1083 32.4171Z" fill="url(#paint7_linear_674_53146)"/>
<path d="M45.4483 32.4171C45.7549 32.4171 46.0115 32.3609 46.1116 32.3235V31.525H46.0491C45.9489 31.5624 45.8426 31.5811 45.7362 31.5811C45.4483 31.5811 45.3169 31.4501 45.3169 31.1444V29.9154H46.0991V29.0981H45.3169V28.2434H45.2543L44.397 28.4181V29.0981H43.8213V29.9154H44.3532V31.3752C44.3532 31.9679 44.6911 32.4171 45.4483 32.4171Z" fill="url(#paint8_linear_674_53146)"/>
<path d="M47.1734 32.4171C47.5301 32.4171 47.7366 32.205 47.7366 31.8556C47.7366 31.5125 47.5301 31.3004 47.1734 31.3004C46.8042 31.3004 46.6102 31.5125 46.6102 31.8556C46.6102 32.205 46.8042 32.4171 47.1734 32.4171Z" fill="url(#paint9_linear_674_53146)"/>
<path d="M48.7378 32.4171C49.0945 32.4171 49.301 32.205 49.301 31.8556C49.301 31.5125 49.0945 31.3004 48.7378 31.3004C48.3686 31.3004 48.1746 31.5125 48.1746 31.8556C48.1746 32.205 48.3686 32.4171 48.7378 32.4171Z" fill="url(#paint10_linear_674_53146)"/>
<path d="M50.3023 32.4171C50.659 32.4171 50.8655 32.205 50.8655 31.8556C50.8655 31.5125 50.659 31.3004 50.3023 31.3004C49.933 31.3004 49.7391 31.5125 49.7391 31.8556C49.7391 32.205 49.933 32.4171 50.3023 32.4171Z" fill="url(#paint11_linear_674_53146)"/>
<path fill-rule="evenodd" clip-rule="evenodd" d="M32.6778 23.8782C32.6778 23.4389 33.035 23.0828 33.4756 23.0828H75.1682C75.6088 23.0828 75.966 23.4389 75.966 23.8782C75.966 24.3175 75.6088 24.6736 75.1682 24.6736H33.4756C33.035 24.6736 32.6778 24.3175 32.6778 23.8782Z" fill="url(#paint12_linear_674_53146)"/>
<path fill-rule="evenodd" clip-rule="evenodd" d="M32.6778 19.4843C32.6778 19.045 33.035 18.6889 33.4756 18.6889H75.1682C75.6088 18.6889 75.966 19.045 75.966 19.4843C75.966 19.9235 75.6088 20.2797 75.1682 20.2797H33.4756C33.035 20.2797 32.6778 19.9235 32.6778 19.4843Z" fill="url(#paint13_linear_674_53146)"/>
<path fill-rule="evenodd" clip-rule="evenodd" d="M32.6778 15.0903C32.6778 14.6511 33.035 14.2949 33.4756 14.2949H75.1682C75.6088 14.2949 75.966 14.6511 75.966 15.0903C75.966 15.5296 75.6088 15.8857 75.1682 15.8857H33.4756C33.035 15.8857 32.6778 15.5296 32.6778 15.0903Z" fill="url(#paint14_linear_674_53146)"/>
<path fill-rule="evenodd" clip-rule="evenodd" d="M32.6778 35.1762C32.6778 34.7369 33.035 34.3808 33.4756 34.3808H75.1682C75.6088 34.3808 75.966 34.7369 75.966 35.1762C75.966 35.6155 75.6088 35.9716 75.1682 35.9716H33.4756C33.035 35.9716 32.6778 35.6155 32.6778 35.1762Z" fill="url(#paint15_linear_674_53146)"/>
<path fill-rule="evenodd" clip-rule="evenodd" d="M32.6778 10.6925C32.6778 10.2532 33.035 9.89712 33.4756 9.89712H75.1682C75.6088 9.89712 75.966 10.2532 75.966 10.6925C75.966 11.1318 75.6088 11.4879 75.1682 11.4879H33.4756C33.035 11.4879 32.6778 11.1318 32.6778 10.6925Z" fill="url(#paint16_linear_674_53146)"/>
<path fill-rule="evenodd" clip-rule="evenodd" d="M32.6778 6.29861C32.6778 5.85932 33.035 5.50321 33.4756 5.50321H75.1682C75.6088 5.50321 75.966 5.85932 75.966 6.29861C75.966 6.7379 75.6088 7.09401 75.1682 7.09401H33.4756C33.035 7.09401 32.6778 6.7379 32.6778 6.29861Z" fill="url(#paint17_linear_674_53146)"/>
<path fill-rule="evenodd" clip-rule="evenodd" d="M4.96899 8.61696C5.40962 8.61696 5.76682 8.97308 5.76682 9.41236V29.8071C5.76682 30.0138 5.93494 30.1814 6.14233 30.1814H20.0062C20.4469 30.1814 20.8041 30.5375 20.8041 30.9768C20.8041 31.4161 20.4469 31.7722 20.0062 31.7722H6.14233C5.05368 31.7722 4.17117 30.8924 4.17117 29.8071V9.41236C4.17117 8.97308 4.52837 8.61696 4.96899 8.61696Z" fill="url(#paint18_linear_674_53146)"/>
<path fill-rule="evenodd" clip-rule="evenodd" d="M22.548 29.236C21.5846 29.236 20.8036 30.0146 20.8036 30.9751C20.8036 31.9355 21.5846 32.7142 22.548 32.7142C23.5114 32.7142 24.2924 31.9355 24.2924 30.9751C24.2924 30.0146 23.5114 29.236 22.548 29.236ZM19.208 30.9751C19.208 29.136 20.7033 27.6452 22.548 27.6452C24.3927 27.6452 25.8881 29.136 25.8881 30.9751C25.8881 32.8141 24.3927 34.305 22.548 34.305C20.7033 34.305 19.208 32.8141 19.208 30.9751Z" fill="url(#paint19_linear_674_53146)"/>
<defs>
<linearGradient id="paint0_linear_674_53146" x1="21.0312" y1="9.14237" x2="35.1015" y2="44.4509" gradientUnits="userSpaceOnUse">
<stop stop-color="#FA926B"/>
<stop offset="1" stop-color="#FA5F6B"/>
</linearGradient>
<linearGradient id="paint1_linear_674_53146" x1="21.0312" y1="9.14237" x2="35.1015" y2="44.4509" gradientUnits="userSpaceOnUse">
<stop stop-color="#FA926B"/>
<stop offset="1" stop-color="#FA5F6B"/>
</linearGradient>
<linearGradient id="paint2_linear_674_53146" x1="21.0312" y1="9.14237" x2="35.1015" y2="44.4509" gradientUnits="userSpaceOnUse">
<stop stop-color="#FA926B"/>
<stop offset="1" stop-color="#FA5F6B"/>
</linearGradient>
<linearGradient id="paint3_linear_674_53146" x1="21.0312" y1="9.14237" x2="35.1015" y2="44.4509" gradientUnits="userSpaceOnUse">
<stop stop-color="#FA926B"/>
<stop offset="1" stop-color="#FA5F6B"/>
</linearGradient>
<linearGradient id="paint4_linear_674_53146" x1="21.0312" y1="9.14237" x2="35.1015" y2="44.4509" gradientUnits="userSpaceOnUse">
<stop stop-color="#FA926B"/>
<stop offset="1" stop-color="#FA5F6B"/>
</linearGradient>
<linearGradient id="paint5_linear_674_53146" x1="21.0312" y1="9.14237" x2="35.1015" y2="44.4509" gradientUnits="userSpaceOnUse">
<stop stop-color="#FA926B"/>
<stop offset="1" stop-color="#FA5F6B"/>
</linearGradient>
<linearGradient id="paint6_linear_674_53146" x1="21.0312" y1="9.14237" x2="35.1015" y2="44.4509" gradientUnits="userSpaceOnUse">
<stop stop-color="#FA926B"/>
<stop offset="1" stop-color="#FA5F6B"/>
</linearGradient>
<linearGradient id="paint7_linear_674_53146" x1="21.0312" y1="9.14237" x2="35.1015" y2="44.4509" gradientUnits="userSpaceOnUse">
<stop stop-color="#FA926B"/>
<stop offset="1" stop-color="#FA5F6B"/>
</linearGradient>
<linearGradient id="paint8_linear_674_53146" x1="21.0312" y1="9.14237" x2="35.1015" y2="44.4509" gradientUnits="userSpaceOnUse">
<stop stop-color="#FA926B"/>
<stop offset="1" stop-color="#FA5F6B"/>
</linearGradient>
<linearGradient id="paint9_linear_674_53146" x1="21.0312" y1="9.14237" x2="35.1015" y2="44.4509" gradientUnits="userSpaceOnUse">
<stop stop-color="#FA926B"/>
<stop offset="1" stop-color="#FA5F6B"/>
</linearGradient>
<linearGradient id="paint10_linear_674_53146" x1="21.0312" y1="9.14237" x2="35.1015" y2="44.4509" gradientUnits="userSpaceOnUse">
<stop stop-color="#FA926B"/>
<stop offset="1" stop-color="#FA5F6B"/>
</linearGradient>
<linearGradient id="paint11_linear_674_53146" x1="21.0312" y1="9.14237" x2="35.1015" y2="44.4509" gradientUnits="userSpaceOnUse">
<stop stop-color="#FA926B"/>
<stop offset="1" stop-color="#FA5F6B"/>
</linearGradient>
<linearGradient id="paint12_linear_674_53146" x1="21.0312" y1="9.14237" x2="35.1015" y2="44.4509" gradientUnits="userSpaceOnUse">
<stop stop-color="#FA926B"/>
<stop offset="1" stop-color="#FA5F6B"/>
</linearGradient>
<linearGradient id="paint13_linear_674_53146" x1="21.0312" y1="9.14237" x2="35.1015" y2="44.4509" gradientUnits="userSpaceOnUse">
<stop stop-color="#FA926B"/>
<stop offset="1" stop-color="#FA5F6B"/>
</linearGradient>
<linearGradient id="paint14_linear_674_53146" x1="21.0312" y1="9.14237" x2="35.1015" y2="44.4509" gradientUnits="userSpaceOnUse">
<stop stop-color="#FA926B"/>
<stop offset="1" stop-color="#FA5F6B"/>
</linearGradient>
<linearGradient id="paint15_linear_674_53146" x1="21.0312" y1="9.14237" x2="35.1015" y2="44.4509" gradientUnits="userSpaceOnUse">
<stop stop-color="#FA926B"/>
<stop offset="1" stop-color="#FA5F6B"/>
</linearGradient>
<linearGradient id="paint16_linear_674_53146" x1="21.0312" y1="9.14237" x2="35.1015" y2="44.4509" gradientUnits="userSpaceOnUse">
<stop stop-color="#FA926B"/>
<stop offset="1" stop-color="#FA5F6B"/>
</linearGradient>
<linearGradient id="paint17_linear_674_53146" x1="21.0312" y1="9.14237" x2="35.1015" y2="44.4509" gradientUnits="userSpaceOnUse">
<stop stop-color="#FA926B"/>
<stop offset="1" stop-color="#FA5F6B"/>
</linearGradient>
<linearGradient id="paint18_linear_674_53146" x1="21.0312" y1="9.14237" x2="35.1015" y2="44.4509" gradientUnits="userSpaceOnUse">
<stop stop-color="#FA926B"/>
<stop offset="1" stop-color="#FA5F6B"/>
</linearGradient>
<linearGradient id="paint19_linear_674_53146" x1="21.0312" y1="9.14237" x2="35.1015" y2="44.4509" gradientUnits="userSpaceOnUse">
<stop stop-color="#FA926B"/>
<stop offset="1" stop-color="#FA5F6B"/>
</linearGradient>
</defs>
</svg>
