<svg width="81" height="41" viewBox="0 0 81 41" fill="none" xmlns="http://www.w3.org/2000/svg">
<path fill-rule="evenodd" clip-rule="evenodd" d="M3.99048 5.72541C4.00876 2.83603 6.35449 0.499512 9.24553 0.499512H46.2348C49.1371 0.499512 51.4899 2.8544 51.4899 5.75929V31.5807C51.4899 34.4856 49.1371 36.8404 46.2348 36.8404H34.1069C33.5487 36.8404 33.0963 36.3876 33.0963 35.8289C33.0963 35.2703 33.5487 34.8174 34.1069 34.8174H46.2348C48.0208 34.8174 49.4686 33.3683 49.4686 31.5807V5.75929C49.4686 3.97171 48.0208 2.52258 46.2348 2.52258H9.24553C7.46653 2.52258 6.02298 3.96042 6.01173 5.73823L6.01167 5.75929V6.54353C6.01167 7.10219 5.55919 7.55507 5.00102 7.55507C4.44286 7.55507 3.99037 7.10219 3.99037 6.54353V5.75929L3.99048 5.72541Z" fill="url(#paint0_linear_674_53140)"/>
<path fill-rule="evenodd" clip-rule="evenodd" d="M5.35943 33.7446C4.07686 33.4007 2.75853 34.1625 2.41486 35.4462C2.0712 36.7299 2.83233 38.0494 4.11491 38.3933C5.39749 38.7373 6.71582 37.9755 7.05948 36.6918C7.40315 35.4081 6.64201 34.0886 5.35943 33.7446ZM0.462441 34.9226C1.09503 32.5596 3.52171 31.1574 5.88258 31.7905C8.24345 32.4237 9.64449 34.8525 9.0119 37.2154C8.37931 39.5784 5.95263 40.9806 3.59176 40.3475C1.23089 39.7143 -0.170151 37.2855 0.462441 34.9226Z" fill="url(#paint1_linear_674_53140)"/>
<path fill-rule="evenodd" clip-rule="evenodd" d="M3.72686 25.8191C3.72686 25.2604 4.17934 24.8075 4.7375 24.8075C6.21563 24.8075 7.67928 25.0989 9.04489 25.6651C10.4105 26.2312 11.6513 27.0611 12.6965 28.1072C13.7417 29.1533 14.5708 30.3952 15.1365 31.762C15.7021 33.1288 15.9933 34.5938 15.9933 36.0732C15.9933 36.6318 15.5408 37.0847 14.9826 37.0847C14.4244 37.0847 13.972 36.6318 13.972 36.0732C13.972 34.8594 13.7331 33.6576 13.269 32.5362C12.805 31.4148 12.1248 30.396 11.2673 29.5377C10.4098 28.6794 9.39176 27.9986 8.27138 27.5342C7.151 27.0697 5.95019 26.8306 4.7375 26.8306C4.17934 26.8306 3.72686 26.3777 3.72686 25.8191Z" fill="url(#paint2_linear_674_53140)"/>
<path fill-rule="evenodd" clip-rule="evenodd" d="M3.63211 19.1186C3.63211 18.563 4.0821 18.1126 4.6372 18.1126C7.00692 18.1126 9.35343 18.5798 11.5428 19.4874C13.7321 20.3951 15.7214 21.7254 17.397 23.4025C19.0726 25.0797 20.4018 27.0707 21.3087 29.2619C22.2155 31.4532 22.6823 33.8018 22.6823 36.1736C22.6823 36.7292 22.2323 37.1796 21.6772 37.1796C21.1221 37.1796 20.6721 36.7292 20.6721 36.1736C20.6721 34.066 20.2573 31.979 19.4515 30.0319C18.6457 28.0847 17.4646 26.3155 15.9756 24.8252C14.4866 23.3349 12.7189 22.1528 10.7735 21.3462C8.82805 20.5397 6.74293 20.1246 4.6372 20.1246C4.0821 20.1246 3.63211 19.6742 3.63211 19.1186Z" fill="url(#paint3_linear_674_53140)"/>
<path fill-rule="evenodd" clip-rule="evenodd" d="M3.72686 12.7614C3.72686 12.2027 4.17934 11.7499 4.7375 11.7499C7.92836 11.7499 11.088 12.3789 14.0359 13.6011C16.9839 14.8232 19.6625 16.6146 21.9188 18.8728C24.1751 21.1311 25.9648 23.8121 27.1859 26.7626C28.407 29.7132 29.0355 32.8756 29.0355 36.0692C29.0355 36.6279 28.583 37.0808 28.0249 37.0808C27.4667 37.0808 27.0142 36.6279 27.0142 36.0692C27.0142 33.1412 26.438 30.2419 25.3185 27.5368C24.199 24.8317 22.5581 22.3738 20.4895 20.3034C18.4209 18.233 15.9652 16.5906 13.2624 15.4701C10.5597 14.3496 7.66292 13.7729 4.7375 13.7729C4.17934 13.7729 3.72686 13.3201 3.72686 12.7614Z" fill="url(#paint4_linear_674_53140)"/>
<path fill-rule="evenodd" clip-rule="evenodd" d="M57.2656 20.7628C56.3458 18.6552 58.4866 16.5126 60.5923 17.4332L78.795 25.391C80.9693 26.3416 80.7539 29.4964 78.4706 30.142L76.734 30.6331C73.6915 31.4935 71.3135 33.8735 70.4539 36.9188L69.9633 38.6569C69.3182 40.9422 66.1662 41.1578 65.2165 38.9816L57.2656 20.7628ZM59.7833 19.2871C59.3621 19.103 58.934 19.5315 59.1179 19.9531L67.0688 38.1718C67.2587 38.607 67.8891 38.5639 68.0181 38.1068L68.5088 36.3687C69.5594 32.6467 72.4658 29.7378 76.1845 28.6862L77.9211 28.1952C78.3777 28.066 78.4208 27.4351 77.986 27.245L59.7833 19.2871Z" fill="url(#paint5_linear_674_53140)"/>
<defs>
<linearGradient id="paint0_linear_674_53140" x1="20.6523" y1="9.14237" x2="34.7226" y2="44.4509" gradientUnits="userSpaceOnUse">
<stop stop-color="#FA926B"/>
<stop offset="1" stop-color="#FA5F6B"/>
</linearGradient>
<linearGradient id="paint1_linear_674_53140" x1="20.6523" y1="9.14237" x2="34.7226" y2="44.4509" gradientUnits="userSpaceOnUse">
<stop stop-color="#FA926B"/>
<stop offset="1" stop-color="#FA5F6B"/>
</linearGradient>
<linearGradient id="paint2_linear_674_53140" x1="20.6523" y1="9.14237" x2="34.7226" y2="44.4509" gradientUnits="userSpaceOnUse">
<stop stop-color="#FA926B"/>
<stop offset="1" stop-color="#FA5F6B"/>
</linearGradient>
<linearGradient id="paint3_linear_674_53140" x1="20.6523" y1="9.14237" x2="34.7226" y2="44.4509" gradientUnits="userSpaceOnUse">
<stop stop-color="#FA926B"/>
<stop offset="1" stop-color="#FA5F6B"/>
</linearGradient>
<linearGradient id="paint4_linear_674_53140" x1="20.6523" y1="9.14237" x2="34.7226" y2="44.4509" gradientUnits="userSpaceOnUse">
<stop stop-color="#FA926B"/>
<stop offset="1" stop-color="#FA5F6B"/>
</linearGradient>
<linearGradient id="paint5_linear_674_53140" x1="20.6523" y1="9.14237" x2="34.7226" y2="44.4509" gradientUnits="userSpaceOnUse">
<stop stop-color="#FA926B"/>
<stop offset="1" stop-color="#FA5F6B"/>
</linearGradient>
</defs>
</svg>
