<svg width="36" height="11" viewBox="0 0 36 11" fill="none" xmlns="http://www.w3.org/2000/svg">
<path fill-rule="evenodd" clip-rule="evenodd" d="M33.2778 3.55478C33.3956 3.55478 33.4673 3.63676 33.4964 3.74711C33.559 3.98073 33.2541 4.55007 32.1883 5.20412C32.212 4.44604 32.6705 3.55478 33.2778 3.55478ZM30.0154 3.55478C30.1934 3.55478 30.2049 3.72992 30.2134 3.79265C30.2584 4.12332 29.9529 4.70918 28.9533 5.0452C29.0602 4.34468 29.5205 3.55478 30.0154 3.55478ZM25.7043 0.797849C26.0419 0.797849 25.765 1.94843 24.6913 3.55988C24.9373 1.42433 25.2925 0.797849 25.7043 0.797849ZM21.998 3.55478C22.0982 3.55478 22.1231 3.63427 22.1364 3.67933C22.1795 3.8266 22.0247 4.40663 20.866 5.21748C20.9322 4.44385 21.4034 3.55478 21.998 3.55478ZM17.1973 10.0862C17.0771 10.0862 16.9951 10.0097 16.9951 9.85909C16.9951 9.16616 18.0773 8.21939 18.0888 8.21636C17.9412 9.14794 17.5635 10.0862 17.1973 10.0862ZM35.059 5.51415C34.8762 5.39299 34.6296 5.44261 34.507 5.62473C34.4869 5.65455 34.0047 6.35743 33.1642 6.35743C32.8339 6.35743 32.5837 6.25541 32.4209 6.05379C32.41 6.04043 32.3997 6.02585 32.3887 6.01152C32.393 6.0097 32.396 6.00763 32.3997 6.00557C34.3752 4.8692 34.3637 3.90373 34.2671 3.54142C34.1511 3.10781 33.763 2.82767 33.2778 2.82767C32.1489 2.82767 31.3903 4.08816 31.3903 5.26534C31.3903 5.41498 31.4043 5.55824 31.428 5.69542C31.0278 5.99136 30.4059 6.35743 29.86 6.35743C29.5417 6.35743 29.3025 6.2633 29.1494 6.07626C29.0948 6.00994 29.0529 5.93567 29.0219 5.85873C30.5347 5.41996 31.108 4.45436 31.0029 3.68474C30.9343 3.18008 30.5577 2.82767 30.0877 2.82767C29.0353 2.82767 28.2743 3.93312 28.151 5.02989C27.95 5.00894 27.7672 4.94973 27.6057 4.84995C27.6324 4.67596 27.6458 4.50507 27.6458 4.34268C27.6458 3.98523 27.5778 3.67381 27.4484 3.44164C27.2723 3.12408 26.9863 2.94918 26.6431 2.94918C26.4591 2.94918 26.2939 3.05048 26.201 3.2204C26.0055 3.57785 26.1306 4.27163 26.4907 4.83422C26.5605 4.94311 26.6371 5.04362 26.719 5.13556C26.5223 5.77012 26.1148 6.36715 25.5816 6.36715C25.3423 6.36715 25.1632 6.29306 25.0174 6.13456C24.8079 5.9064 24.6737 5.50048 24.63 4.98726C26.1142 3.13283 26.835 1.31885 26.4251 0.459769C26.2854 0.167613 26.0243 0 25.7085 0C24.6822 3.03646e-06 24.0713 1.32839 23.8405 4.06085C23.8259 4.22803 23.8156 4.42978 23.8174 4.64931C23.269 5.39155 22.3708 6.35745 21.5595 6.35745C21.3281 6.35745 21.1587 6.2791 21.0433 6.11817C21.033 6.10481 21.0239 6.09024 21.0147 6.07566C21.0239 6.0702 21.0336 6.06473 21.0427 6.05866C23.034 4.77138 23.0055 3.80809 22.901 3.45349C22.7868 3.06762 22.4407 2.82768 21.998 2.82768C20.8392 2.82768 20.0607 4.15844 20.0607 5.40145C20.0607 5.51392 20.068 5.62293 20.0813 5.72799C19.7157 5.99113 19.4127 6.22566 19.1218 6.45279C19.1655 6.11271 19.2299 5.68311 19.3022 5.03841V5.03816C19.3192 4.90802 19.3338 4.80132 19.341 4.74897C19.406 4.27789 18.6336 4.18042 18.5497 4.70616C18.4635 5.24738 18.2303 6.36716 17.5951 6.36716C17.2113 6.36716 17.0097 5.94036 17.0467 5.3197C17.1056 4.3436 17.6321 3.54768 18.285 3.54768C18.5091 3.54768 18.6257 3.78738 18.6257 3.78738C18.8315 4.16208 19.4716 3.8458 19.3362 3.44948C19.2761 3.27246 19.0605 2.83284 18.3165 2.83284C16.788 2.83284 16.3155 4.38016 16.2475 5.40145C16.236 5.56948 16.2396 5.73187 16.2548 5.88637C16.0416 6.14611 15.7878 6.36716 15.5412 6.36716C15.2989 6.36716 15.1459 6.09752 15.2364 5.47456C15.3226 4.88051 15.3833 4.38951 15.424 4.10208C15.6092 2.80266 13.9835 2.83837 13.9835 2.83837C13.9835 2.83837 13.9659 2.08046 13.3398 2.08046C13.0191 2.08046 12.7349 2.32951 12.7349 2.7992C12.7349 3.23341 13.0908 3.44687 13.0908 3.44687L13.0926 3.44724C13.0137 4.11975 12.6979 6.36716 11.9971 6.36716C11.6825 6.36716 11.6612 6.02708 11.6886 5.78823C11.7268 5.45634 11.7869 4.89423 11.807 4.74897C11.872 4.27789 11.0989 4.18042 11.0157 4.70616C10.9294 5.24738 10.6962 6.36716 10.061 6.36716C9.6772 6.36716 9.47497 5.88436 9.50594 5.30337C9.55878 4.30783 10.0981 3.54768 10.7509 3.54768C10.975 3.54768 11.0916 3.78738 11.0916 3.78738C11.2616 4.15856 11.9339 3.89165 11.8021 3.44948C11.7444 3.25424 11.5264 2.83284 10.7825 2.83284C9.25331 2.83284 8.78083 4.38016 8.71342 5.40145C8.70249 5.55946 8.70553 5.7122 8.71828 5.85825C8.49966 6.15522 8.23609 6.36716 7.98771 6.36716C7.76119 6.36716 7.5875 6.25056 7.62941 5.73655C7.64884 5.49649 7.92819 3.85546 7.90998 3.55613C7.879 3.05839 7.65309 2.83897 7.09802 2.83897C6.51442 2.83897 6.07352 3.13898 5.88842 3.33064C5.88842 3.33064 6.16462 1.25983 6.21684 0.862234C6.27211 0.445577 5.47103 0.441368 5.41874 0.858773C5.39609 1.03975 5.18226 2.68047 4.9841 4.19512C4.53762 5.18416 3.63275 6.70846 2.29318 6.70846C-0.244693 6.70846 0.926472 1.17663 3.30044 1.17663C3.85684 1.17663 3.60834 2.06522 3.23522 2.60711C2.9688 2.99414 3.64016 3.43928 4.01097 2.81347C5.03578 1.08414 4.17215 0.437494 3.36038 0.437494C-0.167809 0.437494 -1.47732 7.47298 2.1979 7.47298C3.40787 7.47298 4.21757 6.79281 4.7393 6.06163C4.68464 6.47702 4.64717 6.76002 4.63952 6.81285C4.57727 7.24707 5.38856 7.21124 5.43125 6.84868C5.45846 6.61731 5.57894 5.64643 5.68212 4.90571C5.74109 4.48225 6.25875 3.70303 6.85146 3.70303C6.99175 3.70303 7.08284 3.84186 7.06523 3.96083C7.04398 4.09898 6.79195 5.94078 6.80895 6.21528C6.85693 6.9835 7.40592 7.16205 7.92941 7.16205C8.34358 7.16205 8.67517 6.96589 8.95391 6.65799C9.13914 6.96771 9.42578 7.16023 9.81202 7.16023C10.6956 7.16023 11.0005 6.52378 11.0005 6.52378C11.0005 6.52378 11.1062 7.15415 11.8677 7.15415C13.4108 7.15415 13.771 4.46221 13.8475 3.56469C13.938 3.56821 14.4833 3.60167 14.5732 3.90696C14.6594 4.19961 14.3855 5.13831 14.3631 6.10475C14.3515 6.61366 14.5386 7.16023 15.3445 7.16023C15.8364 7.16023 16.222 6.93431 16.502 6.67864C16.6872 6.97561 16.969 7.16023 17.3461 7.16023C17.7809 7.16023 18.0755 7.02055 18.2625 6.87905C18.2504 6.96225 18.2382 7.04423 18.2267 7.12682C18.2261 7.13229 18.2255 7.13715 18.2248 7.14261C18.2267 7.12683 16.1898 8.59708 16.1898 9.98657C16.1898 10.5283 16.4412 10.8835 17.0831 10.8835C18.3603 10.8835 18.755 9.17948 18.9433 7.76873C18.9524 7.70193 18.9609 7.63877 18.9694 7.57804C19.1692 7.42683 19.355 7.28168 19.5354 7.14079C19.8008 6.93371 20.057 6.73391 20.3522 6.5165C20.3668 6.53897 20.3807 6.56204 20.3959 6.58391C20.6649 6.95739 21.067 7.15476 21.5595 7.15476C22.4838 7.15476 23.3389 6.44544 23.9553 5.75185C24.0482 6.09443 24.1964 6.41933 24.4308 6.67378C24.7253 6.99444 25.1231 7.16387 25.5816 7.16387C26.4646 7.16387 27.0774 6.45941 27.3944 5.64072C27.6361 5.75289 27.9014 5.81744 28.1844 5.83244C28.2464 6.12054 28.3636 6.3756 28.5336 6.58269C28.748 6.84322 29.1525 7.15476 29.86 7.15476C30.5632 7.15476 31.261 6.77885 31.7298 6.45698C31.7529 6.49038 31.7754 6.52318 31.8003 6.55415C32.0213 6.82804 32.4373 7.15476 33.1642 7.15476C34.442 7.15476 35.1434 6.10839 35.1726 6.06346C35.2928 5.88054 35.2418 5.63542 35.059 5.51415Z" fill="#050505"/>
</svg>
