<svg width="128" height="18" viewBox="0 0 128 18" fill="none" xmlns="http://www.w3.org/2000/svg">
<path d="M126.874 14.1616L127.309 17.8447H114.531V0.331787H125.636L126.072 4.01497H119.201V7.20875H124.564L125 10.8906H119.201V14.1616H126.874Z" fill="#FC5E64"/>
<path d="M112.822 4.50348C112.189 3.19974 111.252 2.17749 110.011 1.43903C108.77 0.70102 107.278 0.331787 105.533 0.331787H96.0941L97.6295 3.5941V17.8447H105.43C107.055 17.8447 108.501 17.4847 109.767 16.7631C111.033 16.0425 112.017 15.0129 112.719 13.6735C113.421 12.3341 113.771 10.7713 113.771 8.98591C113.771 7.3038 113.454 5.80996 112.822 4.50485M107.882 12.8236C107.171 13.7165 106.253 14.1629 105.122 14.1629H102.301V4.01497H105.303C106.449 4.01497 107.343 4.4756 107.985 5.39274C108.626 6.31217 108.947 7.50943 108.947 8.98591C108.947 10.6511 108.592 11.9306 107.882 12.8236Z" fill="#FC5E64"/>
<path d="M85.9022 0.736084C84.7401 0.736084 83.7992 1.68286 83.7992 2.84948C83.7992 3.10777 83.8467 3.35521 83.9309 3.58364L83.9232 3.58772L86.8028 9.61396L80.1375 8.70111C80.6821 9.1607 81.1634 9.68271 81.5728 10.259C82.1242 11.0389 82.4046 11.9277 82.4046 12.9021C82.4046 13.0527 82.3983 13.1998 82.3856 13.3463L88.985 13.9253L94.5778 17.821L97.2137 14.0095L91.6633 10.1423L87.8699 2.09857C87.8315 1.99408 87.784 1.89501 87.7288 1.79956L87.7202 1.77966H87.7188C87.3533 1.15541 86.678 0.736084 85.9036 0.736084H85.9022Z" fill="#FC5E64"/>
<path d="M75.0765 17.9986C74.1781 17.9986 73.1748 17.8629 72.0665 17.5906C70.9569 17.3197 70.0726 16.9881 69.4121 16.5964L70.9357 13.1037C71.3934 13.3761 72.024 13.6258 72.8283 13.8555C73.633 14.0853 74.341 14.1998 74.9489 14.1998C75.6256 14.1998 76.1684 14.0591 76.5751 13.7791C76.9818 13.4977 77.1844 13.1888 77.1844 12.8486C77.1844 12.6279 77.0356 12.4107 76.7389 12.1981C76.4426 11.986 75.9649 11.6834 75.304 11.293L74.5174 10.8347C73.3652 10.1558 72.4682 9.59077 71.825 9.13978C71.1808 8.68923 70.6054 8.10796 70.0975 7.3937C69.5895 6.67943 69.3357 5.87334 69.3357 4.9718C69.3357 4.02005 69.6021 3.16647 70.1364 2.40923C70.6692 1.65335 71.4188 1.06348 72.3845 0.637817C73.3503 0.21351 74.4762 0 75.7631 0C76.6439 0 77.5459 0.128016 78.4691 0.383142C79.391 0.637817 80.1844 0.987033 80.8435 1.42853L79.4711 4.56514C78.5745 4.25844 77.8838 4.05534 77.4006 3.95356C76.918 3.85042 76.3887 3.80021 75.8133 3.80021C75.3054 3.80021 74.8951 3.91963 74.5811 4.15712C74.2672 4.39551 74.1107 4.68411 74.1107 5.02428C74.1107 5.2794 74.2419 5.50513 74.5047 5.70009C74.7675 5.89596 75.204 6.15561 75.8133 6.47723L76.728 6.98658C77.7937 7.59816 78.6831 8.16451 79.3951 8.6829C80.1057 9.2013 80.7109 9.81423 81.2112 10.5185C81.7106 11.2229 81.9608 12.019 81.9608 12.9015C81.9608 13.8881 81.6803 14.7621 81.1226 15.5265C80.5648 16.291 79.7642 16.8949 78.722 17.3369C77.6811 17.7788 76.4652 18 75.0765 18" fill="#FC5E64"/>
<path d="M18.7192 7.13717H25.2421V0.405273H29.7606V17.8466H25.2421V10.699H18.7192V17.8466H14.202V0.405273H18.7192V7.13717Z" fill="#FC5E64"/>
<path d="M41.2398 11.3468L39.396 5.79505H39.3499L37.483 11.3468H41.2398ZM42.4621 14.8158H36.2386L35.0399 17.8466H30.2463L36.9303 0.405273H41.8631L48.4096 17.8466H43.592L42.4621 14.8158Z" fill="#FC5E64"/>
<path d="M53.4316 0.404785H48.9144V17.8461H53.4316V0.404785Z" fill="#FC5E64"/>
<path d="M59.8744 8.22369H60.3123C60.3887 8.23907 60.4661 8.24631 60.5425 8.24631H60.7502C61.4255 8.21509 62.0448 8.05813 62.6053 7.77179C63.1671 7.48681 63.4471 6.92046 63.4471 6.07185C63.4471 5.22324 63.1671 4.64197 62.6053 4.35336C62.0434 4.06431 61.4255 3.90508 60.7502 3.87342H59.8744V8.22369ZM64.3454 10.6985L69.8085 17.8461H64.184L59.9206 11.1377H59.8744V17.8461H55.3568V0.404785H62.1113C63.8325 0.419713 65.2687 0.856685 66.4208 1.71163C67.573 2.56793 68.1497 3.92861 68.1497 5.79456C68.1497 6.99736 67.8231 8.06446 67.1704 8.99857C66.5172 9.93132 65.5763 10.5063 64.3468 10.7225V10.6999L64.3454 10.6985Z" fill="#FC5E64"/>
<path d="M11.0397 13.2879C10.383 13.6145 9.71343 13.7782 9.02732 13.7782C7.73809 13.7782 6.67458 13.3348 5.83814 12.4493C5.00928 11.5481 4.5944 10.4204 4.5944 9.06423C4.5944 8.6101 4.63902 8.16042 4.72645 7.71833C4.81433 7.27535 4.94727 6.87921 5.12393 6.52858C5.30014 6.17838 5.53077 5.84157 5.81494 5.5186C6.6438 4.61702 7.71489 4.16645 9.02732 4.16645C9.72324 4.16645 10.3955 4.32348 11.0468 4.63665L12.8866 1.14633C12.1991 0.814428 11.4849 0.55078 10.7462 0.35271C9.98599 0.183191 9.25796 0.098877 8.55981 0.098877C7.34106 0.098877 6.2316 0.303193 5.23501 0.711824C4.23083 1.11287 3.32524 1.7285 2.51958 2.56048C2.05207 3.05342 1.66931 3.52853 1.37444 3.98801C1.07957 4.44616 0.835549 4.93286 0.644171 5.45034C0.215021 6.51742 0 7.69246 0 8.97055C0 10.5649 0.329669 12.0174 0.988562 13.3263C1.64701 14.5888 2.60345 15.6527 3.85923 16.5155C4.48868 16.9625 5.20289 17.2957 5.99963 17.5161C6.79815 17.7352 7.65065 17.8453 8.55624 17.8453C9.27045 17.8453 9.99804 17.7561 10.7435 17.579C11.3346 17.4492 12.0501 17.1891 12.8888 16.7952L11.0406 13.2866L11.0397 13.2879Z" fill="#FC5E64"/>
</svg>
