<svg width="211" height="19" viewBox="0 0 211 19" fill="none" xmlns="http://www.w3.org/2000/svg">
<path d="M121.949 14.0531L122.367 17.5942H110.081V0.756735H120.758L121.177 4.29788H114.571V7.36834H119.727L120.147 10.9083H114.571V14.0531H121.949Z" fill="#E6E6E6"/>
<path d="M108.438 4.76735C107.83 3.5138 106.929 2.53097 105.736 1.82127C104.543 1.11158 103.108 0.756735 101.431 0.756735H92.3559L93.8322 3.89304V17.5942H101.332C102.894 17.5942 104.284 17.2479 105.502 16.5541C106.719 15.8615 107.664 14.8713 108.34 13.5836C109.014 12.2959 109.351 10.7936 109.351 9.07672C109.351 7.45979 109.046 6.02333 108.438 4.76857M103.689 12.7666C103.006 13.6251 102.123 14.0543 101.036 14.0543H98.323V4.29788H101.21C102.311 4.29788 103.171 4.74052 103.788 5.62215C104.404 6.50622 104.713 7.65733 104.713 9.07672C104.713 10.6778 104.372 11.9082 103.689 12.7666Z" fill="#E6E6E6"/>
<path d="M82.4569 1.14816C81.3281 1.14816 80.4144 2.06759 80.4144 3.20042C80.4144 3.45161 80.4606 3.69184 80.542 3.91377L80.5347 3.91743L83.3317 9.77056L76.8579 8.88405C77.3865 9.33035 77.8543 9.83762 78.2516 10.3973C78.7874 11.1546 79.0596 12.0179 79.0596 12.9642C79.0596 13.1105 79.0535 13.2532 79.0414 13.3958L85.4508 13.958L90.8833 17.7418L93.4434 14.0397L88.0522 10.2839L84.3682 2.47122C84.3305 2.37 84.2843 2.27367 84.2309 2.181L84.2224 2.16149H84.2212C83.8664 1.55544 83.2102 1.14816 82.4581 1.14816H82.4569Z" fill="#E6E6E6"/>
<path d="M71.9418 17.9149C71.0694 17.9149 70.0949 17.7833 69.0184 17.5186C67.9407 17.2552 67.0816 16.9333 66.4401 16.5529L67.92 13.1605C68.3647 13.4251 68.9771 13.6678 69.7584 13.8909C70.5396 14.1141 71.2274 14.225 71.8179 14.225C72.4752 14.225 73.0026 14.0885 73.3975 13.8165C73.7924 13.5434 73.9892 13.2434 73.9892 12.913C73.9892 12.6983 73.8446 12.4874 73.5566 12.2813C73.2687 12.0752 72.8045 11.7814 72.163 11.4021L71.3987 10.957C70.2796 10.2973 69.4084 9.74861 68.7839 9.31084C68.1581 8.87308 67.5992 8.30849 67.1059 7.61465C66.6126 6.92081 66.3659 6.13796 66.3659 5.26243C66.3659 4.33812 66.6248 3.50893 67.1436 2.77363C67.6612 2.03955 68.389 1.46643 69.327 1.05305C70.2651 0.640892 71.3586 0.433594 72.6089 0.433594C73.4643 0.433594 74.3403 0.557973 75.2371 0.805511C76.1325 1.05305 76.9029 1.39204 77.5432 1.82127L76.2103 4.86734C75.3391 4.56981 74.6684 4.37226 74.1994 4.27349C73.7304 4.1735 73.2164 4.12472 72.6575 4.12472C72.1642 4.12472 71.7656 4.24057 71.4607 4.47103C71.1557 4.70272 71.0038 4.98318 71.0038 5.31364C71.0038 5.56118 71.1314 5.78067 71.3865 5.96968C71.6417 6.15991 72.0658 6.41232 72.6575 6.72449L73.5457 7.21957C74.5809 7.81342 75.4448 8.36337 76.1362 8.86698C76.8263 9.37059 77.4144 9.96566 77.9004 10.6497C78.3853 11.3338 78.6283 12.1069 78.6283 12.9642C78.6283 13.9226 78.3561 14.7713 77.8142 15.5139C77.2723 16.2566 76.4946 16.8431 75.4825 17.2723C74.4716 17.7015 73.2905 17.9162 71.9418 17.9162" fill="#E6E6E6"/>
<path d="M18.3943 7.36468H24.7296V0.826241H29.1184V17.7662H24.7296V10.8241H18.3943V17.7662H14.0068V0.826241H18.3943V7.36468Z" fill="#E6E6E6"/>
<path d="M40.2665 11.4533L38.4755 6.06114H38.4305L36.6177 11.4533H40.2665ZM41.4536 14.8225H35.4087L34.2447 17.7662H29.5886L36.0806 0.826241H40.8716L47.23 17.7662H42.5508L41.4536 14.8225Z" fill="#E6E6E6"/>
<path d="M52.1084 0.826241H47.7208V17.7662H52.1084V0.826241Z" fill="#E6E6E6"/>
<path d="M57.1765 8.42068H57.6018C57.6759 8.43531 57.7512 8.44263 57.8253 8.44263H58.027C58.6832 8.41214 59.2846 8.25972 59.829 7.98169C60.3745 7.70489 60.6467 7.15494 60.6467 6.33062C60.6467 5.50631 60.3745 4.94172 59.829 4.66126C59.2834 4.3808 58.6832 4.22594 58.027 4.19545H57.1765V8.42068ZM61.5191 10.8241L66.8252 17.7662H61.3624L57.2215 11.2509H57.1765V17.7662H52.7889V0.826241H59.349C61.0209 0.840874 62.4158 1.26523 63.5349 2.09564C64.6539 2.92727 65.2141 4.2491 65.2141 6.06114C65.2141 7.22932 64.8969 8.26582 64.2627 9.17305C63.6284 10.0791 62.7147 10.6376 61.5203 10.8473V10.8253L61.5191 10.8241Z" fill="#E6E6E6"/>
<path d="M11.0846 13.519C10.4382 13.8409 9.77839 14.0019 9.10282 14.0019C7.83309 14.0019 6.78572 13.5653 5.96191 12.6935C5.14539 11.8057 4.73714 10.6949 4.73714 9.35962C4.73714 8.9121 4.78088 8.46946 4.86715 8.03413C4.95342 7.59758 5.08464 7.20737 5.25839 6.86228C5.43215 6.51719 5.65936 6.18552 5.93882 5.86725C6.75534 4.97953 7.81 4.53566 9.10282 4.53566C9.78811 4.53566 10.4503 4.69053 11.0919 4.99904L12.9035 1.56154C12.2267 1.23474 11.5232 0.975008 10.7954 0.779904C10.0469 0.612846 9.33004 0.529927 8.64232 0.529927C7.44184 0.529927 6.34951 0.731128 5.36775 1.13353C4.3787 1.52862 3.48685 2.13466 2.69342 2.9541C2.23291 3.43942 1.85625 3.90767 1.56585 4.36007C1.27545 4.81125 1.03487 5.29047 0.846538 5.80018C0.423699 6.85131 0.21228 8.00852 0.21228 9.26694C0.21228 10.8375 0.536699 12.2679 1.18554 13.5568C1.83438 14.8006 2.77604 15.8481 4.01297 16.698C4.63264 17.1382 5.33616 17.4662 6.12108 17.6833C6.90722 17.8991 7.74682 18.0076 8.63867 18.0076C9.34219 18.0076 10.0591 17.9198 10.793 17.7454C11.375 17.6174 12.0797 17.3613 12.9059 16.9736L11.0858 13.5178L11.0846 13.519Z" fill="#E6E6E6"/>
<path d="M152.626 8.88494C153.249 7.9965 153.561 6.97892 153.561 5.83339C153.561 4.05531 153.01 2.76031 151.911 1.94481C150.811 1.13051 149.439 0.714388 147.797 0.700039H141.35V17.3114H145.662V10.9225H145.706L149.776 17.3114H155.144L149.944 10.5231C151.111 10.3151 152.004 9.76979 152.625 8.88494H152.626ZM148.27 7.7167C147.734 7.98813 147.144 8.13879 146.499 8.16869H146.301C146.228 8.16869 145.663 8.14717 145.663 8.14717V4.00509H146.499C147.144 4.03498 147.735 4.18684 148.27 4.46187C148.805 4.73689 149.073 5.28215 149.073 6.09885C149.073 6.91554 148.806 7.44646 148.27 7.71789V7.7167Z" fill="#FC5E64"/>
<path d="M169.87 5.60282C169.684 5.10419 169.448 4.63307 169.163 4.19064C168.877 3.74821 168.507 3.28785 168.055 2.81194C167.536 2.27744 166.975 1.8386 166.372 1.48824C166.143 1.35552 165.908 1.23594 165.666 1.12952C165.228 0.953744 164.782 0.801884 164.322 0.679918C163.701 0.542407 163.103 0.462291 162.524 0.440768C162.42 0.437181 162.208 0.433594 162.207 0.433594C162.206 0.433594 161.993 0.437181 161.891 0.440768C161.313 0.462291 160.713 0.541211 160.092 0.679918C159.634 0.801884 159.186 0.953744 158.748 1.12952C158.507 1.23594 158.271 1.35552 158.042 1.48824C157.439 1.8386 156.878 2.27744 156.36 2.81194C155.907 3.28785 155.537 3.74702 155.252 4.19064C154.965 4.63307 154.73 5.10299 154.545 5.60282C154.129 6.63714 153.921 7.77191 153.921 9.00592C153.921 10.546 154.24 11.9487 154.878 13.2138C155.515 14.4334 156.442 15.4606 157.656 16.294C157.778 16.3801 157.904 16.4602 158.031 16.5379C158.126 16.5953 158.221 16.6503 158.319 16.703C159.002 17.0067 159.593 17.2123 160.094 17.3224C160.812 17.4933 161.517 17.5782 162.207 17.5794C162.896 17.5794 163.601 17.4933 164.321 17.3224C164.821 17.2135 165.412 17.0067 166.095 16.703C166.193 16.6503 166.288 16.5953 166.383 16.5379C166.511 16.4602 166.636 16.3801 166.758 16.294C167.973 15.4606 168.9 14.4346 169.536 13.2138C170.174 11.9487 170.493 10.5472 170.493 9.00592C170.493 7.77071 170.285 6.63594 169.87 5.60282ZM164.842 12.366C164.835 12.3731 164.828 12.3815 164.821 12.3887C163.404 13.8666 161.012 13.8666 159.594 12.3887C159.587 12.3815 159.58 12.3743 159.573 12.366C158.77 11.4955 158.369 10.4061 158.369 9.0968C158.369 8.65796 158.412 8.2239 158.497 7.79701C158.582 7.36894 158.711 6.9863 158.882 6.6479C159.052 6.3095 159.276 5.98426 159.55 5.67097C159.557 5.6638 159.565 5.65543 159.572 5.64825C160.989 4.13204 163.426 4.13204 164.844 5.64825C164.851 5.65543 164.858 5.6638 164.865 5.67097C165.14 5.98306 165.363 6.3095 165.534 6.6479C165.705 6.9863 165.832 7.37013 165.918 7.79701C166.004 8.22509 166.046 8.65796 166.046 9.0968C166.046 10.4061 165.645 11.4967 164.842 12.366Z" fill="#FC5E64"/>
<path d="M139.094 1.94481C137.995 1.13051 136.623 0.714388 134.981 0.700039H127.079L128.534 3.77551V17.3114H132.847V10.938H134.981C136.004 10.9285 137.015 10.6821 137.843 10.3414C138.313 10.1835 138.729 9.95633 139.09 9.66218C139.111 9.64663 139.603 9.17909 139.81 8.88494C140.388 8.06107 140.697 7.126 140.74 6.08091C140.742 5.99482 140.745 5.90753 140.745 5.81904C140.745 5.73056 140.742 5.64327 140.74 5.55717C140.685 3.92139 140.137 2.71607 139.096 1.94362L139.094 1.94481ZM135.454 7.7167C134.917 7.98813 134.328 8.13879 133.683 8.16869H133.485C133.412 8.16869 132.847 8.14717 132.847 8.14717V4.00509H133.683C134.328 4.03498 134.919 4.18684 135.454 4.46187C135.925 4.7046 136.189 5.15659 136.245 5.82023C136.252 5.90992 136.257 6.00199 136.257 6.09885C136.257 6.90717 135.99 7.44646 135.454 7.71789V7.7167Z" fill="#FC5E64"/>
<path d="M173.208 18.0051V15.8914C174.491 14.919 175.621 14.0277 176.601 13.2174C177.58 12.4001 178.419 11.6568 179.116 10.9874C179.821 10.311 180.395 9.69095 180.839 9.12728C181.29 8.5636 181.621 8.04925 181.832 7.58422C182.044 7.11214 182.15 6.67177 182.15 6.26311C182.15 5.82627 182.044 5.42465 181.832 5.05826C181.628 4.69187 181.346 4.39947 180.987 4.18104C180.628 3.95558 180.215 3.84284 179.75 3.84284C179.321 3.84284 178.922 3.95558 178.556 4.18104C178.19 4.39947 177.852 4.74119 177.541 5.20622C177.239 5.66421 176.953 6.24902 176.685 6.96066L173.293 5.31191C173.561 4.50163 173.902 3.78295 174.318 3.15586C174.741 2.52173 175.237 1.98977 175.808 1.55996C176.386 1.12312 177.024 0.791961 177.721 0.566491C178.426 0.341022 179.187 0.228288 180.004 0.228288C181.286 0.228288 182.417 0.485464 183.397 0.999815C184.383 1.50712 185.155 2.20467 185.711 3.09245C186.268 3.98024 186.546 4.99485 186.546 6.13629C186.546 6.69291 186.469 7.24602 186.314 7.7956C186.166 8.33813 185.937 8.87715 185.627 9.41264C185.317 9.94812 184.922 10.4871 184.443 11.0297C183.971 11.5722 183.407 12.1253 182.752 12.689C182.104 13.2527 181.357 13.8269 180.511 14.4117H186.863V18.0051H173.208ZM190.343 18.3433C189.885 18.3433 189.465 18.2306 189.085 18.0051C188.712 17.7867 188.412 17.4908 188.187 17.1173C187.968 16.7369 187.859 16.3176 187.859 15.8596C187.859 15.4017 187.968 14.986 188.187 14.6125C188.412 14.232 188.712 13.9326 189.085 13.7142C189.465 13.4887 189.885 13.376 190.343 13.376C190.801 13.376 191.216 13.4887 191.59 13.7142C191.97 13.9326 192.27 14.232 192.488 14.6125C192.714 14.986 192.826 15.4017 192.826 15.8596C192.826 16.3176 192.714 16.7369 192.488 17.1173C192.27 17.4908 191.97 17.7867 191.59 18.0051C191.216 18.2306 190.801 18.3433 190.343 18.3433ZM200.785 18.3433C199.361 18.3433 198.107 17.9629 197.022 17.2019C195.944 16.4409 195.102 15.3805 194.496 14.0207C193.897 12.6608 193.598 11.086 193.598 9.29638C193.598 7.50672 193.897 5.93195 194.496 4.57209C195.102 3.21223 195.944 2.15182 197.022 1.39086C198.107 0.629905 199.361 0.249425 200.785 0.249425C202.215 0.249425 203.469 0.629905 204.547 1.39086C205.625 2.15182 206.464 3.21223 207.062 4.57209C207.668 5.93195 207.971 7.50672 207.971 9.29638C207.971 11.086 207.668 12.6608 207.062 14.0207C206.464 15.3805 205.625 16.4409 204.547 17.2019C203.469 17.9629 202.215 18.3433 200.785 18.3433ZM200.785 14.7605C201.391 14.7605 201.908 14.5456 202.338 14.1158C202.768 13.6789 203.099 13.0519 203.332 12.2345C203.564 11.4172 203.68 10.4378 203.68 9.29638C203.68 8.14789 203.564 7.16851 203.332 6.35823C203.099 5.54091 202.768 4.91734 202.338 4.48754C201.908 4.0507 201.391 3.83227 200.785 3.83227C200.186 3.83227 199.668 4.0507 199.231 4.48754C198.801 4.91734 198.47 5.54091 198.237 6.35823C198.012 7.16851 197.899 8.14789 197.899 9.29638C197.899 10.4378 198.012 11.4172 198.237 12.2345C198.47 13.0519 198.801 13.6789 199.231 14.1158C199.668 14.5456 200.186 14.7605 200.785 14.7605Z" fill="#FC5E64"/>
</svg>
