<svg width="29" height="29" viewBox="0 0 29 29" fill="none" xmlns="http://www.w3.org/2000/svg">
<path d="M24.3299 26.4565H17.2209C16.0207 26.4565 15.0437 25.4795 15.0437 24.2793V15.4067C15.0437 14.2065 16.0207 13.2295 17.2209 13.2295H24.3299C25.5301 13.2295 26.5071 14.2065 26.5071 15.4067V24.2793C26.5071 25.4795 25.5301 26.4565 24.3299 26.4565ZM17.2209 14.9931C16.9925 14.9931 16.8073 15.1783 16.8073 15.4067V24.2793C16.8073 24.5077 16.9925 24.6929 17.2209 24.6929H24.3299C24.5583 24.6929 24.7435 24.5077 24.7435 24.2793V15.4067C24.7435 15.1783 24.5583 14.9931 24.3299 14.9931H17.2209Z" fill="url(#paint0_linear)"/>
<path d="M24.3299 11.4654H17.2209C16.0207 11.4654 15.0437 10.4884 15.0437 9.28827V3.9428C15.0437 2.74267 16.0207 1.76562 17.2209 1.76562H24.3299C25.5301 1.76562 26.5071 2.74267 26.5071 3.9428V9.28827C26.5071 10.4884 25.5301 11.4654 24.3299 11.4654ZM17.2209 3.52923C16.9925 3.52923 16.8073 3.71441 16.8073 3.9428V9.28827C16.8073 9.51665 16.9925 9.70183 17.2209 9.70183H24.3299C24.5583 9.70183 24.7435 9.51665 24.7435 9.28827V3.9428C24.7435 3.71441 24.5583 3.52923 24.3299 3.52923H17.2209Z" fill="url(#paint1_linear)"/>
<path d="M11.1063 14.9926H3.99723C2.7971 14.9926 1.82007 14.0156 1.82007 12.8155V3.9428C1.82007 2.74267 2.7971 1.76562 3.99723 1.76562H11.1063C12.3064 1.76562 13.2835 2.74267 13.2835 3.9428V12.8155C13.2835 14.0156 12.3064 14.9926 11.1063 14.9926ZM3.99723 3.52923C3.76885 3.52923 3.58367 3.71441 3.58367 3.9428V12.8155C3.58367 13.0438 3.76885 13.229 3.99723 13.229H11.1063C11.3347 13.229 11.5199 13.0438 11.5199 12.8155V3.9428C11.5199 3.71441 11.3347 3.52923 11.1063 3.52923H3.99723Z" fill="url(#paint2_linear)"/>
<path d="M11.1063 26.4576H3.99723C2.7971 26.4576 1.82007 25.4806 1.82007 24.2804V18.935C1.82007 17.7348 2.7971 16.7578 3.99723 16.7578H11.1063C12.3064 16.7578 13.2835 17.7348 13.2835 18.935V24.2804C13.2835 25.4806 12.3064 26.4576 11.1063 26.4576ZM3.99723 18.5214C3.76885 18.5214 3.58367 18.7066 3.58367 18.935V24.2804C3.58367 24.5088 3.76885 24.694 3.99723 24.694H11.1063C11.3347 24.694 11.5199 24.5088 11.5199 24.2804V18.935C11.5199 18.7066 11.3347 18.5214 11.1063 18.5214H3.99723Z" fill="url(#paint3_linear)"/>
<defs>
<linearGradient id="paint0_linear" x1="13.4044" y1="21.2744" x2="22.9734" y2="27.2902" gradientUnits="userSpaceOnUse">
<stop stop-color="#FA926B"/>
<stop offset="1" stop-color="#FA5F6B"/>
</linearGradient>
<linearGradient id="paint1_linear" x1="13.4044" y1="7.66521" x2="21.0997" y2="14.2624" gradientUnits="userSpaceOnUse">
<stop stop-color="#FA926B"/>
<stop offset="1" stop-color="#FA5F6B"/>
</linearGradient>
<linearGradient id="paint2_linear" x1="0.180782" y1="9.81052" x2="9.74976" y2="15.8264" gradientUnits="userSpaceOnUse">
<stop stop-color="#FA926B"/>
<stop offset="1" stop-color="#FA5F6B"/>
</linearGradient>
<linearGradient id="paint3_linear" x1="0.180782" y1="22.6574" x2="7.87611" y2="29.2546" gradientUnits="userSpaceOnUse">
<stop stop-color="#FA926B"/>
<stop offset="1" stop-color="#FA5F6B"/>
</linearGradient>
</defs>
</svg>
