<svg width="28" height="28" viewBox="0 0 28 28" fill="none" xmlns="http://www.w3.org/2000/svg">
<g clip-path="url(#clip0)">
<path d="M7.00513 26.0317C7.00513 26.334 6.7601 26.579 6.45782 26.579C6.15555 26.579 5.91052 26.334 5.91052 26.0317C5.91052 25.7294 6.15555 25.4844 6.45782 25.4844C6.7601 25.4844 7.00513 25.7294 7.00513 26.0317Z" fill="url(#paint0_linear)"/>
<path d="M0.0108435 24.1228C-0.0254723 24.3025 0.0307104 24.4883 0.160166 24.618C1.18491 25.6425 2.4769 26.3223 3.89706 26.5835C4.19464 26.6382 4.47961 26.4415 4.5343 26.1445C4.58899 25.8472 4.39245 25.562 4.09509 25.5071C3.17438 25.3377 2.31711 24.9602 1.57648 24.4024C1.7053 24.3345 2.32224 24.1903 3.17331 23.3405C3.76398 22.7494 4.13568 22.1158 4.49521 21.5029C4.82077 20.9482 5.12817 20.4242 5.57784 19.9745C6.769 18.7825 8.15264 18.6795 9.44761 19.9743C10.5275 21.0556 10.5029 22.789 9.44783 23.844C9.14256 24.1493 8.80547 24.4215 8.44615 24.6528C8.19194 24.8164 8.11867 25.155 8.2823 25.4092C8.44594 25.6632 8.78453 25.7367 9.03874 25.5731C9.46342 25.2997 9.8614 24.9784 10.2218 24.618C11.0968 23.743 11.4907 22.4933 11.2922 21.2844C13.6521 19.4295 16.6612 16.6302 18.8406 14.4511C21.6497 11.6419 24.131 8.83556 25.8275 6.54895C26.653 5.43619 28.7238 2.66423 27.7407 1.68114C26.7579 0.698472 23.9878 2.76719 22.8729 3.59412C20.5863 5.29071 17.78 7.77215 14.9706 10.5813C12.8352 12.7186 10.0819 15.6689 8.2195 18.0247C7.0465 17.7663 5.82159 18.1822 4.80389 19.2005C4.25509 19.7493 3.89728 20.3592 3.55121 20.949C3.21155 21.5279 2.8909 22.0748 2.39957 22.5666C1.59293 23.3717 1.18918 23.3262 0.340677 23.7242C0.170847 23.7934 0.0469457 23.9429 0.0108435 24.1228V24.1228ZM9.27757 18.4531C10.3472 17.1218 11.8269 15.4433 13.4579 13.7121L15.7093 15.9633C13.9687 17.6037 12.2779 19.0931 10.9287 20.1755C10.7467 19.8177 10.5087 19.4878 10.2218 19.2005C9.91822 18.897 9.60249 18.6475 9.27757 18.4531V18.4531ZM15.7446 11.3552C18.3409 8.75887 20.9659 6.41864 23.1361 4.76563C25.5857 2.89964 26.5863 2.5666 26.9108 2.51084C26.8551 2.83534 26.522 3.83594 24.656 6.28555C23.003 8.45574 20.6628 11.0807 18.0666 13.6771C17.5597 14.1838 17.0348 14.6974 16.5023 15.2086L14.2129 12.9192C14.7234 12.3879 15.237 11.863 15.7446 11.3552V11.3552Z" fill="url(#paint1_linear)"/>
</g>
<defs>
<linearGradient id="paint0_linear" x1="5.75399" y1="26.1501" x2="6.5893" y2="26.7561" gradientUnits="userSpaceOnUse">
<stop stop-color="#FA926B"/>
<stop offset="1" stop-color="#FA5F6B"/>
</linearGradient>
<linearGradient id="paint1_linear" x1="-4.00404" y1="16.7312" x2="15.7462" y2="32.6685" gradientUnits="userSpaceOnUse">
<stop stop-color="#FA926B"/>
<stop offset="1" stop-color="#FA5F6B"/>
</linearGradient>
<clipPath id="clip0">
<rect width="28" height="28" fill="white"/>
</clipPath>
</defs>
</svg>
