<svg width="30" height="27" viewBox="0 0 30 27" fill="none" xmlns="http://www.w3.org/2000/svg">
<path d="M25.3059 21.8692C21.0687 27.2069 12.7595 25.8863 10.8335 19.2279C10.7235 18.8977 10.6684 18.5125 10.6134 18.1824C15.0707 17.1919 19.4179 13.9452 19.8031 10.0382C20.1333 6.51643 16.5564 5.4709 14.1902 7.45191C11.3838 9.81811 9.4028 13.2849 9.23772 16.9717C6.37626 17.3568 3.56984 16.5865 2.02905 13.78C-0.557262 9.04772 2.9095 2.66439 7.53185 0.793435C8.0271 0.628351 7.80699 -0.14204 7.31174 0.0230433C0.928493 1.83906 -2.37318 10.7536 1.97403 16.0362C3.67989 18.0723 6.43129 18.7325 9.29274 18.4024C9.67794 22.1443 12.5944 25.1158 16.0611 26.2714C20.0781 27.592 23.765 25.6662 26.1312 22.5295C26.5165 22.0342 25.691 21.429 25.3059 21.8692ZM12.9796 10.7536C13.8601 9.54297 15.0157 8.16727 16.5014 7.67202C17.932 7.17677 18.4274 9.15777 18.4823 10.0382C18.5374 11.1388 17.767 12.1293 17.0516 12.8997C15.5659 14.6055 13.0897 16.0913 10.5584 16.7515C10.7235 14.6055 11.769 12.5145 12.9796 10.7536Z" fill="url(#paint0_linear)"/>
<path d="M28.3911 19.832C26.8503 19.832 25.2545 19.9421 23.7688 20.3273C23.1635 20.4924 23.4386 21.3178 24.044 21.2077C25.2546 20.9876 26.5202 21.0426 27.7309 21.0977C27.6758 21.8129 27.6208 22.5833 27.5107 23.2987C27.4007 23.849 27.0155 24.6744 27.3457 25.2247C27.5107 25.4999 27.7859 25.4999 28.061 25.3898C28.7214 25.1146 28.7214 23.959 28.8314 23.3537C28.9965 22.3631 29.0514 21.4278 29.0514 20.4372C29.0514 20.1072 28.7213 19.832 28.3911 19.832Z" fill="url(#paint1_linear)"/>
<defs>
<linearGradient id="paint0_linear" x1="-3.7511" y1="16.2354" x2="16.5059" y2="30.6755" gradientUnits="userSpaceOnUse">
<stop stop-color="#FA926B"/>
<stop offset="1" stop-color="#FA5F6B"/>
</linearGradient>
<linearGradient id="paint1_linear" x1="22.6258" y1="23.2542" x2="26.9183" y2="26.3654" gradientUnits="userSpaceOnUse">
<stop stop-color="#FA926B"/>
<stop offset="1" stop-color="#FA5F6B"/>
</linearGradient>
</defs>
</svg>
