<svg width="26" height="26" viewBox="0 0 26 26" fill="none" xmlns="http://www.w3.org/2000/svg">
    <path d="M15.6554 24.8194C15.5786 24.8194 15.5004 24.8098 15.4236 24.7886C14.951 24.662 14.6721 24.1741 14.7997 23.7025L20.7087 1.83883C20.8364 1.36492 21.3233 1.08123 21.7961 1.21474C22.2687 1.34134 22.5476 1.82931 22.42 2.30084L16.511 24.1646C16.4045 24.5593 16.0464 24.8194 15.6554 24.8194Z" fill="#C3C9D0" />
    <path d="M4.43272 24.8194C4.3559 24.8194 4.278 24.8098 4.20118 24.7886C3.72835 24.662 3.44941 24.1741 3.57709 23.7025L9.48625 1.83883C9.61371 1.36492 10.1019 1.08123 10.5734 1.21474C11.0463 1.34134 11.325 1.82931 11.1975 2.30084L5.28836 24.1646C5.18189 24.5593 4.82397 24.8194 4.43272 24.8194Z" fill="#C3C9D0" />
    <path d="M22.7501 18.9104H0.886364C0.397089 18.9104 0 18.5133 0 18.024C0 17.5347 0.397089 17.1376 0.886364 17.1376H22.7501C23.2393 17.1376 23.6364 17.5347 23.6364 18.024C23.6364 18.5133 23.2393 18.9104 22.7501 18.9104Z" fill="#C3C9D0" />
    <path d="M25.1112 8.8652H3.24769C2.75842 8.8652 2.36133 8.46811 2.36133 7.97883C2.36133 7.48956 2.75842 7.09247 3.24769 7.09247H25.1112C25.6005 7.09247 25.9975 7.48956 25.9975 7.97883C25.9975 8.46811 25.6005 8.8652 25.1112 8.8652Z" fill="#C3C9D0" />
</svg>