<svg width="24" height="24" viewBox="0 0 24 24" fill="none" xmlns="http://www.w3.org/2000/svg">
<path fill-rule="evenodd" clip-rule="evenodd" d="M1 1.76744C1 1.3436 1.3436 1 1.76744 1H8.58915C9.01299 1 9.35659 1.3436 9.35659 1.76744C9.35659 2.19129 9.01299 2.53488 8.58915 2.53488H2.53488V8.58915C2.53488 9.01299 2.19129 9.35659 1.76744 9.35659C1.3436 9.35659 1 9.01299 1 8.58915V1.76744ZM14.6434 1.76744C14.6434 1.3436 14.987 1 15.4109 1H22.2326C22.6564 1 23 1.3436 23 1.76744V8.58915C23 9.01299 22.6564 9.35659 22.2326 9.35659C21.8087 9.35659 21.4651 9.01299 21.4651 8.58915V2.53488H15.4109C14.987 2.53488 14.6434 2.19129 14.6434 1.76744ZM1.76744 14.6434C2.19129 14.6434 2.53488 14.987 2.53488 15.4109V21.4651L8.58915 21.4651C9.01299 21.4651 9.35659 21.8087 9.35659 22.2326C9.35659 22.6564 9.01299 23 8.58915 23L1.76744 23C1.3436 23 1 22.6564 1 22.2326V15.4109C1 14.987 1.3436 14.6434 1.76744 14.6434ZM22.2326 14.6434C22.6564 14.6434 23 14.987 23 15.4109V22.2326C23 22.6564 22.6564 23 22.2326 23H15.4109C14.987 23 14.6434 22.6564 14.6434 22.2326C14.6434 21.8087 14.987 21.4651 15.4109 21.4651H21.4651V15.4109C21.4651 14.987 21.8087 14.6434 22.2326 14.6434Z" fill="url(#paint0_linear_1718_31202)"/>
<defs>
<linearGradient id="paint0_linear_1718_31202" x1="-2.14603" y1="14.3808" x2="14.6424" y2="26.5592" gradientUnits="userSpaceOnUse">
<stop stop-color="#FA926B"/>
<stop offset="1" stop-color="#FA5F6B"/>
</linearGradient>
</defs>
</svg>
