<svg width="16" height="16" viewBox="0 0 16 16" fill="none" xmlns="http://www.w3.org/2000/svg">
<g clip-path="url(#clip0_753:3898)">
<path d="M0 0.571434V4.57144H1.14287V1.14287H4.57144V0H0.571434C0.255574 0 0 0.255574 0 0.571434H0Z" fill="#C3C9D0"/>
<path d="M15.4287 0H11.4287V1.14287H14.8573V4.57144H16.0002V0.571434C16.0002 0.255574 15.7446 0 15.4287 0V0Z" fill="#C3C9D0"/>
<path d="M14.8573 14.8571H11.4287V16H15.4287C15.7446 16 16.0002 15.7444 16.0002 15.4286V11.4286H14.8573V14.8571Z" fill="#C3C9D0"/>
<path d="M1.14287 11.4286H0V15.4286C0 15.7444 0.255574 16 0.571434 16H4.57144V14.8571H1.14287V11.4286Z" fill="#C3C9D0"/>
</g>
<defs>
<clipPath id="clip0_753:3898">
<rect width="16" height="16" fill="white"/>
</clipPath>
</defs>
</svg>
