<svg width="65" height="65" viewBox="0 0 65 65" fill="none" xmlns="http://www.w3.org/2000/svg">
<g clip-path="url(#clip0_752:2537)">
<path d="M4.37247 57.9494H14.5746V33.1727L0 22.2418V53.5772C0 55.9928 1.95665 57.9496 4.37247 57.9496V57.9494Z" fill="#4285F4"/>
<path d="M49.5532 57.9494H59.7554C62.1711 57.9494 64.1278 55.9927 64.1278 53.577V22.2418L49.5532 33.1727V57.9494Z" fill="#34A853"/>
<path d="M49.5532 14.2251V33.172L64.1278 22.2411V16.4113C64.1278 11.0078 57.9592 7.92167 53.6341 11.1645L49.5532 14.2251Z" fill="#FBBC04"/>
<path fill-rule="evenodd" clip-rule="evenodd" d="M14.5742 33.172V14.2251L32.0636 27.3423L49.553 14.2251V33.172L32.0636 46.2891L14.5742 33.172Z" fill="#EA4335"/>
<path d="M0 16.4117V22.2415L14.5746 33.1724V14.2255L10.4937 11.1649C6.16855 7.92206 0 11.0082 0 16.4115V16.4117Z" fill="#C5221F"/>
</g>
<defs>
<clipPath id="clip0_752:2537">
<rect width="64.1279" height="65" fill="white"/>
</clipPath>
</defs>
</svg>
