<svg width="19" height="18" viewBox="0 0 19 18" fill="none" xmlns="http://www.w3.org/2000/svg">
<path fill-rule="evenodd" clip-rule="evenodd" d="M15.98 9.15314C15.98 8.67451 15.937 8.21428 15.8573 7.77246H9.5V10.3835H13.1327C12.9763 11.2272 12.5007 11.9421 11.7858 12.4208V14.1144H13.9673C15.2436 12.9393 15.98 11.2088 15.98 9.15314Z" fill="#4285F4"/>
<path fill-rule="evenodd" clip-rule="evenodd" d="M9.5 15.7497C11.3225 15.7497 12.8505 15.1453 13.9673 14.1144L11.7858 12.4207C11.1814 12.8257 10.4082 13.0651 9.5 13.0651C7.74193 13.0651 6.25387 11.8777 5.72307 10.2822H3.46796V12.0311C4.57864 14.2371 6.86137 15.7497 9.5 15.7497Z" fill="#34A853"/>
<path fill-rule="evenodd" clip-rule="evenodd" d="M5.72307 10.2826C5.58807 9.87761 5.51136 9.445 5.51136 9.00011C5.51136 8.55523 5.58807 8.12261 5.72307 7.71761V5.96875H3.46795C3.0108 6.88 2.75 7.91091 2.75 9.00011C2.75 10.0893 3.0108 11.1202 3.46795 12.0315L5.72307 10.2826Z" fill="#FBBC05"/>
<path fill-rule="evenodd" clip-rule="evenodd" d="M9.5 4.93466C10.491 4.93466 11.3808 5.27523 12.0803 5.94409L14.0164 4.00807C12.8474 2.91886 11.3194 2.25 9.5 2.25C6.86137 2.25 4.57864 3.76261 3.46796 5.96864L5.72307 7.7175C6.25387 6.12205 7.74193 4.93466 9.5 4.93466Z" fill="#EA4335"/>
</svg>
