<svg width="211" height="19" viewBox="0 0 211 19" fill="none" xmlns="http://www.w3.org/2000/svg">
<path d="M121.949 14.0477L122.367 17.5889H110.081V0.751364H120.758L121.177 4.29251H114.571V7.36296H119.727L120.147 10.9029H114.571V14.0477H121.949Z" fill="#181B25"/>
<path d="M108.438 4.76198C107.83 3.50843 106.929 2.52559 105.736 1.8159C104.543 1.10621 103.108 0.751364 101.431 0.751364H92.3559L93.8322 3.88767V17.5889H101.332C102.894 17.5889 104.284 17.2426 105.502 16.5487C106.719 15.8561 107.664 14.8659 108.34 13.5783C109.014 12.2906 109.351 10.7883 109.351 9.07135C109.351 7.45442 109.046 6.01796 108.438 4.7632M103.689 12.7613C103.006 13.6197 102.123 14.0489 101.036 14.0489H98.323V4.29251H101.21C102.311 4.29251 103.171 4.73515 103.788 5.61678C104.404 6.50085 104.713 7.65196 104.713 9.07135C104.713 10.6724 104.372 11.9028 103.689 12.7613Z" fill="#181B25"/>
<path d="M82.4569 1.14279C81.3281 1.14279 80.4144 2.06222 80.4144 3.19505C80.4144 3.44624 80.4606 3.68647 80.542 3.9084L80.5347 3.91206L83.3317 9.76519L76.8579 8.87868C77.3865 9.32498 77.8543 9.83225 78.2516 10.392C78.7874 11.1492 79.0596 12.0125 79.0596 12.9588C79.0596 13.1051 79.0535 13.2478 79.0414 13.3905L85.4508 13.9526L90.8833 17.7364L93.4434 14.0343L88.0522 10.2786L84.3682 2.46584C84.3305 2.36463 84.2843 2.2683 84.2309 2.17563L84.2224 2.15612H84.2212C83.8664 1.55007 83.2102 1.14279 82.4581 1.14279H82.4569Z" fill="#181B25"/>
<path d="M71.9418 17.9096C71.0694 17.9096 70.0949 17.7779 69.0184 17.5133C67.9407 17.2499 67.0816 16.928 66.4401 16.5475L67.92 13.1551C68.3647 13.4197 68.9771 13.6624 69.7584 13.8855C70.5396 14.1087 71.2274 14.2197 71.8179 14.2197C72.4752 14.2197 73.0026 14.0831 73.3975 13.8112C73.7924 13.538 73.9892 13.238 73.9892 12.9076C73.9892 12.693 73.8446 12.482 73.5566 12.2759C73.2687 12.0699 72.8045 11.776 72.163 11.3967L71.3987 10.9517C70.2796 10.292 69.4084 9.74324 68.7839 9.30547C68.1581 8.86771 67.5992 8.30312 67.1059 7.60928C66.6126 6.91544 66.3659 6.13259 66.3659 5.25706C66.3659 4.33275 66.6248 3.50356 67.1436 2.76826C67.6612 2.03418 68.389 1.46106 69.327 1.04768C70.2651 0.635521 71.3586 0.428223 72.6089 0.428223C73.4643 0.428223 74.3403 0.552602 75.2371 0.80014C76.1325 1.04768 76.9029 1.38667 77.5432 1.8159L76.2103 4.86197C75.3391 4.56444 74.6684 4.36689 74.1994 4.26812C73.7304 4.16813 73.2164 4.11935 72.6575 4.11935C72.1642 4.11935 71.7656 4.2352 71.4607 4.46566C71.1557 4.69735 71.0038 4.97781 71.0038 5.30827C71.0038 5.55581 71.1314 5.7753 71.3865 5.96431C71.6417 6.15454 72.0658 6.40695 72.6575 6.71912L73.5457 7.2142C74.5809 7.80805 75.4448 8.358 76.1362 8.86161C76.8263 9.36522 77.4144 9.96029 77.9004 10.6444C78.3853 11.3285 78.6283 12.1016 78.6283 12.9588C78.6283 13.9173 78.3561 14.766 77.8142 15.5086C77.2723 16.2512 76.4946 16.8377 75.4825 17.2669C74.4716 17.6962 73.2905 17.9108 71.9418 17.9108" fill="#181B25"/>
<path d="M18.3943 7.35931H24.7296V0.82087H29.1184V17.7608H24.7296V10.8188H18.3943V17.7608H14.0068V0.82087H18.3943V7.35931Z" fill="#181B25"/>
<path d="M40.2665 11.448L38.4755 6.05576H38.4305L36.6177 11.448H40.2665ZM41.4536 14.8172H35.4087L34.2447 17.7608H29.5886L36.0806 0.82087H40.8716L47.23 17.7608H42.5508L41.4536 14.8172Z" fill="#181B25"/>
<path d="M52.1084 0.82087H47.7208V17.7608H52.1084V0.82087Z" fill="#181B25"/>
<path d="M57.1765 8.41531H57.6018C57.6759 8.42994 57.7512 8.43726 57.8253 8.43726H58.027C58.6832 8.40677 59.2846 8.25435 59.829 7.97632C60.3745 7.69952 60.6467 7.14957 60.6467 6.32525C60.6467 5.50094 60.3745 4.93635 59.829 4.65589C59.2834 4.37543 58.6832 4.22056 58.027 4.19008H57.1765V8.41531ZM61.5191 10.8188L66.8252 17.7608H61.3624L57.2215 11.2455H57.1765V17.7608H52.7889V0.82087H59.349C61.0209 0.835503 62.4158 1.25986 63.5349 2.09027C64.6539 2.9219 65.2141 4.24373 65.2141 6.05576C65.2141 7.22395 64.8969 8.26045 64.2627 9.16768C63.6284 10.0737 62.7147 10.6322 61.5203 10.8419V10.82L61.5191 10.8188Z" fill="#181B25"/>
<path d="M11.0846 13.5136C10.4382 13.8356 9.77839 13.9965 9.10282 13.9965C7.83309 13.9965 6.78572 13.56 5.96191 12.6881C5.14539 11.8004 4.73714 10.6895 4.73714 9.35425C4.73714 8.90673 4.78088 8.46408 4.86715 8.02876C4.95342 7.59221 5.08464 7.202 5.25839 6.85691C5.43215 6.51182 5.65936 6.18014 5.93882 5.86188C6.75534 4.97416 7.81 4.53029 9.10282 4.53029C9.78811 4.53029 10.4503 4.68516 11.0919 4.99367L12.9035 1.55617C12.2267 1.22937 11.5232 0.969637 10.7954 0.774533C10.0469 0.607475 9.33004 0.524555 8.64232 0.524555C7.44184 0.524555 6.34951 0.725757 5.36775 1.12816C4.3787 1.52325 3.48685 2.12929 2.69342 2.94873C2.23291 3.43405 1.85625 3.9023 1.56585 4.3547C1.27545 4.80588 1.03487 5.2851 0.846538 5.79481C0.423699 6.84594 0.21228 8.00315 0.21228 9.26157C0.21228 10.8322 0.536699 12.2625 1.18554 13.5514C1.83438 14.7952 2.77604 15.8427 4.01297 16.6926C4.63264 17.1328 5.33616 17.4608 6.12108 17.6779C6.90722 17.8937 7.74682 18.0022 8.63867 18.0022C9.34219 18.0022 10.0591 17.9145 10.793 17.7401C11.375 17.612 12.0797 17.356 12.9059 16.9682L11.0858 13.5124L11.0846 13.5136Z" fill="#181B25"/>
<path d="M152.626 8.87957C153.249 7.99113 153.561 6.97355 153.561 5.82802C153.561 4.04994 153.01 2.75494 151.911 1.93944C150.811 1.12514 149.439 0.709017 147.797 0.694668H141.35V17.306H145.662V10.9171H145.706L149.776 17.306H155.144L149.944 10.5177C151.111 10.3097 152.004 9.76442 152.625 8.87957H152.626ZM148.27 7.71132C147.734 7.98276 147.144 8.13342 146.499 8.16332H146.301C146.228 8.16332 145.663 8.14179 145.663 8.14179V3.99972H146.499C147.144 4.02961 147.735 4.18147 148.27 4.45649C148.805 4.73152 149.073 5.27678 149.073 6.09348C149.073 6.91017 148.806 7.44109 148.27 7.71252V7.71132Z" fill="#FC5E64"/>
<path d="M169.87 5.59745C169.684 5.09882 169.448 4.62769 169.163 4.18527C168.877 3.74284 168.507 3.28248 168.055 2.80657C167.536 2.27207 166.975 1.83323 166.372 1.48287C166.143 1.35014 165.908 1.23057 165.666 1.12415C165.228 0.948373 164.782 0.796513 164.322 0.674547C163.701 0.537036 163.103 0.45692 162.524 0.435397C162.42 0.43181 162.208 0.428223 162.207 0.428223C162.206 0.428223 161.993 0.43181 161.891 0.435397C161.313 0.45692 160.713 0.53584 160.092 0.674547C159.634 0.796513 159.186 0.948373 158.748 1.12415C158.507 1.23057 158.271 1.35014 158.042 1.48287C157.439 1.83323 156.878 2.27207 156.36 2.80657C155.907 3.28248 155.537 3.74164 155.252 4.18527C154.965 4.62769 154.73 5.09762 154.545 5.59745C154.129 6.63177 153.921 7.76653 153.921 9.00055C153.921 10.5407 154.24 11.9433 154.878 13.2084C155.515 14.4281 156.442 15.4552 157.656 16.2886C157.778 16.3747 157.904 16.4548 158.031 16.5326C158.126 16.59 158.221 16.645 158.319 16.6976C159.002 17.0013 159.593 17.207 160.094 17.317C160.812 17.488 161.517 17.5729 162.207 17.5741C162.896 17.5741 163.601 17.488 164.321 17.317C164.821 17.2082 165.412 17.0013 166.095 16.6976C166.193 16.645 166.288 16.59 166.383 16.5326C166.511 16.4548 166.636 16.3747 166.758 16.2886C167.973 15.4552 168.9 14.4292 169.536 13.2084C170.174 11.9433 170.493 10.5419 170.493 9.00055C170.493 7.76534 170.285 6.63057 169.87 5.59745ZM164.842 12.3606C164.835 12.3678 164.828 12.3761 164.821 12.3833C163.404 13.8613 161.012 13.8613 159.594 12.3833C159.587 12.3761 159.58 12.369 159.573 12.3606C158.77 11.4901 158.369 10.4008 158.369 9.09143C158.369 8.65259 158.412 8.21853 158.497 7.79164C158.582 7.36357 158.711 6.98093 158.882 6.64253C159.052 6.30413 159.276 5.97889 159.55 5.6656C159.557 5.65843 159.565 5.65006 159.572 5.64288C160.989 4.12667 163.426 4.12667 164.844 5.64288C164.851 5.65006 164.858 5.65843 164.865 5.6656C165.14 5.97769 165.363 6.30413 165.534 6.64253C165.705 6.98093 165.832 7.36476 165.918 7.79164C166.004 8.21972 166.046 8.65259 166.046 9.09143C166.046 10.4008 165.645 11.4913 164.842 12.3606Z" fill="#FC5E64"/>
<path d="M139.094 1.93944C137.995 1.12514 136.623 0.709017 134.981 0.694668H127.079L128.534 3.77014V17.306H132.847V10.9327H134.981C136.004 10.9231 137.015 10.6768 137.843 10.336C138.313 10.1782 138.729 9.95096 139.09 9.65681C139.111 9.64126 139.603 9.17372 139.81 8.87957C140.388 8.0557 140.697 7.12062 140.74 6.07554C140.742 5.98945 140.745 5.90216 140.745 5.81367C140.745 5.72519 140.742 5.6379 140.74 5.5518C140.685 3.91602 140.137 2.7107 139.096 1.93825L139.094 1.93944ZM135.454 7.71132C134.917 7.98276 134.328 8.13342 133.683 8.16332H133.485C133.412 8.16332 132.847 8.14179 132.847 8.14179V3.99972H133.683C134.328 4.02961 134.919 4.18147 135.454 4.45649C135.925 4.69923 136.189 5.15122 136.245 5.81486C136.252 5.90454 136.257 5.99662 136.257 6.09348C136.257 6.9018 135.99 7.44109 135.454 7.71252V7.71132Z" fill="#FC5E64"/>
<path d="M173.208 18V15.8862C174.491 14.9139 175.621 14.0226 176.601 13.2123C177.58 12.395 178.419 11.6516 179.116 10.9823C179.821 10.3059 180.395 9.68582 180.839 9.12215C181.29 8.55848 181.621 8.04412 181.832 7.57909C182.044 7.10702 182.15 6.66665 182.15 6.25799C182.15 5.82114 182.044 5.41952 181.832 5.05313C181.628 4.68675 181.346 4.39434 180.987 4.17592C180.628 3.95045 180.215 3.83771 179.75 3.83771C179.321 3.83771 178.922 3.95045 178.556 4.17592C178.19 4.39434 177.852 4.73607 177.541 5.2011C177.239 5.65908 176.953 6.24389 176.685 6.95553L173.293 5.30679C173.561 4.49651 173.902 3.77782 174.318 3.15074C174.741 2.5166 175.237 1.98464 175.808 1.55484C176.386 1.11799 177.024 0.786834 177.721 0.561364C178.426 0.335895 179.187 0.223161 180.004 0.223161C181.286 0.223161 182.417 0.480337 183.397 0.994688C184.383 1.50199 185.155 2.19954 185.711 3.08732C186.268 3.97511 186.546 4.98972 186.546 6.13116C186.546 6.68779 186.469 7.24089 186.314 7.79047C186.166 8.33301 185.937 8.87202 185.627 9.40751C185.317 9.943 184.922 10.482 184.443 11.0245C183.971 11.5671 183.407 12.1202 182.752 12.6839C182.104 13.2475 181.357 13.8218 180.511 14.4066H186.863V18H173.208ZM190.343 18.3382C189.885 18.3382 189.465 18.2255 189.085 18C188.712 17.7816 188.412 17.4856 188.187 17.1122C187.968 16.7317 187.859 16.3125 187.859 15.8545C187.859 15.3965 187.968 14.9808 188.187 14.6074C188.412 14.2269 188.712 13.9275 189.085 13.709C189.465 13.4836 189.885 13.3708 190.343 13.3708C190.801 13.3708 191.216 13.4836 191.59 13.709C191.97 13.9275 192.27 14.2269 192.488 14.6074C192.714 14.9808 192.826 15.3965 192.826 15.8545C192.826 16.3125 192.714 16.7317 192.488 17.1122C192.27 17.4856 191.97 17.7816 191.59 18C191.216 18.2255 190.801 18.3382 190.343 18.3382ZM200.785 18.3382C199.361 18.3382 198.107 17.9577 197.022 17.1968C195.944 16.4358 195.102 15.3754 194.496 14.0155C193.897 12.6557 193.598 11.0809 193.598 9.29125C193.598 7.50159 193.897 5.92683 194.496 4.56697C195.102 3.2071 195.944 2.14669 197.022 1.38574C198.107 0.624778 199.361 0.244298 200.785 0.244298C202.215 0.244298 203.469 0.624778 204.547 1.38574C205.625 2.14669 206.464 3.2071 207.062 4.56697C207.668 5.92683 207.971 7.50159 207.971 9.29125C207.971 11.0809 207.668 12.6557 207.062 14.0155C206.464 15.3754 205.625 16.4358 204.547 17.1968C203.469 17.9577 202.215 18.3382 200.785 18.3382ZM200.785 14.7554C201.391 14.7554 201.908 14.5405 202.338 14.1107C202.768 13.6738 203.099 13.0467 203.332 12.2294C203.564 11.4121 203.68 10.4327 203.68 9.29125C203.68 8.14277 203.564 7.16339 203.332 6.35311C203.099 5.53578 202.768 4.91222 202.338 4.48242C201.908 4.04557 201.391 3.82715 200.785 3.82715C200.186 3.82715 199.668 4.04557 199.231 4.48242C198.801 4.91222 198.47 5.53578 198.237 6.35311C198.012 7.16339 197.899 8.14277 197.899 9.29125C197.899 10.4327 198.012 11.4121 198.237 12.2294C198.47 13.0467 198.801 13.6738 199.231 14.1107C199.668 14.5405 200.186 14.7554 200.785 14.7554Z" fill="#FC5E64"/>
</svg>
