<svg width="22" height="20" viewBox="0 0 22 20" fill="none" xmlns="http://www.w3.org/2000/svg">
<path fill-rule="evenodd" clip-rule="evenodd" d="M17.5501 14.3574C17.7277 14.0504 18.1206 13.9456 18.4275 14.1231C18.7344 14.3007 18.8393 14.6935 18.6618 15.0005C16.9277 17.9982 13.6884 20 10 20C4.4725 20 0 15.527 0 10C0 4.4725 4.47297 0 10 0C13.6869 0 16.9269 2.0004 18.6617 4.99942C18.8393 5.3064 18.7344 5.69924 18.4274 5.87681C18.1206 6.05425 17.7276 5.9495 17.55 5.64248C16.0426 3.03652 13.2242 1.28427 10 1.28427C5.19415 1.28427 1.28427 5.19415 1.28427 10C1.28427 14.8058 5.19415 18.7157 10 18.7157C13.2221 18.7157 16.0417 16.9651 17.5501 14.3574ZM19.3012 7.82182L21.6463 9.47514C22.0115 9.73318 22.0043 10.2725 21.6462 10.5248L19.301 12.1781C18.8793 12.4754 18.2889 12.176 18.2889 11.6533V10.6421H7.02885C6.67423 10.6421 6.38669 10.3547 6.38669 10C6.38669 9.64534 6.67423 9.35784 7.02885 9.35784H18.289V8.34664C18.289 7.8273 18.8763 7.52229 19.3012 7.82182Z" fill="url(#paint0_linear)"/>
<defs>
<linearGradient id="paint0_linear" x1="-3.13423" y1="12.1644" x2="12.5076" y2="24.5988" gradientUnits="userSpaceOnUse">
<stop stop-color="#FA926B"/>
<stop offset="1" stop-color="#FA5F6B"/>
</linearGradient>
</defs>
</svg>
