<svg width="24" height="25" viewBox="0 0 24 25" fill="none" xmlns="http://www.w3.org/2000/svg">
<path fill-rule="evenodd" clip-rule="evenodd" d="M14.7775 3.41511C12.859 2.82855 10.804 2.86442 8.9071 3.51757C7.0102 4.17073 5.36877 5.40764 4.21806 7.05102C3.06735 8.69441 2.46643 10.6599 2.50145 12.6658C2.53646 14.6717 3.2056 16.615 4.41296 18.2172C5.62033 19.8195 7.30393 20.9983 9.22247 21.5849C11.141 22.1715 13.196 22.1356 15.0929 21.4824C16.9898 20.8293 18.6312 19.5924 19.7819 17.949C20.0195 17.6097 20.4872 17.5272 20.8265 17.7648C21.1658 18.0024 21.2483 18.47 21.0107 18.8093C19.6783 20.7122 17.7777 22.1444 15.5813 22.9007C13.3848 23.657 11.0054 23.6985 8.78391 23.0194C6.56244 22.3402 4.61301 20.9752 3.21501 19.12C1.81701 17.2648 1.04222 15.0146 1.00168 12.692C0.961135 10.3694 1.65693 8.09353 2.98933 6.19066C4.32173 4.28779 6.22234 2.85558 8.41875 2.0993C10.6152 1.34301 12.9946 1.30148 15.2161 1.98065C17.4376 2.65982 19.387 4.02483 20.785 5.88004C21.0343 6.21084 20.9682 6.68109 20.6374 6.93037C20.3066 7.17965 19.8363 7.11356 19.587 6.78276C18.3797 5.18053 16.6961 4.00166 14.7775 3.41511Z" fill="#E6E6E6"/>
<path fill-rule="evenodd" clip-rule="evenodd" d="M8.25 12.5C8.25 12.0858 8.58579 11.75 9 11.75L21 11.75C21.4142 11.75 21.75 12.0858 21.75 12.5C21.75 12.9142 21.4142 13.25 21 13.25L9 13.25C8.58579 13.25 8.25 12.9142 8.25 12.5Z" fill="#E6E6E6"/>
<path d="M22.8012 12.1501C23.0663 12.3165 23.0663 12.6835 22.8012 12.8499L18.6942 15.4287C18.3975 15.615 18 15.4146 18 15.0787V9.92128C18 9.58537 18.3975 9.38501 18.6942 9.57134L22.8012 12.1501Z" fill="#E6E6E6"/>
</svg>
