<svg width="61" height="48" viewBox="0 0 61 48" fill="none" xmlns="http://www.w3.org/2000/svg">
<g filter="url(#filter0_d_838:2578)">
<rect x="10.2993" y="10.2993" width="41.3103" height="28.1389" rx="3.29285" fill="white" stroke="#D9D9D9" stroke-width="0.5987"/>
<path fill-rule="evenodd" clip-rule="evenodd" d="M31.1908 30.812C29.764 32.0432 27.9133 32.7864 25.891 32.7864C21.3784 32.7864 17.7202 29.0857 17.7202 24.5208C17.7202 19.9558 21.3784 16.2551 25.891 16.2551C27.9135 16.2551 29.7644 16.9985 31.1912 18.2298C32.6179 16.9987 34.4686 16.2555 36.4909 16.2555C41.0035 16.2555 44.6617 19.9561 44.6617 24.5211C44.6617 29.0861 41.0035 32.7867 36.4909 32.7867C34.4684 32.7867 32.6176 32.0434 31.1908 30.812Z" fill="#ED0006"/>
<path fill-rule="evenodd" clip-rule="evenodd" d="M31.1913 30.8125C32.9481 29.2964 34.062 27.0405 34.062 24.5215C34.062 22.0024 32.9481 19.7466 31.1913 18.2305C32.6182 16.9992 34.469 16.2559 36.4914 16.2559C41.004 16.2559 44.6622 19.9565 44.6622 24.5215C44.6622 29.0865 41.004 32.7871 36.4914 32.7871C34.469 32.7871 32.6182 32.0438 31.1913 30.8125Z" fill="#F9A000"/>
<path fill-rule="evenodd" clip-rule="evenodd" d="M31.1913 30.8124C32.948 29.2963 34.062 27.0405 34.062 24.5214C34.062 22.0024 32.948 19.7465 31.1913 18.2305C29.4346 19.7465 28.3206 22.0024 28.3206 24.5214C28.3206 27.0405 29.4346 29.2963 31.1913 30.8124Z" fill="#FF5E00"/>
</g>
<defs>
<filter id="filter0_d_838:2578" x="0.948969" y="0.948969" width="60.0111" height="46.8396" filterUnits="userSpaceOnUse" color-interpolation-filters="sRGB">
<feFlood flood-opacity="0" result="BackgroundImageFix"/>
<feColorMatrix in="SourceAlpha" type="matrix" values="0 0 0 0 0 0 0 0 0 0 0 0 0 0 0 0 0 0 127 0" result="hardAlpha"/>
<feOffset/>
<feGaussianBlur stdDeviation="4.52552"/>
<feColorMatrix type="matrix" values="0 0 0 0 0 0 0 0 0 0 0 0 0 0 0 0 0 0 0.08 0"/>
<feBlend mode="normal" in2="BackgroundImageFix" result="effect1_dropShadow_838:2578"/>
<feBlend mode="normal" in="SourceGraphic" in2="effect1_dropShadow_838:2578" result="shape"/>
</filter>
</defs>
</svg>
