<svg width="64" height="67" viewBox="0 0 64 67" fill="none" xmlns="http://www.w3.org/2000/svg">
<path fill-rule="evenodd" clip-rule="evenodd" d="M0 8.14739L37.5381 0.89666L37.4078 65.995L0 58.2323V8.14739ZM13.3101 41.9531C10.4712 38.6302 9.68005 33.4086 11.039 29.0712C12.9284 23.0398 17.7219 21.0014 21.7336 22.3975C24.0233 23.198 26.0617 25.1247 27.1507 28.0753C27.6719 29.49 27.9511 31.1096 27.9698 32.757C28.007 35.7169 26.9831 39.198 24.954 41.6273C21.836 45.3504 16.5492 45.732 13.3194 41.9531H13.3101ZM16.2327 38.7978C14.8365 36.7221 14.4549 33.4644 15.1158 30.7559C16.0372 26.9956 18.3921 25.7204 20.356 26.5953C21.4823 27.0979 22.4782 28.2986 23.0087 30.1416C23.26 31.0258 23.3997 32.031 23.409 33.0642C23.4276 34.9071 22.925 37.0851 21.929 38.6023C20.4026 40.9292 17.815 41.1619 16.2327 38.8071V38.7978ZM39.986 14.6163H61.7755C62.9948 14.6163 63.9907 15.6122 63.9907 16.8315V17.632L46.8645 29.1829C46.6411 29.3318 46.0919 29.76 45.6358 30.0485C44.9657 30.486 44.9191 30.4022 44.2118 30.002C43.1227 29.397 41.2426 28.1125 39.9767 27.2376V14.6163H39.986ZM64 22.7605V46.0671C64 47.9287 62.4735 49.4644 60.6027 49.4644H39.986V32.2265C41.224 33.0456 42.8714 34.1253 43.886 34.7489C44.7051 35.2515 44.854 35.4842 45.7661 34.9537C46.185 34.7117 46.5945 34.3952 46.8738 34.2091L64 22.7698V22.7605Z" fill="#0072C6"/>
</svg>
