<svg width="61" height="48" viewBox="0 0 61 48" fill="none" xmlns="http://www.w3.org/2000/svg">
<g filter="url(#filter0_d_838:2569)">
<rect x="9.39017" y="10.2993" width="41.3103" height="28.1389" rx="3.29285" fill="white" stroke="#D9D9D9" stroke-width="0.5987"/>
<path fill-rule="evenodd" clip-rule="evenodd" d="M21.8138 29.4683H19.2749L17.371 22.205C17.2807 21.8709 17.0888 21.5755 16.8066 21.4363C16.1022 21.0865 15.3261 20.8081 14.4794 20.6676V20.388H18.5693C19.1338 20.388 19.5571 20.8081 19.6277 21.2959L20.6155 26.5352L23.1531 20.388H25.6214L21.8138 29.4683ZM27.0323 29.4683H24.6346L26.609 20.388H29.0067L27.0323 29.4683ZM32.1089 22.9034C32.1795 22.4143 32.6028 22.1347 33.0968 22.1347C33.8729 22.0645 34.7184 22.2049 35.424 22.5536L35.8473 20.5985C35.1417 20.3189 34.3656 20.1785 33.6612 20.1785C31.334 20.1785 29.6406 21.4362 29.6406 23.1818C29.6406 24.5098 30.8401 25.2071 31.6868 25.6271C32.6028 26.046 32.9556 26.3256 32.8851 26.7445C32.8851 27.3727 32.1795 27.6524 31.4751 27.6524C30.6284 27.6524 29.7817 27.443 29.0068 27.0931L28.5835 29.0493C29.4302 29.398 30.3462 29.5384 31.1929 29.5384C33.8023 29.6074 35.424 28.3509 35.424 26.4648C35.424 24.0897 32.1089 23.9505 32.1089 22.9034V22.9034ZM43.8156 29.4683L41.9117 20.388H39.8668C39.4434 20.388 39.0201 20.6676 38.8789 21.0865L35.3535 29.4683H37.8218L38.3145 28.1415H41.3473L41.6295 29.4683H43.8156ZM40.2196 22.8333L40.9239 26.2555H38.9495L40.2196 22.8333Z" fill="#172B85"/>
</g>
<defs>
<filter id="filter0_d_838:2569" x="0.0397892" y="0.948969" width="60.0111" height="46.8396" filterUnits="userSpaceOnUse" color-interpolation-filters="sRGB">
<feFlood flood-opacity="0" result="BackgroundImageFix"/>
<feColorMatrix in="SourceAlpha" type="matrix" values="0 0 0 0 0 0 0 0 0 0 0 0 0 0 0 0 0 0 127 0" result="hardAlpha"/>
<feOffset/>
<feGaussianBlur stdDeviation="4.52552"/>
<feColorMatrix type="matrix" values="0 0 0 0 0 0 0 0 0 0 0 0 0 0 0 0 0 0 0.08 0"/>
<feBlend mode="normal" in2="BackgroundImageFix" result="effect1_dropShadow_838:2569"/>
<feBlend mode="normal" in="SourceGraphic" in2="effect1_dropShadow_838:2569" result="shape"/>
</filter>
</defs>
</svg>
