<svg width="16" height="15" viewBox="0 0 16 15" fill="none" xmlns="http://www.w3.org/2000/svg">
<path d="M13.2788 0.603812C12.4723 -0.201271 11.1663 -0.201271 10.3598 0.603812L9.6291 1.33851L1.8509 9.11259L1.83437 9.12925C1.83036 9.13325 1.83036 9.13751 1.8261 9.13751C1.81784 9.14991 1.80544 9.16218 1.7973 9.17457C1.7973 9.17871 1.79304 9.17871 1.79304 9.18284C1.78478 9.19524 1.78077 9.2035 1.77238 9.2159C1.76837 9.22003 1.76837 9.22404 1.76424 9.2283C1.76011 9.2407 1.75598 9.24896 1.75172 9.26136C1.75172 9.26536 1.74771 9.26536 1.74771 9.26963L0.0219619 14.4591C-0.0286625 14.6069 0.00982237 14.7705 0.121015 14.8802C0.199147 14.9573 0.304529 15.0004 0.414172 15C0.458985 14.9992 0.50341 14.9922 0.546286 14.9793L5.7318 13.2495C5.7358 13.2495 5.7358 13.2495 5.74007 13.2454C5.75311 13.2416 5.76564 13.236 5.77713 13.2288C5.78036 13.2284 5.7832 13.227 5.78552 13.2248C5.79779 13.2165 5.81432 13.2081 5.82672 13.1999C5.83899 13.1917 5.85152 13.1793 5.86391 13.1711C5.86805 13.1668 5.87205 13.1668 5.87205 13.1628C5.87631 13.1587 5.88458 13.1547 5.88871 13.1463L14.3976 4.63736C15.2027 3.83086 15.2027 2.52483 14.3976 1.71845L13.2788 0.603812ZM5.59969 12.2792L2.72623 9.40587L9.91813 2.21398L12.7916 5.0873L5.59969 12.2792ZM2.3215 10.1696L4.8318 12.6798L1.06235 13.9348L2.3215 10.1696ZM13.8156 4.05932L13.3779 4.50112L10.5043 1.62754L10.9462 1.18586C11.4296 0.702866 12.2131 0.702866 12.6967 1.18586L13.8196 2.30877C14.2993 2.79435 14.2975 3.57606 13.8156 4.05932Z" fill="#C3C9D0"/>
</svg>
