<svg width="24" height="25" viewBox="0 0 24 25" fill="none" xmlns="http://www.w3.org/2000/svg">
<g clip-path="url(#clip0_1718_31095)">
<path d="M21.8594 5.31585H16.4852L16.2189 3.48725C16.1024 2.68757 15.4051 2.08447 14.597 2.08447H9.40308C8.59491 2.08447 7.89764 2.68757 7.78116 3.48735L7.51486 5.31585H2.14064C0.960281 5.31585 0 6.27613 0 7.45644V20.7747C0 21.955 0.960281 22.9153 2.14064 22.9153H21.8594C23.0397 22.9153 24 21.955 24 20.7747V7.45644C24 6.27613 23.0397 5.31585 21.8594 5.31585ZM9.17822 3.69079C9.19434 3.57988 9.29105 3.49625 9.40313 3.49625H14.597C14.7091 3.49625 14.8058 3.57993 14.8219 3.69079L15.0586 5.31585H8.94155L9.17822 3.69079ZM22.5883 20.7747C22.5883 21.1766 22.2613 21.5036 21.8594 21.5036H2.14064C1.73873 21.5036 1.41173 21.1766 1.41173 20.7747V14.046C2.03292 14.5313 2.81344 14.8216 3.66103 14.8216H9.17634V15.5118C9.17634 15.7725 9.32002 16.012 9.55003 16.1346L11.6678 17.264C11.7716 17.3194 11.8858 17.3471 12 17.3471C12.1142 17.3471 12.2284 17.3194 12.3322 17.264L14.45 16.1346C14.68 16.0119 14.8237 15.7725 14.8237 15.5118V14.8216H20.339C21.1865 14.8216 21.9671 14.5313 22.5883 14.046V20.7747V20.7747ZM10.5881 15.0883V13.0491H13.4119V15.0883L12 15.8413L10.5881 15.0883ZM22.5883 11.1606C22.5883 12.4008 21.5792 13.4098 20.339 13.4098H14.8237V12.3432C14.8237 11.9533 14.5076 11.6373 14.1178 11.6373H9.88223C9.49242 11.6373 9.17634 11.9533 9.17634 12.3432V13.4098H3.66103C2.42077 13.4099 1.41173 12.4009 1.41173 11.1606V7.45644C1.41173 7.10479 1.66209 6.8105 1.99387 6.74244C2.04127 6.73269 2.09034 6.72763 2.14059 6.72763H21.8594C21.9096 6.72763 21.9586 6.73274 22.006 6.74244C22.3379 6.81055 22.5882 7.10483 22.5882 7.45644V11.1606H22.5883Z" fill="#E6E6E6"/>
</g>
<defs>
<clipPath id="clip0_1718_31095">
<rect width="24" height="24" fill="white" transform="translate(0 0.5)"/>
</clipPath>
</defs>
</svg>
