<svg width="26" height="26" viewBox="0 0 26 26" fill="none" xmlns="http://www.w3.org/2000/svg">
<path d="M5 13H9M17 13V17M13 21H17M13 13.0147L13.0133 13M21 13.0147L21.0133 13M13 17.0147L13.0133 17M21 17.0147L21.0133 17M21 21.0147L21.0133 21M13 9.01467L13.0133 9M13 5.01467L13.0133 5M21 1H25V5M21 25H25V21M5 1H1V5M5 25H1V21M9 5.8V8.2C9 8.41217 8.91572 8.61566 8.76569 8.76569C8.61566 8.91572 8.41217 9 8.2 9H5.8C5.58783 9 5.38434 8.91572 5.23431 8.76569C5.08429 8.61566 5 8.41217 5 8.2V5.8C5 5.58783 5.08429 5.38434 5.23431 5.23431C5.38434 5.08429 5.58783 5 5.8 5H8.2C8.41217 5 8.61566 5.08429 8.76569 5.23431C8.91572 5.38434 9 5.58783 9 5.8ZM9 17.8V20.2C9 20.4122 8.91572 20.6157 8.76569 20.7657C8.61566 20.9157 8.41217 21 8.2 21H5.8C5.58783 21 5.38434 20.9157 5.23431 20.7657C5.08429 20.6157 5 20.4122 5 20.2V17.8C5 17.5878 5.08429 17.3843 5.23431 17.2343C5.38434 17.0843 5.58783 17 5.8 17H8.2C8.41217 17 8.61566 17.0843 8.76569 17.2343C8.91572 17.3843 9 17.5878 9 17.8ZM21 5.8V8.2C21 8.41217 20.9157 8.61566 20.7657 8.76569C20.6157 8.91572 20.4122 9 20.2 9H17.8C17.5878 9 17.3843 8.91572 17.2343 8.76569C17.0843 8.61566 17 8.41217 17 8.2V5.8C17 5.58783 17.0843 5.38434 17.2343 5.23431C17.3843 5.08429 17.5878 5 17.8 5H20.2C20.4122 5 20.6157 5.08429 20.7657 5.23431C20.9157 5.38434 21 5.58783 21 5.8Z" stroke="#191C20" stroke-width="1.5" stroke-linecap="round" stroke-linejoin="round"/>
</svg>
