<svg width="17" height="17" viewBox="0 0 17 17" fill="none" xmlns="http://www.w3.org/2000/svg">
<path d="M14.9111 6.375H14.8431C14.7435 6.37412 14.6464 6.34324 14.5645 6.28639C14.4826 6.22953 14.4198 6.14934 14.3841 6.05625C14.3466 5.96636 14.3367 5.86735 14.3556 5.7718C14.3745 5.67625 14.4214 5.58849 14.4904 5.51969L14.5387 5.47134C14.8301 5.17881 14.9938 4.78272 14.9938 4.3698C14.9938 3.95688 14.8301 3.56079 14.5387 3.26825L13.736 2.46606C13.4437 2.17442 13.0476 2.01063 12.6347 2.01063C12.2218 2.01063 11.8257 2.17442 11.5334 2.46606L11.4851 2.51441C11.4139 2.583 11.3242 2.62931 11.227 2.64765C11.1298 2.66599 11.0294 2.65557 10.9381 2.61766C10.8468 2.57975 10.7685 2.51601 10.7129 2.43425C10.6573 2.35249 10.6267 2.25627 10.625 2.15741V2.08887C10.6246 1.6759 10.4603 1.27995 10.1683 0.987934C9.8763 0.695914 9.48035 0.531672 9.06738 0.53125H7.93263C7.51965 0.531672 7.1237 0.695914 6.83168 0.987934C6.53966 1.27995 6.37542 1.6759 6.375 2.08887V2.15741C6.37241 2.25556 6.34142 2.35087 6.28579 2.43178C6.23015 2.51269 6.15225 2.57574 6.06152 2.61329C5.97079 2.65084 5.87112 2.66128 5.77458 2.64336C5.67804 2.62543 5.58876 2.5799 5.51756 2.51228L5.47188 2.46394C5.17957 2.17229 4.78351 2.0085 4.37059 2.0085C3.95768 2.0085 3.56162 2.17229 3.26931 2.46394L2.46394 3.26612C2.17252 3.55866 2.0089 3.95475 2.0089 4.36767C2.0089 4.78059 2.17252 5.17668 2.46394 5.46922L2.51228 5.51756C2.5819 5.58879 2.6285 5.67931 2.64603 5.77736C2.66355 5.87541 2.6512 5.97647 2.61056 6.06741C2.57411 6.15798 2.51147 6.23563 2.43065 6.29043C2.34983 6.34522 2.25451 6.37466 2.15688 6.375H2.08887C1.6759 6.37542 1.27995 6.53966 0.987934 6.83168C0.695914 7.1237 0.531672 7.51965 0.53125 7.93263V9.06738C0.531672 9.48035 0.695914 9.8763 0.987934 10.1683C1.27995 10.4603 1.6759 10.6246 2.08887 10.625H2.15688C2.25655 10.6259 2.35364 10.6568 2.43551 10.7136C2.51739 10.7705 2.58023 10.8507 2.61587 10.9438C2.6534 11.0336 2.66333 11.1327 2.64441 11.2282C2.62549 11.3238 2.57857 11.4115 2.50962 11.4803L2.46128 11.5287C2.16986 11.8212 2.00624 12.2173 2.00624 12.6302C2.00624 13.0431 2.16986 13.4392 2.46128 13.7317L3.26347 14.5334C3.55573 14.8253 3.95193 14.9893 4.36502 14.9893C4.77811 14.9893 5.1743 14.8253 5.46656 14.5334L5.51491 14.4851C5.58618 14.4155 5.67669 14.3689 5.77472 14.3514C5.87276 14.3339 5.9738 14.3462 6.06475 14.3868C6.15533 14.4231 6.233 14.4856 6.2878 14.5663C6.34261 14.6471 6.37204 14.7424 6.37234 14.8399V14.9085C6.3722 15.1134 6.41247 15.3164 6.49083 15.5057C6.56919 15.6951 6.68411 15.8672 6.82903 16.0121C6.97394 16.157 7.146 16.2719 7.33537 16.3503C7.52473 16.4286 7.72769 16.4689 7.93263 16.4688H9.06738C9.48035 16.4683 9.8763 16.3041 10.1683 16.0121C10.4603 15.72 10.6246 15.3241 10.625 14.9111V14.8426C10.6276 14.7444 10.6586 14.6491 10.7142 14.5682C10.7699 14.4873 10.8477 14.4243 10.9385 14.3867C11.0292 14.3492 11.1289 14.3387 11.2254 14.3566C11.322 14.3746 11.4112 14.4201 11.4824 14.4877L11.5308 14.5361C11.8231 14.8277 12.2191 14.9915 12.6321 14.9915C13.045 14.9915 13.441 14.8277 13.7333 14.5361L14.5361 13.7344C14.8275 13.4419 14.9911 13.0458 14.9911 12.6329C14.9911 12.2199 14.8275 11.8238 14.5361 11.5313L14.4877 11.483C14.4181 11.4117 14.3715 11.3212 14.354 11.2232C14.3364 11.1251 14.3488 11.0241 14.3894 10.9331C14.4258 10.8424 14.4884 10.7647 14.5692 10.7098C14.6501 10.6549 14.7454 10.6254 14.8431 10.625H14.9111C15.3241 10.6246 15.72 10.4603 16.0121 10.1683C16.3041 9.8763 16.4683 9.48035 16.4688 9.06738V7.93263C16.4683 7.51965 16.3041 7.1237 16.0121 6.83168C15.72 6.53966 15.3241 6.37542 14.9111 6.375ZM15.4062 9.06738C15.4061 9.19865 15.3539 9.3245 15.2611 9.41733C15.1683 9.51015 15.0424 9.56236 14.9111 9.5625H14.8431C14.5348 9.56512 14.2341 9.65843 13.9785 9.8308C13.7229 10.0032 13.5237 10.247 13.4057 10.5318C13.2877 10.8166 13.2561 11.1299 13.315 11.4325C13.3738 11.7351 13.5204 12.0138 13.7365 12.2336L13.7843 12.282C13.8771 12.375 13.9292 12.501 13.9292 12.6323C13.9292 12.7637 13.8771 12.8897 13.7843 12.9827L12.9816 13.7843C12.8888 13.8772 12.7628 13.9293 12.6315 13.9293C12.5002 13.9293 12.3743 13.8772 12.2814 13.7843L12.2336 13.736C12.0137 13.5201 11.7351 13.3737 11.4325 13.3151C11.13 13.2564 10.8168 13.288 10.5321 13.4059C10.2474 13.5239 10.0036 13.723 9.83123 13.9784C9.65882 14.2339 9.56537 14.5344 9.5625 14.8426V14.9111C9.56236 15.0424 9.51015 15.1683 9.41733 15.2611C9.3245 15.3539 9.19865 15.4061 9.06738 15.4062H7.93263C7.80135 15.4061 7.6755 15.3539 7.58267 15.2611C7.48985 15.1683 7.43764 15.0424 7.4375 14.9111V14.8426C7.43601 14.5338 7.34335 14.2323 7.17115 13.976C6.99895 13.7196 6.75489 13.5199 6.46958 13.4017C6.18426 13.2836 5.87042 13.2523 5.56741 13.3119C5.2644 13.3715 4.98574 13.5192 4.76638 13.7365L4.71803 13.7849C4.62504 13.8775 4.49916 13.9294 4.36794 13.9294C4.23671 13.9294 4.11083 13.8775 4.01784 13.7849L3.21566 12.9832C3.12291 12.8902 3.07082 12.7642 3.07082 12.6329C3.07082 12.5015 3.12291 12.3755 3.21566 12.2825L3.264 12.2342C3.48032 12.0143 3.6271 11.7356 3.68602 11.4328C3.74494 11.13 3.71338 10.8166 3.5953 10.5316C3.47722 10.2467 3.27783 10.0028 3.02202 9.83047C2.76622 9.65812 2.46532 9.56492 2.15688 9.5625H2.08887C1.9576 9.56236 1.83175 9.51015 1.73892 9.41733C1.6461 9.3245 1.59389 9.19865 1.59375 9.06738V7.93263C1.59389 7.80135 1.6461 7.6755 1.73892 7.58267C1.83175 7.48985 1.9576 7.43764 2.08887 7.4375H2.15688C2.46516 7.43488 2.76586 7.34157 3.02148 7.1692C3.27709 6.99684 3.47632 6.75305 3.59432 6.46822C3.71231 6.1834 3.74386 5.87014 3.68503 5.5675C3.62619 5.26487 3.47958 4.98625 3.26347 4.76638L3.21566 4.71803C3.12294 4.62511 3.07087 4.4992 3.07087 4.36794C3.07087 4.23667 3.12294 4.11077 3.21566 4.01784L4.01784 3.21513C4.1107 3.12228 4.23663 3.07012 4.36794 3.07012C4.49925 3.07012 4.62518 3.12228 4.71803 3.21513L4.76584 3.26347C4.98575 3.47948 5.26435 3.62602 5.56695 3.68483C5.86954 3.74364 6.18274 3.71213 6.46756 3.59422C6.75237 3.47631 6.99619 3.27721 7.16866 3.02172C7.34114 2.76623 7.43463 2.46565 7.4375 2.15741V2.08887C7.43764 1.9576 7.48985 1.83175 7.58267 1.73892C7.6755 1.6461 7.80135 1.59389 7.93263 1.59375H9.06738C9.19865 1.59389 9.3245 1.6461 9.41733 1.73892C9.51015 1.83175 9.56236 1.9576 9.5625 2.08887V2.15741C9.56523 2.46565 9.65861 2.76627 9.83101 3.02181C10.0034 3.27735 10.2472 3.47649 10.532 3.59442C10.8168 3.71235 11.13 3.74386 11.4326 3.68501C11.7352 3.62616 12.0138 3.47955 12.2336 3.26347L12.282 3.21513C12.3748 3.12228 12.5008 3.07012 12.6321 3.07012C12.7634 3.07012 12.8893 3.12228 12.9822 3.21513L13.7843 4.01784C13.8771 4.11077 13.9291 4.23667 13.9291 4.36794C13.9291 4.4992 13.8771 4.62511 13.7843 4.71803L13.736 4.76638C13.5199 4.98628 13.3732 5.26495 13.3144 5.56763C13.2556 5.87032 13.2872 6.18362 13.4053 6.46846C13.5233 6.75331 13.7226 6.9971 13.9783 7.16942C14.234 7.34174 14.5348 7.43498 14.8431 7.4375H14.9111C15.0424 7.43764 15.1683 7.48985 15.2611 7.58267C15.3539 7.6755 15.4061 7.80135 15.4062 7.93263V9.06738Z" fill="#C3C9D0"/>
<path d="M8.5 4.78125C7.7645 4.78125 7.04552 4.99935 6.43397 5.40797C5.82243 5.81659 5.34579 6.39738 5.06432 7.0769C4.78286 7.75641 4.70922 8.50413 4.85271 9.22549C4.9962 9.94686 5.35037 10.6095 5.87045 11.1296C6.39052 11.6496 7.05314 12.0038 7.77451 12.1473C8.49588 12.2908 9.24359 12.2171 9.92311 11.9357C10.6026 11.6542 11.1834 11.1776 11.592 10.566C12.0007 9.95448 12.2188 9.2355 12.2188 8.5C12.2176 7.51407 11.8255 6.56885 11.1283 5.87169C10.4312 5.17453 9.48593 4.78237 8.5 4.78125ZM8.5 11.1562C7.97464 11.1562 7.46109 11.0005 7.02427 10.7086C6.58745 10.4167 6.24699 10.0019 6.04595 9.5165C5.8449 9.03114 5.7923 8.49705 5.89479 7.98179C5.99728 7.46653 6.25027 6.99323 6.62175 6.62175C6.99323 6.25026 7.46653 5.99728 7.98179 5.89479C8.49706 5.7923 9.03114 5.8449 9.5165 6.04594C10.0019 6.24699 10.4167 6.58745 10.7086 7.02427C11.0005 7.46108 11.1563 7.97464 11.1563 8.5C11.1554 9.20422 10.8753 9.87936 10.3773 10.3773C9.87936 10.8753 9.20422 11.1554 8.5 11.1562Z" fill="#C3C9D0"/>
</svg>
