<svg width="15" height="15" viewBox="0 0 15 15" fill="none" xmlns="http://www.w3.org/2000/svg">
<path d="M6.34767 8.06656H0.585938C0.262324 8.06656 0 8.32889 0 8.6525V14.4142C0 14.7378 0.262324 15.0002 0.585938 15.0002H6.34767C6.67128 15.0002 6.9336 14.7378 6.9336 14.4142V8.6525C6.9336 8.32889 6.67125 8.06656 6.34767 8.06656ZM5.76173 13.8283H1.17188V9.23844H5.76173V13.8283ZM11.5332 8.06656C9.62162 8.06656 8.06643 9.62176 8.06643 11.5334C8.06643 13.445 9.62162 15.0002 11.5332 15.0002C13.4448 15.0002 15 13.445 15 11.5334C15 9.62176 13.4448 8.06656 11.5332 8.06656V8.06656ZM11.5332 13.8283C10.2678 13.8283 9.2383 12.7988 9.2383 11.5334C9.2383 10.268 10.2678 9.23844 11.5332 9.23844C12.7986 9.23844 13.8281 10.268 13.8281 11.5334C13.8281 12.7988 12.7986 13.8283 11.5332 13.8283ZM4.04297 6.93377H10.957C11.412 6.93377 11.6934 6.43634 11.4595 6.04637L8.00244 0.284639C7.77545 -0.0936717 7.22522 -0.094785 6.99756 0.284639L3.54053 6.04637C3.30647 6.43645 3.58819 6.93377 4.04297 6.93377V6.93377ZM7.5 1.72496L9.92215 5.76189H5.07785L7.5 1.72496Z" fill="#C3C9D0"/>
</svg>
