<svg width="16" height="16" viewBox="0 0 16 16" fill="none" xmlns="http://www.w3.org/2000/svg">
<g clip-path="url(#clip0_753:3921)">
<path d="M13.8979 1.39233H1.38805C0.620382 1.39233 -0.00195312 2.01467 -0.00195312 2.78233V11.1223C-0.00195312 11.8899 0.620382 12.5123 1.38805 12.5123V11.1223V2.78233H13.8979V11.1223V12.5123C14.6656 12.5123 15.2879 11.89 15.2879 11.1223V2.78233C15.2879 2.01467 14.6656 1.39233 13.8979 1.39233Z" fill="#C3C9D0"/>
<path d="M11.425 12.3084L8.32644 8.67323C7.95238 8.23438 7.34816 8.23542 6.97498 8.67323L3.87637 12.3084C3.12558 13.1892 3.45706 13.8971 4.61022 13.8971H10.6912C11.8463 13.8971 12.1729 13.1858 11.425 12.3084ZM5.53344 12.5071L7.65071 10.0232L9.76797 12.5071H5.53344Z" fill="#C3C9D0"/>
</g>
<defs>
<clipPath id="clip0_753:3921">
<rect width="15.2899" height="15.2899" fill="white"/>
</clipPath>
</defs>
</svg>
