<svg width="24" height="24" viewBox="0 0 24 24" fill="none" xmlns="http://www.w3.org/2000/svg">
<path d="M17.6085 22.2685C17.3238 22.2687 17.0434 22.1992 16.7917 22.066L12.117 19.609C12.0808 19.5896 12.0403 19.5795 11.9992 19.5795C11.9582 19.5795 11.9177 19.5896 11.8815 19.609L7.20748 22.066C6.91784 22.2184 6.59132 22.2867 6.26486 22.2632C5.93841 22.2397 5.62506 22.1253 5.36026 21.9329C5.09546 21.7405 4.88979 21.4779 4.76652 21.1747C4.64325 20.8715 4.6073 20.5398 4.66273 20.2172L5.55523 15.013C5.56209 14.9722 5.55884 14.9304 5.54576 14.8912C5.53268 14.8519 5.51018 14.8165 5.48023 14.788L1.70173 11.1003C1.46713 10.8717 1.30124 10.582 1.22284 10.264C1.14445 9.94597 1.15669 9.61236 1.25818 9.30095C1.35966 8.98954 1.54634 8.71278 1.79706 8.50202C2.04778 8.29127 2.35251 8.15494 2.67673 8.1085L7.89898 7.35025C7.93962 7.34434 7.9782 7.32861 8.01139 7.30444C8.04458 7.28026 8.07139 7.24836 8.08948 7.2115L10.4242 2.47525C10.5688 2.18164 10.7928 1.93439 11.0707 1.76149C11.3486 1.58859 11.6693 1.49695 11.9966 1.49695C12.3239 1.49695 12.6446 1.58859 12.9225 1.76149C13.2004 1.93439 13.4244 2.18164 13.569 2.47525L15.9052 7.21C15.9235 7.24675 15.9503 7.27855 15.9835 7.3027C16.0167 7.32686 16.0552 7.34265 16.0957 7.34875L21.3225 8.10775C21.6465 8.15446 21.9511 8.29093 22.2016 8.50171C22.4521 8.7125 22.6387 8.98919 22.7401 9.30049C22.8416 9.61179 22.8539 9.94527 22.7757 10.2632C22.6974 10.5811 22.5318 10.8708 22.2975 11.0995L18.5152 14.785C18.4854 14.8136 18.463 14.849 18.4499 14.8882C18.4368 14.9274 18.4335 14.9692 18.4402 15.01L19.3327 20.2142C19.3757 20.4657 19.3633 20.7235 19.2965 20.9697C19.2296 21.2159 19.11 21.4446 18.9458 21.6398C18.7816 21.835 18.5768 21.9921 18.3458 22.1002C18.1147 22.2083 17.8628 22.2647 17.6077 22.2655L17.6085 22.2685ZM11.9992 18.079C12.2837 18.0789 12.5638 18.1485 12.8152 18.2815L17.4892 20.7377C17.5306 20.7614 17.578 20.7722 17.6256 20.7689C17.6731 20.7656 17.7186 20.7482 17.7562 20.719C17.7955 20.692 17.8261 20.6542 17.8441 20.61C17.862 20.5659 17.8667 20.5175 17.8575 20.4708L16.9642 15.2657C16.9165 14.9856 16.9374 14.6981 17.0252 14.4278C17.113 14.1576 17.265 13.9126 17.4682 13.714L21.2505 10.0278C21.2842 9.99468 21.3081 9.95284 21.3193 9.90694C21.3306 9.86103 21.3288 9.8129 21.3141 9.76797C21.2994 9.72305 21.2725 9.68311 21.2364 9.65268C21.2002 9.62225 21.1563 9.60253 21.1095 9.59575L15.8835 8.836C15.6021 8.79526 15.3349 8.68663 15.1049 8.51951C14.875 8.35238 14.6891 8.13178 14.5635 7.87675L12.2242 3.14125C12.2033 3.09887 12.1709 3.0632 12.1307 3.03825C12.0906 3.01331 12.0443 3.00009 11.997 3.00009C11.9497 3.00009 11.9034 3.01331 11.8632 3.03825C11.8231 3.0632 11.7907 3.09887 11.7697 3.14125L9.43498 7.87525C9.30927 8.13037 9.12332 8.35104 8.8932 8.51817C8.66308 8.6853 8.39572 8.79388 8.11423 8.8345L2.88898 9.59575C2.84211 9.60238 2.79805 9.62204 2.76181 9.65248C2.72556 9.68293 2.6986 9.72294 2.68398 9.76796C2.66937 9.81298 2.66769 9.86121 2.67913 9.90713C2.69058 9.95306 2.71469 9.99486 2.74873 10.0278L6.53023 13.714C6.73344 13.9126 6.88546 14.1576 6.97324 14.4278C7.06102 14.6981 7.08195 14.9856 7.03423 15.2657L6.14098 20.4708C6.13288 20.5175 6.13806 20.5656 6.15595 20.6096C6.17384 20.6535 6.2037 20.6916 6.24215 20.7194C6.2806 20.7472 6.32609 20.7637 6.37344 20.7669C6.42079 20.7702 6.4681 20.7601 6.50998 20.7377L11.1832 18.2808C11.4348 18.1483 11.7149 18.079 11.9992 18.079V18.079Z" fill="url(#paint0_linear)"/>
<defs>
<linearGradient id="paint0_linear" x1="-1.92476" y1="14.1306" x2="14.1197" y2="26.2641" gradientUnits="userSpaceOnUse">
<stop stop-color="#FA926B"/>
<stop offset="1" stop-color="#FA5F6B"/>
</linearGradient>
</defs>
</svg>
