<svg width="23" height="22" viewBox="0 0 23 22" fill="none" xmlns="http://www.w3.org/2000/svg">
<path d="M21.6667 10.1867C21.9145 10.0021 22.0982 9.7446 22.1923 9.45029C22.2863 9.15598 22.2859 8.83962 22.1911 8.54556C22.0962 8.2515 21.9118 7.9945 21.6635 7.81058C21.4152 7.62667 21.1156 7.52506 20.8067 7.52002L14.8067 7.29335C14.7772 7.29131 14.7489 7.28079 14.7252 7.26305C14.7016 7.24531 14.6836 7.2211 14.6733 7.19335L12.6 1.59335C12.4958 1.30844 12.3066 1.06243 12.058 0.888614C11.8094 0.7148 11.5134 0.621582 11.21 0.621582C10.9067 0.621582 10.6106 0.7148 10.362 0.888614C10.1134 1.06243 9.92419 1.30844 9.82002 1.59335L7.75335 7.21335C7.74313 7.2411 7.72511 7.26531 7.70145 7.28305C7.6778 7.30079 7.64952 7.31131 7.62002 7.31335L1.62002 7.54002C1.31109 7.54506 1.01148 7.64667 0.763212 7.83058C0.514942 8.0145 0.330456 8.2715 0.235623 8.56556C0.140789 8.85962 0.140364 9.17598 0.234406 9.47029C0.328448 9.7646 0.512242 10.0221 0.760016 10.2067L5.46668 13.9067C5.49024 13.9252 5.50784 13.9503 5.51732 13.9787C5.5268 14.0071 5.52774 14.0377 5.52002 14.0667L3.90002 19.8067C3.81607 20.099 3.8242 20.41 3.92331 20.6975C4.02242 20.9851 4.20769 21.2351 4.45391 21.4135C4.70014 21.592 4.99538 21.6903 5.29945 21.6951C5.60353 21.6998 5.90168 21.6107 6.15335 21.44L11.1267 18.1067C11.1512 18.0898 11.1802 18.0807 11.21 18.0807C11.2398 18.0807 11.2689 18.0898 11.2933 18.1067L16.2667 21.44C16.515 21.6166 16.812 21.7114 17.1167 21.7114C17.4213 21.7114 17.7184 21.6166 17.9667 21.44C18.213 21.2632 18.3984 21.0144 18.4975 20.7279C18.5966 20.4414 18.6045 20.1312 18.52 19.84L16.8867 14.08C16.878 14.0511 16.8785 14.0202 16.8881 13.9916C16.8976 13.963 16.9157 13.938 16.94 13.92L21.6667 10.1867Z" fill="url(#paint0_linear)"/>
<defs>
<linearGradient id="paint0_linear" x1="-2.99591" y1="13.4488" x2="13.3168" y2="25.8479" gradientUnits="userSpaceOnUse">
<stop stop-color="#FA926B"/>
<stop offset="1" stop-color="#FA5F6B"/>
</linearGradient>
</defs>
</svg>
