<svg width="16" height="17" viewBox="0 0 16 17" fill="none" xmlns="http://www.w3.org/2000/svg">
<path fill-rule="evenodd" clip-rule="evenodd" d="M8 0.779297C8.31098 0.779297 8.5866 0.979543 8.6827 1.27531L10.2406 6.07007H15.2821C15.5931 6.07007 15.8687 6.27031 15.9648 6.56608C16.0609 6.86184 15.9556 7.18584 15.7041 7.36864L11.6254 10.332L13.1833 15.1267C13.2794 15.4225 13.1741 15.7465 12.9225 15.9293C12.6709 16.1121 12.3303 16.1121 12.0787 15.9293L8 12.966L3.92133 15.9293C3.66974 16.1121 3.32906 16.1121 3.07747 15.9293C2.82588 15.7465 2.72061 15.4225 2.8167 15.1267L4.37462 10.332L0.29595 7.36864C0.0443588 7.18584 -0.0609171 6.86184 0.0351821 6.56608C0.131281 6.27031 0.406897 6.07007 0.717881 6.07007H5.75939L7.3173 1.27531C7.4134 0.979543 7.68902 0.779297 8 0.779297ZM8 3.82008L6.96362 7.00972C6.86752 7.30548 6.59191 7.50573 6.28092 7.50573H2.92714L5.64041 9.47704C5.892 9.65983 5.99728 9.98383 5.90118 10.2796L4.8648 13.4692L7.57807 11.4979C7.82966 11.3151 8.17034 11.3151 8.42193 11.4979L11.1352 13.4692L10.0988 10.2796C10.0027 9.98383 10.108 9.65983 10.3596 9.47704L13.0729 7.50573H9.71908C9.40809 7.50573 9.13248 7.30548 9.03638 7.00972L8 3.82008Z" fill="#E6E6E6"/>
</svg>
