<svg width="17" height="16" viewBox="0 0 17 16" fill="none" xmlns="http://www.w3.org/2000/svg">
<path d="M8.82812 0.5C9.13911 0.5 9.41472 0.700247 9.51082 0.99601L11.0687 5.79077H16.1102C16.4212 5.79077 16.6968 5.99102 16.7929 6.28678C16.889 6.58254 16.7838 6.90655 16.5322 7.08934L12.4535 10.0527L14.0114 14.8474C14.1075 15.1432 14.0022 15.4672 13.7507 15.65C13.4991 15.8328 13.1584 15.8328 12.9068 15.65L8.82812 12.6867L4.74946 15.65C4.49787 15.8328 4.15719 15.8328 3.9056 15.65C3.65401 15.4672 3.54873 15.1432 3.64483 14.8474L5.20274 10.0527L1.12407 7.08934C0.872484 6.90655 0.767208 6.58254 0.863307 6.28678C0.959406 5.99102 1.23502 5.79077 1.54601 5.79077H6.58751L8.14543 0.99601C8.24153 0.700247 8.51714 0.5 8.82812 0.5Z" fill="#E6E6E6"/>
</svg>
