<svg width="15" height="15" viewBox="0 0 15 15" fill="none" xmlns="http://www.w3.org/2000/svg">
<g clip-path="url(#clip0_753:3903)">
<path d="M6.34615 0H0.576935C0.258297 0 0 0.258297 0 0.576935V6.34618C0 6.66482 0.258297 6.92312 0.576935 6.92312H6.34618C6.66482 6.92312 6.92312 6.66482 6.92312 6.34618V0.576935C6.92308 0.258297 6.66478 0 6.34615 0ZM5.76925 5.76925H1.15384V1.15384H5.76921V5.76925H5.76925Z" fill="#C3C9D0"/>
<path d="M14.4228 0H8.65359C8.33496 0 8.07666 0.258297 8.07666 0.576935V6.34618C8.07666 6.66482 8.33496 6.92312 8.65359 6.92312H14.4228C14.7415 6.92312 14.9998 6.66482 14.9998 6.34618V0.576935C14.9997 0.258297 14.7414 0 14.4228 0ZM13.8459 5.76925H9.23053V1.15384H13.8459V5.76925Z" fill="#C3C9D0"/>
<path d="M6.34615 8.07698H0.576935C0.258297 8.07698 0 8.33528 0 8.65392V14.4232C0 14.7418 0.258297 15.0001 0.576935 15.0001H6.34618C6.66482 15.0001 6.92312 14.7418 6.92312 14.4232V8.65392C6.92308 8.33528 6.66478 8.07698 6.34615 8.07698ZM5.76925 13.8462H1.15384V9.23085H5.76921V13.8462H5.76925Z" fill="#C3C9D0"/>
<path d="M14.4228 8.07698H8.65359C8.33496 8.07698 8.07666 8.33528 8.07666 8.65392V14.4232C8.07666 14.7418 8.33496 15.0001 8.65359 15.0001H14.4228C14.7415 15.0001 14.9998 14.7418 14.9998 14.4232V8.65392C14.9997 8.33528 14.7414 8.07698 14.4228 8.07698ZM13.8459 13.8462H9.23053V9.23085H13.8459V13.8462Z" fill="#C3C9D0"/>
</g>
<defs>
<clipPath id="clip0_753:3903">
<rect width="15" height="15" fill="white"/>
</clipPath>
</defs>
</svg>
