<svg width="16" height="11" viewBox="0 0 16 11" fill="none" xmlns="http://www.w3.org/2000/svg">
<path d="M5.19703 0H3.66933L0 9.85151V9.99428H1.29926L2.24158 7.38149H6.61051L7.55282 9.99428H8.88064V9.85151L5.19703 0ZM2.64135 6.26784L4.39749 1.38492H4.4546L6.21073 6.26784H2.64135Z" fill="#C3C9D0"/>
<path d="M12.5591 10.1228C13.5871 10.1228 14.4009 9.70873 14.8435 8.9663H14.9006L14.9863 9.99428H16V5.08281C16 3.69789 15.0149 2.56996 13.1445 2.56996C11.5454 2.56996 10.3746 3.498 10.3746 4.8972H11.5311C11.5454 4.1976 12.0737 3.59794 13.1445 3.59794C14.3295 3.59794 14.8292 4.29754 14.8292 5.11136V5.83952C14.3724 5.71102 13.8013 5.58252 13.0303 5.58252C10.8886 5.58252 10.0177 6.63906 10.0177 7.86693C10.0177 9.13763 10.9743 10.1228 12.5591 10.1228ZM12.7733 9.12335C11.7167 9.12335 11.2313 8.58081 11.2313 7.85265C11.2313 6.996 11.8452 6.53912 13.0303 6.53912C13.6728 6.53912 14.2296 6.61051 14.8292 6.79611V7.16733C14.8292 8.22387 14.0154 9.12335 12.7733 9.12335Z" fill="#C3C9D0"/>
</svg>
