<svg width="18" height="18" viewBox="0 0 18 18" fill="none" xmlns="http://www.w3.org/2000/svg">
<path d="M8.99996 -0.000334211C6.79652 -0.000334211 4.65447 0.81114 2.98497 2.18882L0.960063 0.163911C0.79884 0.00337366 0.557279 -0.0446913 0.347304 0.0423749C0.137328 0.129304 0 0.334061 0 0.562163V5.43705C0 5.74755 0.251998 5.99955 0.562497 5.99955H5.43752C5.66549 5.99955 5.87024 5.86235 5.95731 5.65238C6.04424 5.4424 5.99631 5.20084 5.83495 5.03962L4.05078 3.25462C5.43752 2.14982 7.19244 1.49957 8.99996 1.49957C13.1355 1.49957 16.5 4.86411 16.5 8.99962C16.5 13.135 13.1355 16.4995 8.99996 16.4995C6.99826 16.4995 5.11507 15.7188 3.69826 14.3013C3.40506 14.008 2.931 14.008 2.63781 14.3013C2.34447 14.5945 2.34447 15.0686 2.63781 15.3618C4.33807 17.0627 6.59781 17.9996 8.99996 17.9996C13.9627 17.9996 17.9999 13.9623 17.9999 8.99962C17.9999 4.03685 13.9627 -0.000334211 8.99996 -0.000334211V-0.000334211Z" fill="#F2F4FA"/>
</svg>
