<svg width="29" height="29" viewBox="0 0 29 29" fill="none" xmlns="http://www.w3.org/2000/svg">
<g clip-path="url(#clip0)">
<path d="M14.0355 15.6104L19.3262 19.5785C19.716 19.8708 20.2684 19.7919 20.5608 19.4021C20.8531 19.0123 20.7742 18.4599 20.3844 18.1676L15.486 14.4596V6.96432C15.486 6.47712 15.0914 6.08252 14.6042 6.08252C14.117 6.08252 13.7224 6.47712 13.7224 6.96432V14.9005C13.7224 15.1933 13.845 15.4569 14.0355 15.6104Z" fill="#C3C9D0"/>
<path d="M15.0466 1.23438C8.59225 1.23438 3.08056 5.89292 2.00477 12.2569L1.66968 11.7587C1.39676 11.3543 0.848285 11.2477 0.44398 11.5206C0.0396747 11.7935 -0.0670231 12.342 0.205894 12.7463L1.96949 15.3917C2.11455 15.6121 2.35087 15.7563 2.61321 15.7841H2.70139C2.93506 15.7832 3.1586 15.6897 3.32306 15.5239L5.52755 13.3194C5.8719 12.9751 5.8719 12.416 5.52755 12.0717C5.18321 11.7273 4.62415 11.7273 4.27981 12.0717L3.73309 12.6228C4.74848 6.3735 10.6376 2.13117 16.8865 3.14656C23.1353 4.16195 27.3785 10.0506 26.3632 16.2999C25.4615 21.8491 20.6685 25.9256 15.0466 25.9248C11.5009 25.9891 8.14738 24.3164 6.06545 21.4452C5.78284 21.0484 5.23215 20.9554 4.83534 21.238C4.43853 21.5206 4.3455 22.0713 4.62812 22.4681C7.03896 25.8066 10.9295 27.7558 15.0466 27.6884C22.3518 27.6884 28.2736 21.7666 28.2736 14.4614C28.2736 7.1561 22.3518 1.23438 15.0466 1.23438Z" fill="#C3C9D0"/>
</g>
<defs>
<clipPath id="clip0">
<rect width="28.2176" height="28.2176" fill="white" transform="translate(0.0546875 0.351562)"/>
</clipPath>
</defs>
</svg>
