<svg width="29" height="27" viewBox="0 0 29 27" fill="none" xmlns="http://www.w3.org/2000/svg">
<path d="M14.0355 14.6104L19.3262 18.5785C19.716 18.8708 20.2684 18.7919 20.5608 18.4021C20.8531 18.0123 20.7742 17.4599 20.3844 17.1676L15.486 13.4596V5.96432C15.486 5.47712 15.0914 5.08252 14.6042 5.08252C14.117 5.08252 13.7224 5.47712 13.7224 5.96432V13.9005C13.7224 14.1933 13.845 14.4569 14.0355 14.6104Z" fill="url(#paint0_linear)"/>
<path d="M15.0466 0.234375C8.59225 0.234375 3.08056 4.89292 2.00477 11.2569L1.66968 10.7587C1.39676 10.3543 0.848285 10.2477 0.44398 10.5206C0.0396747 10.7935 -0.0670231 11.342 0.205894 11.7463L1.96949 14.3917C2.11455 14.6121 2.35087 14.7563 2.61321 14.7841H2.70139C2.93506 14.7832 3.1586 14.6897 3.32306 14.5239L5.52755 12.3194C5.8719 11.9751 5.8719 11.416 5.52755 11.0717C5.18321 10.7273 4.62415 10.7273 4.27981 11.0717L3.73309 11.6228C4.74848 5.3735 10.6376 1.13116 16.8865 2.14655C23.1353 3.16194 27.3785 9.0506 26.3632 15.2999C25.4615 20.8491 20.6685 24.9256 15.0466 24.9248C11.5009 24.9891 8.14738 23.3164 6.06545 20.4452C5.78284 20.0484 5.23215 19.9554 4.83534 20.238C4.43853 20.5206 4.3455 21.0713 4.62812 21.4681C7.03896 24.8066 10.9295 26.7558 15.0466 26.6884C22.3518 26.6884 28.2736 20.7666 28.2736 13.4614C28.2736 6.1561 22.3518 0.234375 15.0466 0.234375Z" fill="url(#paint1_linear)"/>
<defs>
<linearGradient id="paint0_linear" x1="12.7193" y1="13.3984" x2="19.8953" y2="16.0691" gradientUnits="userSpaceOnUse">
<stop stop-color="#FA926B"/>
<stop offset="1" stop-color="#FA5F6B"/>
</linearGradient>
<linearGradient id="paint1_linear" x1="-3.98066" y1="16.3252" x2="16.5772" y2="32.2318" gradientUnits="userSpaceOnUse">
<stop stop-color="#FA926B"/>
<stop offset="1" stop-color="#FA5F6B"/>
</linearGradient>
</defs>
</svg>
