<svg width="88" height="25" viewBox="0 0 88 25" fill="none" xmlns="http://www.w3.org/2000/svg">
<g clip-path="url(#clip0_752:2547)">
<path fill-rule="evenodd" clip-rule="evenodd" d="M16.3032 6.32111H11.1659L8.15526 13.4915L5.14458 6.32111H0.00732422C1.87347 10.7656 3.73887 15.2107 5.60575 19.6547L3.53776 24.5798H8.67501C11.244 18.4613 13.7507 12.3999 16.3031 6.32123L16.3032 6.32111ZM81.6271 0.351832H87.1558L82.1563 12.4322H76.6276L81.6271 0.351832ZM77.9866 13.5972C79.708 13.5972 81.1037 14.9927 81.1037 16.7142C81.1037 18.4358 79.7081 19.8313 77.9866 19.8313C76.2651 19.8313 74.8695 18.4358 74.8695 16.7142C74.8695 14.9928 76.2651 13.5972 77.9866 13.5972ZM67.116 5.95847C70.9873 5.95847 74.1254 9.09673 74.1254 12.9679C74.1254 16.8391 70.9871 19.9773 67.116 19.9773C63.2447 19.9773 60.1066 16.839 60.1066 12.9679C60.1066 9.09661 63.2449 5.95847 67.116 5.95847ZM67.116 10.231C68.6276 10.231 69.853 11.4564 69.853 12.968C69.853 14.4796 68.6276 15.705 67.116 15.705C65.6044 15.705 64.379 14.4796 64.379 12.968C64.379 11.4564 65.6044 10.231 67.116 10.231ZM52.0679 5.95847C55.9391 5.95847 59.0773 9.09673 59.0773 12.9679C59.0773 16.8391 55.939 19.9773 52.0679 19.9773C48.1966 19.9773 45.0585 16.839 45.0585 12.9679C45.0585 9.09661 48.1967 5.95847 52.0679 5.95847ZM52.0679 10.231C53.5795 10.231 54.8049 11.4564 54.8049 12.968C54.8049 14.4796 53.5795 15.705 52.0679 15.705C50.5563 15.705 49.3308 14.4796 49.3308 12.968C49.3308 11.4564 50.5563 10.231 52.0679 10.231ZM31.374 0.313717H36.0091V7.51969C36.0091 7.51969 36.8201 5.95847 39.4989 5.95847C42.1777 5.95847 43.8958 7.13708 43.9301 11.9632V19.8313H39.295V11.9632C39.295 11.0558 38.5594 10.3202 37.652 10.3202C36.7236 10.3202 35.9866 11.0835 36.0098 12.0097L36.009 19.8313H31.3739V0.313595L31.374 0.313717ZM25.0625 6.32111H29.6977V19.8314H25.0625V18.5578C24.0245 19.4486 22.7309 19.9775 21.3282 19.9775C17.9099 19.9775 15.1388 16.8393 15.1388 12.9681C15.1388 9.09685 17.9099 5.95871 21.3282 5.95871C22.7309 5.95871 24.0246 6.48754 25.0625 7.37839V6.32135V6.32111ZM22.4518 10.231C23.9634 10.231 25.1888 11.4564 25.1888 12.968C25.1888 14.4796 23.9634 15.705 22.4518 15.705C20.9402 15.705 19.7147 14.4796 19.7147 12.968C19.7147 11.4564 20.9402 10.231 22.4518 10.231Z" fill="#6101D1"/>
</g>
<defs>
<clipPath id="clip0_752:2547">
<rect width="87.1631" height="24.58" fill="white"/>
</clipPath>
</defs>
</svg>
