<svg width="28" height="25" viewBox="0 0 28 25" fill="none" xmlns="http://www.w3.org/2000/svg">
<path fill-rule="evenodd" clip-rule="evenodd" d="M6.07497 0.822449C5.57791 0.822449 5.17497 1.22539 5.17497 1.72245C5.17497 2.2195 5.57791 2.62245 6.07497 2.62245H24.3457C24.9532 2.62245 25.4457 3.11494 25.4457 3.72245V16.4458C25.4457 17.0533 24.9532 17.5458 24.3457 17.5458H6.07497C5.57791 17.5458 5.17497 17.9487 5.17497 18.4458C5.17497 18.9428 5.57791 19.3458 6.07497 19.3458H24.3457C25.9473 19.3458 27.2457 18.0474 27.2457 16.4458V3.72245C27.2457 2.12082 25.9473 0.822449 24.3457 0.822449H6.07497ZM24.6686 5.34185C24.9883 5.07848 25.034 4.60581 24.7706 4.2861C24.5072 3.9664 24.0346 3.92074 23.7149 4.18411L16.2404 10.3416C15.8647 10.651 15.3208 10.6451 14.952 10.3275L7.83116 4.19469C7.5173 3.92438 7.04374 3.95968 6.77343 4.27354C6.50312 4.5874 6.53843 5.06096 6.85228 5.33127L13.9731 11.464C14.8951 12.2581 16.255 12.273 17.1941 11.4993L24.6686 5.34185ZM19.9871 12.3415C20.2799 12.0486 20.7548 12.0486 21.0477 12.3415L24.0883 15.3821C24.3812 15.675 24.3812 16.1499 24.0883 16.4428C23.7954 16.7356 23.3206 16.7356 23.0277 16.4428L19.9871 13.4022C19.6942 13.1093 19.6942 12.6344 19.9871 12.3415ZM0.0957031 6.47526C0.0957031 6.11142 0.390657 5.81646 0.754501 5.81646H4.7358C5.09964 5.81646 5.39459 6.11142 5.39459 6.47526C5.39459 6.8391 5.09964 7.13406 4.7358 7.13406H0.754501C0.390657 7.13406 0.0957031 6.8391 0.0957031 6.47526ZM3.02697 9.16151C2.66312 9.16151 2.36817 9.45646 2.36817 9.82031C2.36817 10.1842 2.66312 10.4791 3.02697 10.4791H7.00826C7.37211 10.4791 7.66706 10.1842 7.66706 9.82031C7.66706 9.45646 7.3721 9.16151 7.00826 9.16151H3.02697ZM6.05138 12.5062C5.68754 12.5062 5.39259 12.8012 5.39259 13.165C5.39259 13.5289 5.68754 13.8238 6.05139 13.8238H10.0327C10.3965 13.8238 10.6915 13.5289 10.6915 13.165C10.6915 12.8012 10.3965 12.5062 10.0327 12.5062H6.05138Z" fill="#FA5F6B"/>
</svg>
