<svg width="25" height="25" viewBox="0 0 25 25" fill="none" xmlns="http://www.w3.org/2000/svg">
<path d="M19.837 23.695C19.3439 23.695 18.8507 23.5717 18.3576 23.3252C16.6318 22.2157 17.8645 20.12 19.0973 18.1476C19.5904 17.4079 20.3301 16.0519 20.4533 15.4355C19.5904 15.6821 17.618 17.5312 16.3852 18.6407C13.4266 21.2295 10.468 23.9416 8.37227 21.9691C6.39985 20.12 8.86538 16.9148 11.824 12.97C13.3033 10.8743 16.8783 6.1898 16.0154 5.32687H15.8921C13.4266 5.32687 6.39985 11.9838 2.20846 16.6683C1.71536 17.1614 0.975702 17.1614 0.482598 16.7915C-0.0105069 16.2984 -0.0105068 15.5588 0.359322 15.0657C2.20846 13.0933 11.4542 2.98462 15.8921 2.98462C17.0016 2.98462 17.4947 3.47772 17.8645 3.84755C20.0835 6.1898 17.0016 10.2579 13.7964 14.6959C12.4404 16.545 10.3447 19.3803 10.0981 20.4898C10.9611 20.4898 13.3033 18.2709 14.6594 17.0381C17.2482 14.6959 19.5904 12.6002 21.4395 13.3398C22.0559 13.5864 22.549 14.0795 22.6723 14.6959C23.1654 16.1752 22.1792 17.901 21.0697 19.7502C20.6999 20.2433 20.3301 21.1062 20.0835 21.5993C20.5766 21.3528 21.3163 20.7364 21.9327 20.12C22.3025 19.6269 23.1654 19.5036 23.6585 19.9967C24.1516 20.3666 24.2749 21.2295 23.7818 21.7226C23.6585 21.476 21.8094 23.695 19.837 23.695V23.695Z" fill="#E6E6E6"/>
</svg>
