<svg width="25" height="24" viewBox="0 0 25 24" fill="none" xmlns="http://www.w3.org/2000/svg">
<path fill-rule="evenodd" clip-rule="evenodd" d="M3.75 0.874634C1.67893 0.874634 0 2.55357 0 4.62463V19.1464C0 21.2175 1.67893 22.8964 3.75 22.8964H16.2554C16.6696 22.8964 17.0054 22.5606 17.0054 22.1464C17.0054 21.7322 16.6696 21.3964 16.2554 21.3964H3.75C2.50736 21.3964 1.5 20.3891 1.5 19.1464V4.62463C1.5 3.38199 2.50736 2.37463 3.75 2.37463H18.7278C19.9705 2.37463 20.9778 3.38199 20.9778 4.62463V14.3938C20.9778 14.808 21.3136 15.1438 21.7278 15.1438C22.1421 15.1438 22.4778 14.808 22.4778 14.3938V4.62463C22.4778 2.55356 20.7989 0.874634 18.7278 0.874634H3.75ZM5.53842 6.64107C5.91622 6.64107 6.22248 6.33481 6.22248 5.95701C6.22248 5.57922 5.91622 5.27295 5.53842 5.27295C5.16062 5.27295 4.85436 5.57922 4.85436 5.95701C4.85436 6.33481 5.16062 6.64107 5.53842 6.64107ZM8.27466 5.27295C7.89687 5.27295 7.5906 5.57922 7.5906 5.95701C7.5906 6.33481 7.89687 6.64107 8.27466 6.64107H17.8515C18.2293 6.64107 18.5356 6.33481 18.5356 5.95701C18.5356 5.57922 18.2293 5.27295 17.8515 5.27295H8.27466ZM4.85436 9.60534C4.85436 9.22754 5.16062 8.92128 5.53842 8.92128H17.8515C18.2293 8.92128 18.5356 9.22754 18.5356 9.60534C18.5356 9.98313 18.2293 10.2894 17.8515 10.2894H5.53842C5.16062 10.2894 4.85436 9.98313 4.85436 9.60534ZM5.53842 12.5696C5.16062 12.5696 4.85436 12.8759 4.85436 13.2537C4.85436 13.6315 5.16062 13.9377 5.53842 13.9377H8.7307C9.1085 13.9377 9.41476 13.6315 9.41476 13.2537C9.41476 12.8759 9.1085 12.5696 8.7307 12.5696H5.53842ZM22.5221 20.8635C22.6197 20.7658 22.6197 20.6075 22.5221 20.5099L16.6451 14.6329C16.6144 14.6022 16.5761 14.58 16.5341 14.5685L14.5094 14.0163L15.0616 16.041C15.0731 16.083 15.0953 16.1213 15.126 16.152L21.003 22.029C21.1006 22.1266 21.2589 22.1266 21.3566 22.029L22.5221 20.8635ZM23.5828 19.4493C24.2662 20.1327 24.2662 21.2407 23.5828 21.9241L22.4172 23.0897C21.7338 23.7731 20.6258 23.7731 19.9423 23.0897L14.0654 17.2127C13.85 16.9974 13.6946 16.7295 13.6145 16.4357L12.717 13.1448C12.6461 12.8851 12.7199 12.6074 12.9102 12.4171C13.1005 12.2268 13.3782 12.153 13.6379 12.2239L16.9288 13.1214C17.2226 13.2015 17.4905 13.3569 17.7058 13.5723L23.5828 19.4493Z" fill="#FA5F6B"/>
</svg>
