<svg width="25" height="18" viewBox="0 0 25 18" fill="none" xmlns="http://www.w3.org/2000/svg">
<path fill-rule="evenodd" clip-rule="evenodd" d="M1.1241 0C0.503277 0 0 0.503277 0 1.1241C0 1.74492 0.503278 2.2482 1.1241 2.2482H17.9856C18.6064 2.2482 19.1097 1.74492 19.1097 1.1241C19.1097 0.503277 18.6064 0 17.9856 0H1.1241ZM1.1241 6.7446C0.503277 6.7446 0 7.24787 0 7.8687C0 8.48952 0.503277 8.9928 1.1241 8.9928H10.1169C10.7377 8.9928 11.241 8.48952 11.241 7.8687C11.241 7.24787 10.7377 6.7446 10.1169 6.7446H1.1241ZM0 14.6133C0 13.9925 0.503277 13.4892 1.1241 13.4892H10.1169C10.7377 13.4892 11.241 13.9925 11.241 14.6133C11.241 15.2341 10.7377 15.7374 10.1169 15.7374H1.1241C0.503277 15.7374 0 15.2341 0 14.6133ZM23.7362 12.4248C24.1954 12.1375 24.1954 11.4686 23.7361 11.1813L15.7355 6.1772C15.2471 5.87171 14.6133 6.22284 14.6133 6.79894L14.6133 16.8072C14.6133 17.3833 15.2471 17.7344 15.7355 17.4289L23.7362 12.4248Z" fill="#FC5E64"/>
</svg>
