<svg width="25" height="23" viewBox="0 0 25 23" fill="none" xmlns="http://www.w3.org/2000/svg">
<path fill-rule="evenodd" clip-rule="evenodd" d="M16.7321 1.57143H3.0957C2.30672 1.57143 1.66713 2.21102 1.66713 3V16.6364C1.66713 17.4254 2.30672 18.065 3.0957 18.065V19.6364C1.43885 19.6364 0.0957031 18.2933 0.0957031 16.6364V3C0.0957031 1.34314 1.43885 0 3.0957 0H16.7321C18.0383 0 19.1496 0.834808 19.5614 2H17.7523C17.493 1.73552 17.1317 1.57143 16.7321 1.57143ZM7.0957 4.57143H20.7321C21.5211 4.57143 22.1607 5.21102 22.1607 6V19.6364C22.1607 20.4254 21.5211 21.065 20.7321 21.065H7.0957C6.30672 21.065 5.66713 20.4254 5.66713 19.6364V6C5.66713 5.21102 6.30672 4.57143 7.0957 4.57143ZM4.0957 6C4.0957 4.34314 5.43885 3 7.0957 3H20.7321C22.389 3 23.7321 4.34315 23.7321 6V19.6364C23.7321 21.2933 22.389 22.6364 20.7321 22.6364H7.0957C5.43885 22.6364 4.0957 21.2933 4.0957 19.6364V6ZM19.0957 10.5C19.0957 10.7761 18.8718 11 18.5957 11C18.3196 11 18.0957 10.7761 18.0957 10.5C18.0957 10.2239 18.3196 10 18.5957 10C18.8718 10 19.0957 10.2239 19.0957 10.5ZM20.0957 10.5C20.0957 11.3284 19.4241 12 18.5957 12C17.7673 12 17.0957 11.3284 17.0957 10.5C17.0957 9.67157 17.7673 9 18.5957 9C19.4241 9 20.0957 9.67157 20.0957 10.5ZM12.5327 12.8083L9.12758 17.1334H13.7911C13.808 17.1046 13.8264 17.0762 13.8466 17.0482L14.8147 15.7068L12.5327 12.8083ZM15.7278 14.4416L13.3184 11.3814C12.9181 10.8729 12.1474 10.8729 11.747 11.3814L7.31185 17.0148C6.7954 17.6708 7.26268 18.6334 8.09757 18.6334H14.6575H19.408C20.2236 18.6334 20.6961 17.7096 20.2188 17.0482L17.8436 13.757C17.4445 13.204 16.621 13.204 16.2218 13.757L15.7278 14.4416ZM15.635 17.1334L17.0327 15.1966L18.4305 17.1334H15.635Z" fill="#FA5F6B"/>
</svg>
