<svg width="24" height="24" viewBox="0 0 24 24" fill="none" xmlns="http://www.w3.org/2000/svg">
<path d="M20.8 8.33333V6.13333C20.8 5.54986 20.5682 4.99028 20.1556 4.5777C19.7431 4.16512 19.1835 3.93333 18.6 3.93333V3.2C18.6 2.61652 18.3682 2.05695 17.9556 1.64437C17.5431 1.23179 16.9835 1 16.4 1H7.6C7.01652 1 6.45695 1.23179 6.04437 1.64437C5.63179 2.05695 5.4 2.61652 5.4 3.2V3.93333C4.81652 3.93333 4.25695 4.16512 3.84437 4.5777C3.43179 4.99028 3.2 5.54986 3.2 6.13333V8.33333C2.61652 8.33333 2.05695 8.56512 1.64437 8.9777C1.23179 9.39028 1 9.94986 1 10.5333V20.8C1 21.3835 1.23179 21.9431 1.64437 22.3556C2.05695 22.7682 2.61652 23 3.2 23H20.8C21.3835 23 21.9431 22.7682 22.3556 22.3556C22.7682 21.9431 23 21.3835 23 20.8V10.5333C23 9.94986 22.7682 9.39028 22.3556 8.9777C21.9431 8.56512 21.3835 8.33333 20.8 8.33333V8.33333ZM6.86667 3.2C6.86667 3.00551 6.94393 2.81898 7.08146 2.68146C7.21898 2.54393 7.40551 2.46667 7.6 2.46667H16.4C16.5945 2.46667 16.781 2.54393 16.9185 2.68146C17.0561 2.81898 17.1333 3.00551 17.1333 3.2V3.93333H6.86667V3.2ZM4.66667 6.13333C4.66667 5.93884 4.74393 5.75232 4.88146 5.61479C5.01898 5.47726 5.20551 5.4 5.4 5.4H18.6C18.7945 5.4 18.981 5.47726 19.1185 5.61479C19.2561 5.75232 19.3333 5.93884 19.3333 6.13333V8.33333H4.66667V6.13333ZM21.5333 20.8C21.5333 20.9945 21.4561 21.181 21.3185 21.3185C21.181 21.4561 20.9945 21.5333 20.8 21.5333H3.2C3.00551 21.5333 2.81898 21.4561 2.68146 21.3185C2.54393 21.181 2.46667 20.9945 2.46667 20.8V10.5333C2.46667 10.3388 2.54393 10.1523 2.68146 10.0148C2.81898 9.87726 3.00551 9.8 3.2 9.8H20.8C20.9945 9.8 21.181 9.87726 21.3185 10.0148C21.4561 10.1523 21.5333 10.3388 21.5333 10.5333V20.8Z" fill="#E6E6E6"/>
<path d="M15.6664 14.3466L11.4497 11.7066C11.2132 11.5604 10.942 11.48 10.664 11.4737C10.386 11.4673 10.1113 11.5353 9.86841 11.6706C9.62548 11.8059 9.42307 12.0036 9.28209 12.2433C9.1411 12.4829 9.06665 12.7559 9.06641 13.034V18.2993C9.06549 18.5774 9.13917 18.8506 9.27976 19.0905C9.42035 19.3304 9.62271 19.5282 9.86575 19.6633C10.1091 19.799 10.3842 19.8672 10.6627 19.8607C10.9413 19.8543 11.213 19.7735 11.4497 19.6266L15.6664 16.9866C15.8907 16.8471 16.0758 16.6526 16.2041 16.4217C16.3324 16.1907 16.3997 15.9308 16.3997 15.6666C16.3997 15.4024 16.3324 15.1426 16.2041 14.9116C16.0758 14.6807 15.8907 14.4862 15.6664 14.3466V14.3466ZM14.8891 15.7473L10.6724 18.38C10.6582 18.3874 10.6423 18.3911 10.6262 18.3908C10.6102 18.3904 10.5945 18.386 10.5806 18.3779C10.5667 18.3699 10.555 18.3585 10.5467 18.3447C10.5384 18.331 10.5337 18.3154 10.5331 18.2993V13.034C10.5313 13.0176 10.5346 13.0012 10.5425 12.9868C10.5503 12.9723 10.5624 12.9607 10.5771 12.9533C10.5937 12.9477 10.6118 12.9477 10.6284 12.9533H10.6724L14.8891 15.586C14.9027 15.5946 14.914 15.6065 14.9217 15.6206C14.9295 15.6347 14.9336 15.6505 14.9336 15.6666C14.9336 15.6828 14.9295 15.6986 14.9217 15.7127C14.914 15.7268 14.9027 15.7387 14.8891 15.7473V15.7473Z" fill="#E6E6E6"/>
</svg>
