<svg width="24" height="24" viewBox="0 0 24 24" fill="none" xmlns="http://www.w3.org/2000/svg">
<g clip-path="url(#clip0_1928_20562)">
<path d="M11.8912 12.9781L16.3912 16.3531C16.7227 16.6017 17.1926 16.5346 17.4412 16.2031C17.6899 15.8716 17.6227 15.4017 17.2912 15.1531L13.125 11.9993V5.62433C13.125 5.20995 12.7894 4.87433 12.375 4.87433C11.9606 4.87433 11.625 5.20995 11.625 5.62433V12.3743C11.625 12.6233 11.7292 12.8476 11.8912 12.9781Z" fill="#E6E6E6"/>
<path d="M12.7511 0.750854C7.26148 0.750854 2.57361 4.7131 1.65861 10.1259L1.37361 9.70211C1.14148 9.35823 0.674981 9.26748 0.331106 9.49961C-0.0127689 9.73173 -0.103519 10.1982 0.128606 10.5421L1.62861 12.7921C1.75198 12.9796 1.95298 13.1022 2.17611 13.1259H2.25111C2.44986 13.1251 2.63998 13.0456 2.77986 12.9046L4.65486 11.0296C4.94773 10.7367 4.94773 10.2612 4.65486 9.96836C4.36198 9.67548 3.88648 9.67548 3.59361 9.96836L3.12861 10.4371C3.99223 5.12185 9.00111 1.5136 14.316 2.37723C19.6309 3.24085 23.2399 8.24935 22.3762 13.5646C21.6094 18.2844 17.5327 21.7516 12.7511 21.7509C9.73536 21.8056 6.88311 20.3829 5.11236 17.9409C4.87198 17.6034 4.40361 17.5242 4.06611 17.7646C3.72861 18.005 3.64948 18.4734 3.88986 18.8109C5.94036 21.6504 9.24936 23.3082 12.7511 23.2509C18.9645 23.2509 24.0011 18.2142 24.0011 12.0009C24.0011 5.78748 18.9645 0.750854 12.7511 0.750854Z" fill="#E6E6E6"/>
</g>
<defs>
<clipPath id="clip0_1928_20562">
<rect width="24" height="24" fill="white"/>
</clipPath>
</defs>
</svg>
