<svg width="25" height="25" viewBox="0 0 25 25" fill="none" xmlns="http://www.w3.org/2000/svg">
<g clip-path="url(#clip0_2302_21831)">
<path d="M20.5801 13.4442H18.2308C17.9111 13.4442 17.6015 13.4879 17.3069 13.5683C16.7257 12.4258 15.5392 11.6409 14.172 11.6409H10.0194C8.65217 11.6409 7.46567 12.4258 6.88452 13.5683C6.58991 13.4879 6.28034 13.4442 5.96061 13.4442H3.61133C1.67281 13.4442 0.0957031 15.0214 0.0957031 16.9599V20.7154C0.0957031 21.8785 1.04197 22.8248 2.20508 22.8248H21.9863C23.1494 22.8248 24.0957 21.8785 24.0957 20.7154V16.9599C24.0957 15.0214 22.5186 13.4442 20.5801 13.4442ZM6.50375 15.1566V21.4186H2.20508C1.81738 21.4186 1.50195 21.1032 1.50195 20.7154V16.9599C1.50195 15.7968 2.44822 14.8505 3.61133 14.8505H5.96061C6.15148 14.8505 6.33631 14.8765 6.51228 14.9242C6.50722 15.0012 6.50375 15.0785 6.50375 15.1566ZM16.2814 21.4186H7.91V15.1565C7.91 13.9934 8.85627 13.0472 10.0194 13.0472H14.172C15.3351 13.0472 16.2814 13.9934 16.2814 15.1565V21.4186ZM22.6895 20.7154C22.6895 21.1032 22.374 21.4186 21.9863 21.4186H17.6877V15.1565C17.6877 15.0784 17.6842 15.0011 17.6791 14.9242C17.8551 14.8765 18.0399 14.8505 18.2308 14.8505H20.5801C21.7432 14.8505 22.6895 15.7968 22.6895 16.9599V20.7154Z" fill="#FA5F6B"/>
<path d="M4.78614 6.80444C3.06353 6.80444 1.66211 8.20587 1.66211 9.92847C1.66206 11.6511 3.06353 13.0525 4.78614 13.0525C6.5087 13.0525 7.91017 11.6511 7.91017 9.92847C7.91017 8.20587 6.50875 6.80444 4.78614 6.80444ZM4.78609 11.6463C3.83889 11.6463 3.06831 10.8757 3.06831 9.92847C3.06831 8.98127 3.83889 8.21069 4.78609 8.21069C5.7333 8.21069 6.50388 8.98127 6.50388 9.92847C6.50388 10.8757 5.7333 11.6463 4.78609 11.6463Z" fill="#FA5F6B"/>
<path d="M12.0955 2.92444C9.79416 2.92444 7.92188 4.79672 7.92188 7.09809C7.92188 9.39947 9.79416 11.2718 12.0955 11.2718C14.3969 11.2718 16.2692 9.39947 16.2692 7.09809C16.2692 4.79677 14.3969 2.92444 12.0955 2.92444ZM12.0955 9.8655C10.5696 9.8655 9.32812 8.62406 9.32812 7.09809C9.32812 5.57217 10.5696 4.33069 12.0955 4.33069C13.6215 4.33069 14.8629 5.57213 14.8629 7.09809C14.8629 8.62406 13.6215 9.8655 12.0955 9.8655Z" fill="#FA5F6B"/>
<path d="M19.4053 6.80444C17.6827 6.80444 16.2812 8.20587 16.2812 9.92847C16.2813 11.6511 17.6827 13.0525 19.4053 13.0525C21.1279 13.0525 22.5293 11.6511 22.5293 9.92847C22.5293 8.20587 21.1279 6.80444 19.4053 6.80444ZM19.4053 11.6463C18.4581 11.6463 17.6875 10.8757 17.6875 9.92847C17.6875 8.98127 18.4581 8.21069 19.4053 8.21069C20.3525 8.21069 21.1231 8.98127 21.1231 9.92847C21.1231 10.8757 20.3525 11.6463 19.4053 11.6463Z" fill="#FA5F6B"/>
</g>
<defs>
<clipPath id="clip0_2302_21831">
<rect width="24" height="24" fill="white" transform="translate(0.0957031 0.874634)"/>
</clipPath>
</defs>
</svg>
