<svg width="25" height="26" viewBox="0 0 25 26" fill="none" xmlns="http://www.w3.org/2000/svg">
<path fill-rule="evenodd" clip-rule="evenodd" d="M19.0957 2.58462H3.0957C2.3225 2.58462 1.6957 3.21142 1.6957 3.98462V19.9846C1.6957 20.7578 2.3225 21.3846 3.0957 21.3846H5.0957V18.4846C5.0957 16.5516 6.43885 14.9846 8.0957 14.9846H14.0957C15.7526 14.9846 17.0957 16.5516 17.0957 18.4846V18.9846C16.4968 19.2475 16.0072 19.6492 15.5957 20.1151V18.4846C15.5957 17.5181 14.9241 16.7346 14.0957 16.7346H8.0957C7.26728 16.7346 6.5957 17.5181 6.5957 18.4846V21.3846H14.7039C14.4704 21.788 14.2682 22.1922 14.0828 22.5627C14.0094 22.7093 13.9387 22.8507 13.8697 22.9846H3.0957C1.43885 22.9846 0.0957031 21.6415 0.0957031 19.9846V3.98462C0.0957031 2.32776 1.43885 0.984619 3.0957 0.984619H19.0957C20.7526 0.984619 22.0957 2.32776 22.0957 3.98462V10.9989C21.9336 10.9892 21.7668 10.9846 21.5957 10.9846C21.212 10.9846 20.8398 11.0996 20.4957 11.309V3.98462C20.4957 3.21142 19.8689 2.58462 19.0957 2.58462ZM13.1695 13.062C12.6089 13.6226 11.8486 13.9375 11.0559 13.9375C10.2631 13.9375 9.5028 13.6226 8.94222 13.062C8.38165 12.5015 8.06673 11.7412 8.06673 10.9484C8.06673 10.1556 8.38165 9.39533 8.94222 8.83476C9.5028 8.27419 10.2631 7.95927 11.0559 7.95927C11.8486 7.95927 12.6089 8.27419 13.1695 8.83476C13.7301 9.39533 14.045 10.1556 14.045 10.9484C14.045 11.7412 13.7301 12.5015 13.1695 13.062ZM9.99904 12.0052C10.2793 12.2855 10.6595 12.443 11.0559 12.443C11.4522 12.443 11.8324 12.2855 12.1127 12.0052C12.393 11.7249 12.5504 11.3448 12.5504 10.9484C12.5504 10.552 12.393 10.1719 12.1127 9.89158C11.8324 9.6113 11.4522 9.45383 11.0559 9.45383C10.6595 9.45383 10.2793 9.6113 9.99904 9.89158C9.71876 10.1719 9.56129 10.552 9.56129 10.9484C9.56129 11.3448 9.71876 11.7249 9.99904 12.0052Z" fill="#FA5F6B"/>
<path d="M15.3621 22.2242C15.3274 22.1177 15.3218 22.0039 15.346 21.8946C15.3701 21.7852 15.4231 21.6843 15.4994 21.6023L16.5761 20.4444C16.6455 20.3697 16.7322 20.3131 16.8284 20.2794C16.9247 20.2458 17.0277 20.2361 17.1286 20.2512L18.7639 20.4959C18.7639 20.4959 19.7449 19.9509 20.3201 18.8204C20.8949 17.6898 20.7553 16.5806 20.7553 16.5806L19.5941 15.4036C19.5224 15.331 19.4695 15.242 19.4399 15.1443C19.4104 15.0467 19.4052 14.9432 19.4246 14.8431L19.7283 13.2856C19.7498 13.1758 19.8002 13.0738 19.8744 12.99C19.9485 12.9063 20.0437 12.8439 20.15 12.8093L21.6634 12.3163C22.4343 12.0651 23.2243 12.5998 23.2158 13.4103C23.1982 15.0753 22.9931 17.7177 21.9981 19.6743C21.0029 21.6306 18.9888 23.353 17.6533 24.3477C17.0036 24.8319 16.1063 24.5085 15.8551 23.7376L15.3621 22.2242Z" stroke="#FA5F6B" stroke-width="1.5" stroke-linejoin="round"/>
</svg>
